<svg id="Capa_1" xmlns="http://www.w3.org/2000/svg" viewBox="0 0 20 20"><style>.st0{fill:#1e1e24}.st1{fill:#fff}</style><path class="st0" d="M16.3.4H3.7C2 .4.5 1.8.5 3.6v12.7c0 1.7 1.4 3.2 3.2 3.2h12.7c1.8 0 3.2-1.4 3.2-3.2V3.6C19.5 1.9 18.1.4 16.3.4z"/><path class="st1" d="M8.7 9.4s1.4-.1 1.4-1.8S9 5 7.5 5H2.7v9.7h4.8s2.9.1 2.9-2.9c.1 0 .2-2.4-1.7-2.4zM4.8 6.7h2.7s.7 0 .7 1-.4 1.1-.8 1.1H4.8V6.7zM7.4 13H4.8v-2.6h2.7s1 0 1 1.3c0 1.1-.8 1.2-1.1 1.3zm7-5.5c-3.6 0-3.6 3.7-3.6 3.7s-.2 3.7 3.6 3.7c0 0 3.2.2 3.2-2.6H16s.1 1-1.5 1c0 0-1.6.1-1.6-1.7h4.8c-.1.1.4-4.1-3.3-4.1zm1.4 2.9h-3s.2-1.5 1.6-1.5c1.5 0 1.4 1.5 1.4 1.5zm.4-4.8h-3.8v1.2h3.8V5.6z"/></svg>