<svg id="Capa_1" xmlns="http://www.w3.org/2000/svg" viewBox="0 0 94.1 94.1"><style>.st0{fill:#262626}</style><path class="st0" d="M71.8 42.7c-1.2 0-2.4.3-3.4.8-.6-3.8-3.9-6.8-7.9-6.8-1.2 0-2.4.3-3.5.8-.7-3.7-3.9-6.6-7.9-6.6-1.2 0-2.3.3-3.3.7v-2.1c4.7-2.8 7.8-7.8 7.8-13.7.1-8.7-7-15.8-15.8-15.8C29.1 0 22 7.1 22 15.9c0 5.8 3.2 10.9 7.9 13.7v14.8l-.2-.5c-1.2-3-4.1-5-7.4-5-1 0-2.1.2-3 .6-4.1 1.7-6 6.4-4.4 10.4l11.6 28.2.1.1C31.2 88 40.9 94 51.7 94c15.5 0 28.1-12.5 28.1-28V50.7c0-4.4-3.6-8-8-8zM26.7 15.9c0-6.2 5-11.2 11.2-11.2S49 9.7 49 15.9c0 3-1.2 5.8-3.2 7.8v-7.8c0-4.4-3.6-8-8-8s-8 3.6-8 8v7.8c-1.9-2.1-3.1-4.8-3.1-7.8zM75.1 66c0 12.9-10.5 23.4-23.4 23.4-9 0-17.1-5-21-13.1L19.2 48.2c-.3-.8-.3-1.7 0-2.6.3-.8 1-1.5 1.8-1.8.4-.2.8-.3 1.3-.3 1.4 0 2.6.8 3.1 2.1l9.2 21.7V15.8c0-1.8 1.5-3.3 3.3-3.3 1.8 0 3.3 1.5 3.3 3.3v35c0 1.3 1 2.3 2.3 2.3 1.3 0 2.3-1 2.3-2.3V38.9c0-1.8 1.5-3.3 3.3-3.3 1.8 0 3.3 1.5 3.3 3.3V55c0 1.3 1 2.3 2.3 2.3 1.3 0 2.3-1 2.3-2.3V44.7c0-1.8 1.5-3.3 3.3-3.3 1.8 0 3.3 1.5 3.3 3.3v14.4c0 1.3 1 2.3 2.3 2.3 1.3 0 2.3-1 2.3-2.3v-8.4c0-1.8 1.5-3.3 3.3-3.3 1.8 0 3.3 1.5 3.3 3.3V66z"/></svg>