<svg width="109" height="109" viewBox="0 0 109 109" xmlns="http://www.w3.org/2000/svg" xmlns:xlink="http://www.w3.org/1999/xlink"><title>Slice 1</title><defs><filter x="-50%" y="-50%" width="200%" height="200%" filterUnits="objectBoundingBox" id="a"><feOffset dy="3" in="SourceAlpha" result="shadowOffsetOuter1"/><feGaussianBlur stdDeviation="2" in="shadowOffsetOuter1" result="shadowBlurOuter1"/><feColorMatrix values="0 0 0 0 0 0 0 0 0 0 0 0 0 0 0 0 0 0 0.35 0" in="shadowBlurOuter1" result="shadowMatrixOuter1"/><feMerge><feMergeNode in="shadowMatrixOuter1"/><feMergeNode in="SourceGraphic"/></feMerge></filter><path id="b" d="M0 .587h49.7V45.07H0"/></defs><g fill="none" fill-rule="evenodd"><circle stroke="#FFF" stroke-width="3" fill="#3B4" filter="url(#a)" cx="54.5" cy="51.5" r="48.5"/><g transform="translate(30 29)"><mask id="c" fill="#fff"><use xlink:href="#b"/></mask><path d="M24.65.587c-1.775 0-3.506.02-5.14.056C15.832.725 12.778 2.7 11.346 5.8 3.802 6.024.1 9.963.036 17.828c-.05 5.61-.047 10.603.01 15.26.092 7.695 4.25 11.826 12.024 11.95 1.48.022 3.055.032 4.953.032 1.34 0 2.68-.005 4.02-.01 1.27-.004 2.54-.01 3.808-.01h4.282l3.49.003c1.783 0 3.565-.002 5.346-.008 6.86-.02 11.416-4.233 11.605-10.732.166-5.733.168-11.76.007-17.912-.167-6.237-4.5-10.592-10.54-10.592-.15 0-.3.002-.45.007-.155.005-.306.01-.453.01-1.144-3.107-4.262-5.12-8.17-5.19A301.78 301.78 0 0 0 24.65.588m0 5.633c1.74 0 3.478.018 5.215.05 1.267.022 2.738.466 3.045 1.7.744 2.98 2.617 3.49 5.055 3.49.266 0 .538-.004.817-.014a8.04 8.04 0 0 1 .258-.004c3.153 0 4.826 2.047 4.908 5.107.154 5.862.164 11.735-.006 17.6-.107 3.67-2.474 5.25-5.992 5.26-1.776.007-3.55.01-5.327.01-2.324 0-4.65-.004-6.974-.004h-.8c-2.61 0-5.218.02-7.827.02-1.622 0-3.243-.007-4.864-.032-4.77-.075-6.425-1.706-6.482-6.38-.06-5.05-.054-10.1-.01-15.15.04-4.893 1.45-6.428 6.287-6.45 2.14-.01 3.674-.285 4.29-2.655.42-1.614 1.763-2.458 3.394-2.495 1.67-.038 3.34-.055 5.01-.055" fill="#FFF" mask="url(#c)"/></g><path d="M54.83 47.004c-3.563 0-6.338 2.71-6.356 6.172-.02 3.448 2.795 6.272 6.272 6.294l.043 2.817V59.47c3.507 0 6.27-2.727 6.287-6.208.01-1.705-.62-3.28-1.774-4.44-1.16-1.164-2.747-1.81-4.472-1.818m-.04 18.1c-.003-.004-.074 0-.074 0-6.585-.04-11.91-5.406-11.876-11.957.036-6.604 5.286-11.777 11.95-11.777 3.293.015 6.29 1.25 8.506 3.477 2.22 2.23 3.433 5.23 3.415 8.446-.034 6.512-5.38 11.81-11.92 11.81" fill="#FFF"/></g></svg>