<svg id="Capa_1" xmlns="http://www.w3.org/2000/svg" viewBox="-364 238.3 145.7 96.9"><style>.st0{fill:#fff}</style><title>download</title><path class="st0" d="M3079.9 699.7l-6.1-7c-1.9-2.2-5.2-2.4-7.4-.5s-2.4 5.2-.5 7.4l14.7 17c1.7 2 4.5 2.3 6.7 1.1 1-.2 2-.8 2.7-1.7l14.7-17c1.9-2.2 1.7-5.5-.5-7.4-2.2-1.9-5.5-1.7-7.4.5l-6.5 7.5.5-26.2c.1-2.9-2.3-5.3-5.2-5.3-2.9-.1-5.3 2.3-5.3 5.1l-.4 26.5zm35.7-11c9.1-.1 16.5-7.6 16.5-16.8 0-9.3-7.5-16.8-16.8-16.8-1.2 0-2.4.1-3.6.4-2.4-12.8-13.7-22.5-27.2-22.5-13.2 0-24.2 9.2-27 21.6h-.4c-9.5 0-17.2 7.7-17.2 17.2 0 8.7 6.4 15.9 14.8 17 .4-.1.8-.1 1.2-.1 2.9 0 5.2 2.3 5.2 5.2s-2.3 5.2-5.2 5.2c-.5 0-1.1-.1-1.5-.2-13.1-1.7-23.2-12.9-23.2-26.4 0-11.9 7.8-22 18.6-25.4 5.4-13.9 19-23.7 34.8-23.7 15.4 0 28.6 9.3 34.3 22.6 13.5 1.3 24 12.7 24 26.5 0 14.7-12 26.7-26.7 26.7H3115.3c-2.9 0-5.2-2.3-5.2-5.2s2.3-5.2 5.2-5.2c.1-.1.2-.1.3-.1zm-13.4-6.3c-.1-.1-.1-.2-.2-.2-.1.1-.2.2-.3.2h.5z" transform="translate(-3395 -385)"/></svg>