<svg id="Capa_1" xmlns="http://www.w3.org/2000/svg" xmlns:xlink="http://www.w3.org/1999/xlink" viewBox="0 0 270 270"><style>.st0{fill:#1d70b7}.st1{fill:#35a8e0}.st2{clip-path:url(#SVGID_2_);fill:#2d2925}.st3,.st4,.st5,.st6,.st7{clip-path:url(#SVGID_2_);fill:#545b60}.st4,.st5,.st6,.st7{fill:#61594d}.st5,.st6,.st7{fill:#6d8293}.st6,.st7{fill:#699cbd}.st7{fill:#977d58}.st10,.st11,.st12,.st8,.st9{clip-path:url(#SVGID_2_);fill:#35a8e0}.st10,.st11,.st12,.st9{fill:#73b9e7}.st10,.st11,.st12{fill:#9ccaee}.st11,.st12{fill:#c1dcf4}.st12{fill:#e1eefa}.st13{fill:#ffcb03}.st14{fill:none;stroke:#2d2925;stroke-width:5.5405;stroke-linecap:round;stroke-miterlimit:10}.st15{fill:#9ccaee}.st16{fill:#c1dcf4}.st17{fill:#2d2925}</style><path class="st0" d="M41.7 132.6l-.8-7.5 9.5-12.1c1.4-1.8 1.1-4.5-.7-5.9-1.8-1.4-4.5-1.1-5.9.7l-1.3 1.7L41 96.9c-.3-2.1-2.2-3.7-4.3-3.4-2.1.3-3.7 2.2-3.4 4.3l.8 6.6c0 .7-.6 1.4-1.4 1.5-.9.1-1.6-.5-1.7-1.4v-.1l-1.4-11.3c-.3-2.1-2.2-3.7-4.3-3.4s-3.7 2.2-3.4 4.3l1.4 11.3c.1.8-.5 1.5-1.3 1.6-.5.1-1-.1-1.3-.5l-.3-.8-2.9-6.6c-.9-2-3.2-2.9-5.1-2-2 .9-2.9 3.2-2 5.1l3.1 7.1 2.1 17.9 1 8.3c5.5 45.3 46.7 77.7 92 72.2l-3-25.4c-31.6 4.1-60.1-18.3-63.9-49.6zM235 109.3l-1-7.5-12.1-9.5c-1.8-1.4-2.1-4.1-.7-5.9 1.4-1.8 4.1-2.1 5.9-.7l1.7 1.3-1.5-12.6c-.3-2.1 1.3-4.1 3.4-4.3s4.1 1.3 4.3 3.4l.8 6.6c.2.7.9 1.2 1.7 1.1.9-.1 1.5-.9 1.4-1.7v-.1l-1.4-11.3c-.3-2.1 1.3-4.1 3.4-4.3 2.1-.3 4.1 1.3 4.3 3.4l1.4 11.3c.1.8.8 1.4 1.6 1.3.5-.1.9-.4 1.1-.8l.1-.8 1.3-7.1c.4-2.1 2.4-3.5 4.5-3.2 2.1.4 3.5 2.4 3.2 4.5l-1.4 7.7 3.3 26.2c5.5 45.3-27 86.6-72.2 92L185 173c31.4-3.9 53.8-32.4 50-63.7z"/><path class="st1" d="M156.7 327.3c-33.2 4-63.6-19.9-67.5-53l-18.7-155c-4-33.2 19.9-63.6 53-67.5 33.2-4 63.6 19.9 67.5 53l18.6 154.9c4.1 33.2-19.8 63.6-52.9 67.6z"/><defs><path id="SVGID_1_" d="M156.7 327.3c-33.2 4-63.6-19.9-67.5-53l-14-115.4c-4-33.2 19.9-63.6 53-67.5 33.2-4 63.6 19.9 67.5 53l13.9 115.3c4.1 33.2-19.8 63.6-52.9 67.6z"/></defs><clipPath id="SVGID_2_"><use xlink:href="#SVGID_1_" overflow="visible"/></clipPath><path class="st2" d="M111.3 345.4c-7.4.9-14.1-4.4-15-11.8l-1.2-9.6c-.9-7.4 4.4-14.1 11.8-15 7.4-.9 14.1 4.4 15 11.8l1.2 9.6c.8 7.3-4.5 14.1-11.8 15z"/><path class="st3" d="M138.1 342.1c-7.4.9-14.1-4.4-15-11.8l-1.2-9.6c-.9-7.4 4.4-14.1 11.8-15 7.4-.9 14.1 4.4 15 11.8l1.2 9.6c.8 7.4-4.5 14.2-11.8 15z"/><path class="st3" d="M164.9 338.9c-7.4.9-14.1-4.4-15-11.8l-1.2-9.6c-.9-7.4 4.4-14.1 11.8-15 7.4-.9 14.1 4.4 15 11.8l1.2 9.6c.8 7.4-4.5 14.1-11.8 15z"/><path class="st2" d="M191.7 335.7c-7.4.9-14.1-4.4-15-11.8l-1.2-9.6c-.9-7.4 4.4-14.1 11.8-15 7.4-.9 14.1 4.4 15 11.8l1.2 9.6c.8 7.4-4.5 14.1-11.8 15z"/><path class="st2" d="M218.5 332.5c-7.4.9-14.1-4.4-15-11.8l-1.2-9.6c-.9-7.4 4.4-14.1 11.8-15 7.4-.9 14.1 4.4 15 11.8l1.2 9.6c.8 7.3-4.5 14.1-11.8 15z"/><path class="st4" d="M95.9 310.5c-7.4.9-14.1-4.4-15-11.8l-1.2-9.6c-.9-7.4 4.4-14.1 11.8-15 7.4-.9 14.1 4.4 15 11.8l1.2 9.6c.9 7.4-4.4 14.1-11.8 15z"/><path class="st5" d="M122.7 307.3c-7.4.9-14.1-4.4-15-11.8l-1.2-9.6c-.9-7.4 4.4-14.1 11.8-15 7.4-.9 14.1 4.4 15 11.8l1.2 9.6c.9 7.4-4.4 14.1-11.8 15z"/><path class="st5" d="M149.5 304.1c-7.4.9-14.1-4.4-15-11.8l-1.2-9.6c-.9-7.4 4.4-14.1 11.8-15 7.4-.9 14.1 4.4 15 11.8l1.2 9.6c.9 7.3-4.4 14.1-11.8 15z"/><path class="st5" d="M176.3 300.9c-7.4.9-14.1-4.4-15-11.8l-1.2-9.6c-.9-7.4 4.4-14.1 11.8-15 7.4-.9 14.1 4.4 15 11.8l1.2 9.6c.9 7.3-4.4 14.1-11.8 15z"/><path class="st4" d="M203.1 297.6c-7.4.9-14.1-4.4-15-11.8l-1.2-9.6c-.9-7.4 4.4-14.1 11.8-15 7.4-.9 14.1 4.4 15 11.8l1.2 9.6c.9 7.4-4.4 14.1-11.8 15z"/><path class="st6" d="M105.4 296.7c-7.4.9-14.1-4.4-15-11.8l-1.2-9.6c-.9-7.4 4.4-14.1 11.8-15 7.4-.9 14.1 4.4 15 11.8l1.2 9.6c.9 7.4-4.4 14.1-11.8 15z"/><path class="st6" d="M132.2 293.5c-7.4.9-14.1-4.4-15-11.8l-1.2-9.6c-.9-7.4 4.4-14.1 11.8-15 7.4-.9 14.1 4.4 15 11.8l1.2 9.6c.9 7.4-4.4 14.1-11.8 15z"/><path class="st6" d="M159 290.3c-7.4.9-14.1-4.4-15-11.8l-1.2-9.6c-.9-7.4 4.4-14.1 11.8-15 7.4-.9 14.1 4.4 15 11.8l1.2 9.6c.9 7.3-4.4 14.1-11.8 15z"/><path class="st6" d="M185.8 287.1c-7.4.9-14.1-4.4-15-11.8l-1.2-9.6c-.9-7.4 4.4-14.1 11.8-15 7.4-.9 14.1 4.4 15 11.8l1.2 9.6c.9 7.3-4.4 14.1-11.8 15z"/><path class="st7" d="M212.6 283.8c-7.4.9-14.1-4.4-15-11.8l-1.2-9.6c-.9-7.4 4.4-14.1 11.8-15 7.4-.9 14.1 4.4 15 11.8l1.2 9.6c.9 7.4-4.4 14.1-11.8 15z"/><path class="st8" d="M93.8 284.4c-7.4.9-14.1-4.4-15-11.8l-1.2-9.6c-.9-7.4 4.4-14.1 11.8-15 7.4-.9 14.1 4.4 15 11.8l1.2 9.6c.9 7.4-4.4 14.1-11.8 15z"/><path class="st8" d="M120.6 281.2c-7.4.9-14.1-4.4-15-11.8l-1.2-9.6c-.9-7.4 4.4-14.1 11.8-15 7.4-.9 14.1 4.4 15 11.8l1.2 9.6c.9 7.3-4.4 14.1-11.8 15zM147.4 277.9c-7.4.9-14.1-4.4-15-11.8l-1.2-9.6c-.9-7.4 4.4-14.1 11.8-15 7.4-.9 14.1 4.4 15 11.8l1.2 9.6c.9 7.4-4.4 14.2-11.8 15z"/><path class="st8" d="M174.2 274.7c-7.4.9-14.1-4.4-15-11.8l-1.2-9.6c-.9-7.4 4.4-14.1 11.8-15 7.4-.9 14.1 4.4 15 11.8l1.2 9.6c.9 7.4-4.4 14.1-11.8 15z"/><path class="st8" d="M200.1 272.7c-7.4.9-14.1-4.4-15-11.8l-1.2-9.6c-.9-7.4 4.4-14.1 11.8-15 7.4-.9 14.1 4.4 15 11.8l1.2 9.6c.9 7.3-4.4 14.1-11.8 15z"/><path class="st9" d="M102.4 271.8c-7.4.9-14.1-4.4-15-11.8l-1.2-9.6c-.9-7.4 4.4-14.1 11.8-15 7.4-.9 14.1 4.4 15 11.8l1.2 9.6c.9 7.3-4.4 14.1-11.8 15z"/><path class="st9" d="M129.2 268.6c-7.4.9-14.1-4.4-15-11.8l-1.2-9.6c-.9-7.4 4.4-14.1 11.8-15 7.4-.9 14.1 4.4 15 11.8l1.2 9.6c.9 7.3-4.4 14.1-11.8 15zM156 265.3c-7.4.9-14.1-4.4-15-11.8l-1.2-9.6c-.9-7.4 4.4-14.1 11.8-15 7.4-.9 14.1 4.4 15 11.8l1.2 9.6c.9 7.4-4.4 14.1-11.8 15z"/><path class="st9" d="M182.8 262.1c-7.4.9-14.1-4.4-15-11.8l-1.2-9.6c-.9-7.4 4.4-14.1 11.8-15 7.4-.9 14.1 4.4 15 11.8l1.2 9.6c.9 7.4-4.4 14.1-11.8 15z"/><path class="st9" d="M209.6 258.9c-7.4.9-14.1-4.4-15-11.8l-1.2-9.6c-.9-7.4 4.4-14.1 11.8-15 7.4-.9 14.1 4.4 15 11.8l1.2 9.6c.9 7.3-4.4 14.1-11.8 15z"/><path class="st10" d="M89.9 260.6c-7.4.9-14.1-4.4-15-11.8l-1.2-9.6c-.9-7.4 4.4-14.1 11.8-15 7.4-.9 14.1 4.4 15 11.8l1.2 9.6c.9 7.4-4.4 14.1-11.8 15z"/><path class="st10" d="M116.7 257.4c-7.4.9-14.1-4.4-15-11.8l-1.2-9.6c-.9-7.4 4.4-14.1 11.8-15 7.4-.9 14.1 4.4 15 11.8l1.2 9.6c.9 7.4-4.4 14.1-11.8 15z"/><path class="st10" d="M143.5 254.2c-7.4.9-14.1-4.4-15-11.8l-1.2-9.6c-.9-7.4 4.4-14.1 11.8-15 7.4-.9 14.1 4.4 15 11.8l1.2 9.6c.9 7.3-4.4 14.1-11.8 15z"/><path class="st10" d="M170.3 251c-7.4.9-14.1-4.4-15-11.8l-1.2-9.6c-.9-7.4 4.4-14.1 11.8-15 7.4-.9 14.1 4.4 15 11.8l1.2 9.6c.9 7.3-4.4 14.1-11.8 15zM197.1 247.7c-7.4.9-14.1-4.4-15-11.8l-1.2-9.6c-.9-7.4 4.4-14.1 11.8-15 7.4-.9 14.1 4.4 15 11.8l1.2 9.6c.9 7.4-4.4 14.1-11.8 15z"/><path class="st11" d="M99.4 246.8c-7.4.9-14.1-4.4-15-11.8l-1.2-9.6c-.9-7.4 4.4-14.1 11.8-15 7.4-.9 14.1 4.4 15 11.8l1.2 9.6c.9 7.4-4.4 14.1-11.8 15z"/><path class="st11" d="M126.2 243.6c-7.4.9-14.1-4.4-15-11.8l-1.2-9.6c-.9-7.4 4.4-14.1 11.8-15 7.4-.9 14.1 4.4 15 11.8l1.2 9.6c.9 7.4-4.4 14.1-11.8 15z"/><path class="st11" d="M153 240.4c-7.4.9-14.1-4.4-15-11.8l-1.2-9.6c-.9-7.4 4.4-14.1 11.8-15 7.4-.9 14.1 4.4 15 11.8l1.2 9.6c.9 7.3-4.4 14.1-11.8 15z"/><path class="st11" d="M179.8 237.2c-7.4.9-14.1-4.4-15-11.8l-1.2-9.6c-.9-7.4 4.4-14.1 11.8-15 7.4-.9 14.1 4.4 15 11.8l1.2 9.6c.9 7.3-4.4 14.1-11.8 15zM206.6 233.9c-7.4.9-14.1-4.4-15-11.8l-1.2-9.6c-.9-7.4 4.4-14.1 11.8-15 7.4-.9 14.1 4.4 15 11.8l1.2 9.6c.9 7.4-4.4 14.1-11.8 15z"/><path class="st12" d="M86.9 235.7c-7.4.9-14.1-4.4-15-11.8l-1.2-9.6c-.9-7.4 4.4-14.1 11.8-15 7.4-.9 14.1 4.4 15 11.8l1.2 9.6c.9 7.3-4.4 14.1-11.8 15z"/><path class="st12" d="M113.7 232.5c-7.4.9-14.1-4.4-15-11.8l-1.2-9.6c-.9-7.4 4.4-14.1 11.8-15 7.4-.9 14.1 4.4 15 11.8l1.2 9.6c.9 7.3-4.4 14.1-11.8 15zM140.5 229.2c-7.4.9-14.1-4.4-15-11.8l-1.2-9.6c-.9-7.4 4.4-14.1 11.8-15 7.4-.9 14.1 4.4 15 11.8l1.2 9.6c.9 7.4-4.4 14.1-11.8 15z"/><path class="st12" d="M167.3 226c-7.4.9-14.1-4.4-15-11.8l-1.2-9.6c-.9-7.4 4.4-14.1 11.8-15 7.4-.9 14.1 4.4 15 11.8l1.2 9.6c.9 7.4-4.4 14.1-11.8 15z"/><path class="st12" d="M194.1 222.8c-7.4.9-14.1-4.4-15-11.8l-1.2-9.6c-.9-7.4 4.4-14.1 11.8-15 7.4-.9 14.1 4.4 15 11.8l1.2 9.6c.9 7.3-4.4 14.1-11.8 15z"/><path class="st8" d="M96.4 221.9c-7.4.9-14.1-4.4-15-11.8l-1.2-9.6c-.9-7.4 4.4-14.1 11.8-15 7.4-.9 14.1 4.4 15 11.8l1.2 9.6c.9 7.3-4.4 14.1-11.8 15z"/><path class="st8" d="M123.2 218.7c-7.4.9-14.1-4.4-15-11.8l-1.2-9.6c-.9-7.4 4.4-14.1 11.8-15 7.4-.9 14.1 4.4 15 11.8l1.2 9.6c.9 7.3-4.4 14.1-11.8 15zM150 215.4c-7.4.9-14.1-4.4-15-11.8l-1.2-9.6c-.9-7.4 4.4-14.1 11.8-15 7.4-.9 14.1 4.4 15 11.8l1.2 9.6c.9 7.4-4.4 14.1-11.8 15z"/><path class="st8" d="M176.8 212.2c-7.4.9-14.1-4.4-15-11.8l-1.2-9.6c-.9-7.4 4.4-14.1 11.8-15 7.4-.9 14.1 4.4 15 11.8l1.2 9.6c.9 7.4-4.4 14.1-11.8 15z"/><path class="st8" d="M203.6 209c-7.4.9-14.1-4.4-15-11.8l-1.2-9.6c-.9-7.4 4.4-14.1 11.8-15 7.4-.9 14.1 4.4 15 11.8l1.2 9.6c.9 7.3-4.4 14.1-11.8 15z"/><g><path class="st13" d="M85.7 158.9c-10 0-18.5-7.5-19.7-17.5-.6-5.3.8-10.5 4.1-14.6 3.3-4.2 8-6.8 13.2-7.5.8-.1 1.6-.1 2.4-.1 10 0 18.5 7.5 19.7 17.5.6 5.3-.8 10.5-4.1 14.6-3.3 4.2-8 6.8-13.2 7.5-.8.1-1.6.1-2.4.1z"/><path class="st1" d="M85.8 123c8 0 14.9 6 15.8 14.1 1.1 8.8-5.2 16.7-14 17.8-.6.1-1.3.1-1.9.1-8 0-14.9-6-15.8-14.1-1.1-8.8 5.2-16.7 14-17.8.6 0 1.2 0 1.9-.1m0-7.7c-1 0-1.9.1-2.9.2-6.3.8-11.9 3.9-15.8 8.9-3.9 5-5.7 11.2-4.9 17.5 1.4 11.9 11.6 20.9 23.6 20.9.9 0 1.9-.1 2.9-.2 6.3-.8 11.9-3.9 15.8-8.9 3.9-5 5.7-11.2 4.9-17.5-1.5-11.9-11.7-20.9-23.6-20.9z"/></g><g><path class="st13" d="M182.6 147.2c-10 0-18.5-7.5-19.7-17.5-.6-5.3.8-10.5 4.1-14.6 3.3-4.2 8-6.8 13.2-7.5.8-.1 1.6-.1 2.4-.1 10 0 18.5 7.5 19.7 17.5.6 5.3-.8 10.5-4.1 14.6-3.3 4.2-8 6.8-13.2 7.5-.8.1-1.7.1-2.4.1z"/><path class="st1" d="M182.6 111.4c8 0 14.9 6 15.8 14.1 1.1 8.8-5.2 16.7-14 17.8-.6.1-1.3.1-1.9.1-8 0-14.9-6-15.8-14.1-1.1-8.8 5.2-16.7 14-17.8.6-.1 1.3-.1 1.9-.1m0-7.8c-1 0-1.9.1-2.9.2-6.3.8-11.9 3.9-15.8 8.9-3.9 5-5.7 11.2-4.9 17.5 1.4 11.9 11.6 20.9 23.6 20.9.9 0 1.9-.1 2.9-.2 6.3-.8 11.9-3.9 15.8-8.9 3.9-5 5.7-11.2 4.9-17.5-1.5-11.9-11.6-20.9-23.6-20.9z"/></g><path class="st14" d="M181.7 120l1.8 14.7M84.8 131.7l1.8 14.7"/><circle class="st15" cx="148.1" cy="71.6" r="7.4"/><g><path class="st16" d="M135.8 159.8c-9.4 1.1-18.6-1.3-26.3-6.9-3.9-2.9-4.8-8.4-1.9-12.3 2.9-3.9 8.4-4.8 12.3-1.9 8.7 6.3 20.9 4.5 27.2-4.2 2.9-3.9 8.4-4.8 12.3-1.9 3.9 2.9 4.8 8.4 1.9 12.3-5.8 8-14.4 13.2-24.2 14.7-.5.1-.9.2-1.3.2z"/></g><g><path class="st17" d="M135.1 154c-7.6.9-15.5-.9-22.1-5.8-1.3-1-1.6-2.8-.6-4.1 1-1.3 2.8-1.6 4.1-.6 11.3 8.2 27.2 5.8 35.4-5.5 1-1.3 2.8-1.6 4.1-.6 1.3 1 1.6 2.8.6 4.1-5.3 7.2-13.2 11.5-21.5 12.5z"/></g><g><path class="st15" d="M91.9 111.9c-3.3.4-6.2-1.9-6.6-5.2-2.3-18.8 11.1-35.9 29.8-38.1 3.3-.4 6.2 1.9 6.6 5.2.4 3.3-1.9 6.2-5.2 6.6C104.3 81.9 95.6 93 97 105.2c.5 3.3-1.9 6.3-5.1 6.7z"/></g></svg>