<svg width="109" height="109" viewBox="0 0 109 109" xmlns="http://www.w3.org/2000/svg" xmlns:xlink="http://www.w3.org/1999/xlink"><title>Group 2</title><defs><filter x="-50%" y="-50%" width="200%" height="200%" filterUnits="objectBoundingBox" id="a"><feOffset dy="2" in="SourceAlpha" result="shadowOffsetOuter1"/><feGaussianBlur stdDeviation="2" in="shadowOffsetOuter1" result="shadowBlurOuter1"/><feColorMatrix values="0 0 0 0 0 0 0 0 0 0 0 0 0 0 0 0 0 0 0.35 0" in="shadowBlurOuter1" result="shadowMatrixOuter1"/><feMerge><feMergeNode in="shadowMatrixOuter1"/><feMergeNode in="SourceGraphic"/></feMerge></filter><path id="b" d="M23 74.636h52.678V22H23v52.636z"/></defs><g transform="translate(6 4)" fill="none" fill-rule="evenodd"><circle cx="48.5" cy="48.5" r="48.5" filter="url(#a)" stroke="#FFF" stroke-width="3" fill="#0097E8"/><mask id="c" fill="#fff"><use xlink:href="#b"/></mask><path d="M74.758 36.24L61.336 22.92a3.19 3.19 0 0 0-4.486 0 3.132 3.132 0 0 0 0 4.437l7.842 7.783H42.748C31.838 35.14 23 43.98 23 54.882c0 10.907 8.838 19.754 19.748 19.754a3.29 3.29 0 0 0 3.29-3.294 3.288 3.288 0 0 0-3.29-3.29c-7.27 0-13.167-5.897-13.167-13.167S35.48 41.72 42.75 41.72h22.007l-7.907 7.84a3.14 3.14 0 0 0 0 4.443 3.196 3.196 0 0 0 4.486 0l13.42-13.324a3.132 3.132 0 0 0 .004-4.44" fill="#FFF" mask="url(#c)"/></g></svg>