<svg width="109" height="109" viewBox="0 0 109 109" xmlns="http://www.w3.org/2000/svg" xmlns:xlink="http://www.w3.org/1999/xlink"><title>Group 3</title><defs><filter x="-50%" y="-50%" width="200%" height="200%" filterUnits="objectBoundingBox" id="a"><feOffset dy="2" in="SourceAlpha" result="shadowOffsetOuter1"/><feGaussianBlur stdDeviation="2" in="shadowOffsetOuter1" result="shadowBlurOuter1"/><feColorMatrix values="0 0 0 0 0 0 0 0 0 0 0 0 0 0 0 0 0 0 0.35 0" in="shadowBlurOuter1" result="shadowMatrixOuter1"/><feMerge><feMergeNode in="shadowMatrixOuter1"/><feMergeNode in="SourceGraphic"/></feMerge></filter><path id="b" d="M0 52.636h52.678V0H0v52.636z"/></defs><g fill="none" fill-rule="evenodd"><circle cx="48.5" cy="48.5" r="48.5" filter="url(#a)" stroke-width="3" stroke="#FFF" fill="#0097E8" transform="translate(6 4)"/><g transform="translate(29 26)"><mask id="c" fill="#fff"><use xlink:href="#b"/></mask><path d="M51.758 14.24L38.336.92a3.19 3.19 0 0 0-4.486 0 3.132 3.132 0 0 0 0 4.437l7.842 7.783H19.748C8.838 13.14 0 21.98 0 32.882 0 43.79 8.838 52.636 19.748 52.636a3.29 3.29 0 0 0 3.29-3.294 3.288 3.288 0 0 0-3.29-3.29c-7.27 0-13.167-5.897-13.167-13.167S12.48 19.72 19.75 19.72h22.007l-7.907 7.84a3.14 3.14 0 0 0 0 4.443 3.196 3.196 0 0 0 4.486 0l13.42-13.324a3.132 3.132 0 0 0 .004-4.44" fill="#FFF" mask="url(#c)"/></g></g></svg>