<?xml version="1.0" encoding="utf-8"?>
<!-- Generator: Adobe Illustrator 19.1.0, SVG Export Plug-In . SVG Version: 6.00 Build 0)  -->
<svg version="1.1" id="Capa_1" xmlns="http://www.w3.org/2000/svg" xmlns:xlink="http://www.w3.org/1999/xlink" x="0px" y="0px"
	 viewBox="0 0 55 55" style="enable-background:new 0 0 55 55;" xml:space="preserve">
<style type="text/css">
	.st0{fill:#FFFFFF;}
</style>
<path class="st0" d="M2.5,30.1L19.4,47c1.5,1.5,3.8,1.5,5.3,0c1.5-1.5,1.5-3.8,0-5.3L14.1,31.2h35.7c2.1,0,3.7-1.7,3.7-3.7
	c0-2.1-1.7-3.7-3.7-3.7l-35.7,0l10.5-10.5c1.5-1.5,1.5-3.8,0-5.3C23.9,7.3,23,6.9,22,6.9c-1,0-1.9,0.4-2.6,1.1L2.5,24.9
	C1.1,26.3,1.1,28.7,2.5,30.1"/>
</svg>
