<svg width="348" height="135" viewBox="0 0 348 135" xmlns="http://www.w3.org/2000/svg" xmlns:xlink="http://www.w3.org/1999/xlink"><title>Group</title><defs><filter x="-50%" y="-50%" width="200%" height="200%" filterUnits="objectBoundingBox" id="a"><feOffset dy="3" in="SourceAlpha" result="shadowOffsetOuter1"/><feGaussianBlur stdDeviation="2" in="shadowOffsetOuter1" result="shadowBlurOuter1"/><feColorMatrix values="0 0 0 0 0 0 0 0 0 0 0 0 0 0 0 0 0 0 0.35 0" in="shadowBlurOuter1" result="shadowMatrixOuter1"/><feMerge><feMergeNode in="shadowMatrixOuter1"/><feMergeNode in="SourceGraphic"/></feMerge></filter><path id="b" d="M127.152.847H0V128h127.152V.847z"/></defs><g fill="none" fill-rule="evenodd"><g filter="url(#a)" transform="translate(4 .153)"><path d="M329.66 18.26H106.512C95.27 8.26 80.168 1.417 63.576 1.417 28.932 1.417.746 29.69.746 64.334c0 34.644 28.186 62.89 62.83 62.89 16.593 0 31.695-5.964 42.938-16.964H329.66c5.384 0 9.926-4.746 9.926-10.128v-72.09c0-5.384-4.542-9.782-9.926-9.782" fill="#FFF"/><path d="M336.586 97.26c0 5.523-4.477 10-10 10h-256c-5.523 0-10-4.477-10-10v-67c0-5.523 4.477-10 10-10h256c5.523 0 10 4.477 10 10v67z" fill="#0098EC"/><path d="M63.576 126.5C29.346 126.5 1.5 98.652 1.5 64.423c0-34.23 27.847-62.076 62.076-62.076 34.23 0 62.076 27.847 62.076 62.076 0 34.23-27.847 62.077-62.076 62.077" fill="#0098EC"/><mask id="c" fill="#fff"><use xlink:href="#b"/></mask><path d="M63.576.847C28.52.847 0 29.367 0 64.423 0 99.48 28.52 128 63.576 128s63.576-28.52 63.576-63.577c0-35.056-28.52-63.576-63.576-63.576m0 3c33.455 0 60.576 27.12 60.576 60.576S97.032 125 63.576 125 3 97.88 3 64.423C3 30.967 30.12 3.847 63.576 3.847" fill="#FFF" mask="url(#c)"/><path d="M92.033 71.11c-.01 0-.018.003-.027.003.01 0 .016-.003.027-.003m.1-.017v.002c-.028.004-.053.008-.08.01a.758.758 0 0 0 .08-.012m7.076 2.88c-.712-1.89-2.417-2.714-4.8-2.714h-.01c2.38 0 4.09.834 4.8 2.725.302.81.43 1.59.393 2.522.032-.914-.096-1.865-.394-2.663-.71-1.887-2.79-2.956-5.17-2.958-.76.002-1.444.076-2.444.205 1-.14 2.053.17 2.814.17h-.005c-.753 0-1.268-.06-2.227.077.634-7.434-4.967-11.544-5.22-11.722.253.178 5.823 4.102 5.185 11.536-.028.006-.053-.02-.08-.02.643-7.44-4.936-11.45-5.19-11.628-.434-.307-9.277-7.882-23.277-7.882v.64h-1.198c-12.042 0-22.232 1.52-22.336 1.538l-.464-.046-.252.33c-.243.386-5.606 8.943-4.89 16.826-.625-.104-1.38-.205-2.17-.205-3.54 0-4.912 1.666-5.438 3.07-.802 2.135-.37 4.967 1.075 7.054 1.15 1.66 2.75 2.614 4.526 2.714.314.917 1.61 3.75 5.313 6.87 3.88 3.266 11.302 6.85 24.635 6.85h1.27c13.33 0 20.754-3.585 24.634-6.854 3.562-3.002 4.895-5.872 5.275-6.915 1.78-.095 3.386-.977 4.544-2.65.74-1.065 1.214-2.174 1.4-3.425.19-1.25.1-2.367-.3-3.443" fill="#FFE1CF"/><path d="M84.033 72.287a6.707 6.707 0 0 0-6.708-6.708 6.708 6.708 0 1 0 0 13.415 6.708 6.708 0 0 0 6.708-6.708M56.203 72.43a6.708 6.708 0 1 0-13.416-.002 6.708 6.708 0 0 0 13.416.002" fill="#FFADA1"/><path d="M39.392 66.91s6.335-7.518 6.024-10.127c0 0 11.122 6.027 21.643 5.84 0 0 .41-.765-1.226-2.235-1.843-1.66-3.46-5.592-3.17-6.877 0 0 2.686 1.97 8.45 5.717 1.232.802 10.642 6.222 13.626 5.176 0 0 0-.62-1.203-2.69-1.2-2.07-.785-1.943-.785-1.943s4.28 1.67 6.79 6.124l2.735-.745-8.325-7.66s-13.13-11.708-41.27-5.556l-3.29 14.976z" fill="#FFADA1"/><path d="M84.166 71.72a6.765 6.765 0 0 1-13.53 0 6.765 6.765 0 1 1 13.53 0M56.336 72.162a6.767 6.767 0 1 1-13.533.003 6.767 6.767 0 0 1 13.533-.003M56.212 83.537s7.903 3.107 15.604 0l.25-1.863s-9.884 2.07-15.73 0l-.124 1.863z" fill="#FFF"/><path d="M56.586 82.316s6 2.463 16 .02v-.704s-8 1.822-16 .04v.644z" fill="#E7E7E7"/><path d="M56.41 83.83l.58 4.22 1.284 2.196 2.693 1.16 3.6.495 4.808-1.075 1.572-1.987.953-4.432.165-.99s-6.17 2.736-15.655.413" fill="#F00"/><path d="M57.213 88.433s6.56-3.99 13.873-.24c0 0-.128 2.278-2.764 2.87-2.635.59-5.574 1.71-10.047-.817l-1.062-1.813z" fill="#B40000"/><path d="M57.213 88.433s6.56-3.99 13.873-.24c0 0-.128 2.278-2.764 2.87-2.635.59-5.574 1.71-10.047-.817l-1.062-1.813z" stroke="#780000" stroke-width="2"/><path d="M34.887 81.942l-.715 3.322-1.52-2.36 2.235-.962zM91.043 81.974l.714 3.323 1.522-2.36-2.237-.963zM91.79 74.55s5.71-.87 4.782 4.32c0 0 2.112-4.475-1.554-4.786-3.165-.268-3.23.465-3.23.465M34.56 74.55s-5.71-.87-4.784 4.32c0 0-2.11-4.475 1.555-4.786 3.17-.268 3.23.465 3.23.465" fill="#FFADA1"/><path d="M93.278 82.622c-.67 0-1.39-.152-2.145-.492l1.527.6s-3.817 13.53-29.002 13.53h-1.27c-25.185 0-29.002-13.523-29.002-13.523l1.527-.862c-.765.344-1.488.57-2.164.57-3.88 0-6.14-5.03-4.912-8.304.716-1.904 2.66-2.365 4.437-2.365 1.812 0 3.45.508 3.45.508-1.632-7.943 4.515-17.45 4.515-17.45S50.3 53.26 62.388 53.26h1.346c12.088 0 22.634 7.356 22.634 7.356s6.153 4.178 4.522 12.124c0 0 1.717-.72 3.53-.72 1.537.003 3.13.454 3.79 2.217 1.23 3.276-1.038 8.385-4.932 8.385m5.93-8.802c-.71-1.89-2.415-2.926-4.798-2.928-.805 0-1.59.12-2.244.26.65-7.452-5.01-11.448-5.266-11.626-.43-.307-9.314-7.76-23.314-7.76v.494h-1.198c-12.042 0-22.232 1.543-22.336 1.558l-.464-.038-.252.338c-.243.385-5.606 8.942-4.89 16.827-.625-.103-1.38-.205-2.17-.205-3.54 0-4.912 1.666-5.438 3.072-.802 2.133-.37 4.967 1.075 7.053 1.15 1.66 2.75 2.615 4.526 2.717.314.916 1.61 3.73 5.313 6.847 3.88 3.265 11.302 6.83 24.635 6.83h1.27c13.33 0 20.754-3.565 24.634-6.834 3.562-3.004 4.895-5.865 5.275-6.908 1.78-.093 3.386-.97 4.544-2.643 1.463-2.11 1.902-4.902 1.1-7.055" fill="#4E2223"/><path d="M104.162 55.545c-.03-.143-3.162-14.14-20.207-20.512a.03.03 0 0 1-.01-.002c-7.62-3.387-16.904-4.912-21.068-4.912-.057 0-.11.02-.153.048-4.006.167-11.937 1.23-19.427 4.428-9.56 4.085-15.15 10.287-16.168 17.94-1.776 13.304.982 20.378 1.01 20.448a.268.268 0 0 0 .416.11c.007-.007.882-.68 3.042-.68 1.045 0 2.227.157 3.508.466a.27.27 0 0 0 .276-.098c.393-.508 9.36-12.158 9.472-17.643 1.736 1.117 8.566 5.006 21.6 6.52a.233.233 0 0 0 .037.004c.152-.006.274-.112.274-.26a.25.25 0 0 0-.123-.216c-.428-.464-4.386-4.78-3.373-7.138.05-.115.14-.2.434-.2 1.047 0 3.358 1.385 6.035 3.068 4.493 2.83 10.09 6.346 14.57 6.346h.01c.148 0 .268-.117.268-.266 0-.087-.042-.23-.106-.28-.272-.35-2.034-2.674-1.316-4.186 1.38.927 8.52 6.144 7.447 14.052-.012.09.02.185.085.244.066.058.16.087.243.065.018-.005 1.83-.456 3.655-.456 1.21 0 2.787.208 3.414 1.193a.268.268 0 0 0 .258.122c.1-.013.188-.082.22-.178l.21-.623c.014-.06 1.42-5.696 1.33-14.098.52.845.995 1.707 1.416 2.566a.268.268 0 0 0 .51-.105c.007-.183.167-4.482-2.22-8.196a.485.485 0 0 0-.007-.055c1.065.356 2.91 1.16 3.96 2.688a.26.26 0 0 0 .324.094.267.267 0 0 0 .158-.3" fill="#4E2223"/><path d="M77.4 66.143a5.98 5.98 0 0 0-5.973 5.974A5.978 5.978 0 0 0 77.4 78.09a5.98 5.98 0 0 0 5.973-5.973 5.98 5.98 0 0 0-5.974-5.974m0 12.738a6.77 6.77 0 0 1-6.765-6.763c0-3.73 3.034-6.767 6.764-6.767a6.776 6.776 0 0 1 6.766 6.767c0 3.73-3.037 6.764-6.767 6.764" fill="#4E2223"/><path d="M73.827 72.116A3.574 3.574 0 1 1 77.4 75.69a3.572 3.572 0 0 1-3.573-3.574" fill="#4E2223"/><path d="M76.39 69.534a1.34 1.34 0 1 0 2.682 0 1.34 1.34 0 0 0-2.68 0" fill="#FFF"/><path d="M49.448 66.142a5.982 5.982 0 0 0-5.975 5.975 5.98 5.98 0 0 0 5.975 5.973 5.98 5.98 0 0 0 5.97-5.973 5.98 5.98 0 0 0-5.97-5.975m0 12.74c-3.73 0-6.766-3.036-6.766-6.765a6.774 6.774 0 0 1 6.766-6.767c3.73 0 6.764 3.035 6.764 6.767a6.773 6.773 0 0 1-6.764 6.764" fill="#4E2223"/><path d="M53.02 72.116a3.573 3.573 0 0 0-7.146 0 3.573 3.573 0 0 0 7.146 0" fill="#4E2223"/><path d="M50.46 69.534a1.342 1.342 0 1 1-2.685-.002 1.342 1.342 0 0 1 2.684.002" fill="#FFF"/><path d="M58.525 89.838c.217.16 2.245 1.59 5.353 1.59l.66.023c3.102 0 5.128-1.405 5.35-1.566 1.617-1.7 1.8-6.093 1.82-7.595-2.45.49-4.992.97-7.565.97h-.002c-3.655 0-6.365-.725-7.433-.957.016 1.506.208 5.844 1.818 7.535m6.008 2.422H63.587v-.278c-3 0-5.618-1.584-5.71-1.656-.01-.01.044.037.03.026-2.183-2.247-2.032-8.547-2.028-8.816.002-.122.078-.22.174-.292.098-.074.383.533.5.565.032.008 2.942 1.45 7.894 1.45h-.003c2.122 0 5.186-.9 7.725-1.45.115-.023.16-.306.25-.234.093.074.11.028.114.147.007.27.1 6.566-2.082 8.812-.012.014-.036-.006-.05.006-.092.073-2.307 1.72-5.87 1.72" fill="#4E2223"/><path d="M56.586 83.314c0 .313 3.7 1.946 7.498 1.946h-.053c2.577 0 5.135-.856 7.662-1.717l.015-1.27c-1.19.234-4.442.683-8.136.683-2.54 0-3.984-.258-6.984-.764v1.123zm7.393 1.946h-.003c-4.7 0-7.71-1.41-7.836-1.47a.416.416 0 0 1-.228-.37l.002-1.838c0-.125.06-.244.155-.32.098-.073.225-.1.344-.067 2.104.573 4.527.864 7.21.864 4.58-.002 8.35-.862 8.387-.87a.408.408 0 0 1 .34.078.39.39 0 0 1 .146.314l-.045 1.838c-.004.165-.108.334-.264.388-2.694.947-5.455 1.45-8.207 1.45v.002zM96.488 79.097a.267.267 0 0 1-.24-.383c.816-1.682.94-2.892.363-3.597-1.144-1.403-4.698-.513-4.732-.503a.27.27 0 0 1-.327-.193.273.273 0 0 1 .194-.327c.16-.038 3.918-.98 5.28.685.72.88.62 2.28-.295 4.17a.266.266 0 0 1-.242.15M30.01 79.097a.266.266 0 0 1-.24-.15c-.912-1.888-1.012-3.29-.295-4.17 1.362-1.664 5.12-.722 5.28-.684a.268.268 0 0 1-.133.52c-.037-.01-3.588-.9-4.733.503-.576.705-.453 1.915.362 3.598a.27.27 0 0 1-.123.357.285.285 0 0 1-.12.027M66.968 78.613l.005-.006c-1.717-2.14-4.783-1.66-6.23.045a.34.34 0 0 0-.103.243c0 .187.153.398.343.398.09 0 .168-.034.23-.034 1.732-2 3.46-1.85 5.21-.103l.016-.015c.01.01.017.004.027.013 0-.002.002-.01.005-.01a.365.365 0 0 0 .218.073.37.37 0 0 0 .37-.37.353.353 0 0 0-.092-.235" fill="#4E2223"/></g><text font-family="Montserrat-Bold, Montserrat" font-size="31.599" font-weight="bold" fill="#FFF" transform="translate(4)"><tspan x="147.617" y="76.191">KID </tspan> <tspan x="213.059" y="76.191" letter-spacing="-.253">S</tspan> <tspan x="232.714" y="76.191">AM</tspan></text></g></svg>