<svg width="186" height="196" viewBox="0 0 186 196" xmlns="http://www.w3.org/2000/svg" xmlns:xlink="http://www.w3.org/1999/xlink"><title>Group 3</title><defs><filter x="-50%" y="-50%" width="200%" height="200%" filterUnits="objectBoundingBox" id="a"><feOffset dy="2" in="SourceAlpha" result="shadowOffsetOuter1"/><feGaussianBlur stdDeviation="2" in="shadowOffsetOuter1" result="shadowBlurOuter1"/><feColorMatrix values="0 0 0 0 0 0 0 0 0 0 0 0 0 0 0 0 0 0 0.35 0" in="shadowBlurOuter1" result="shadowMatrixOuter1"/><feMerge><feMergeNode in="shadowMatrixOuter1"/><feMergeNode in="SourceGraphic"/></feMerge></filter><path id="b" d="M178 .077H0v188.036h178V.077v188.036H0V.077h178z"/></defs><g fill="none" fill-rule="evenodd"><path d="M14.17 187.148c-5.91 0-12.4-6.5-12.4-12.422V133.02c0-5.824 6.238-8.872 12.4-8.872h20.676c-11.014-13.664-17.038-30.404-17.038-47.55 0-40.768 32.805-73.936 73.128-73.936 40.322 0 73.127 33.068 73.127 73.715 0 17.28-6.025 34.098-17.04 47.77h20.35c5.877 0 8.856 2.986 8.856 8.874v41.706c0 6.173-3.043 12.422-8.857 12.422H14.17z" stroke="#FFF" stroke-width="5" fill="#0098EC" filter="url(#a)" transform="translate(4 1)"/><g transform="translate(4 1.81)"><mask id="c" fill="#fff"><use xlink:href="#b"/></mask><path d="M90.935.077c-19.975 0-38.79 7.93-52.977 22.33-14.136 14.345-21.92 33.304-21.92 53.382 0 16.36 5.353 32.356 15.205 45.773H14.17c-3.27 0-6.43.772-8.896 2.173C1.874 125.67 0 128.68 0 132.21v41.705c0 6.9 7.283 14.198 14.17 14.198h153.203c3.526 0 6.53-1.877 8.458-5.285 1.4-2.472 2.17-5.637 2.17-8.913V132.21c0-6.865-3.774-10.647-10.627-10.647h-16.75c9.855-13.435 15.21-29.51 15.21-45.996 0-41.625-33.6-75.49-74.898-75.49m0 3.55c39.408 0 71.356 32.452 71.356 71.94 0 18.8-7.25 36.236-19.092 49.546h24.175c4.892 0 7.084 2.197 7.084 7.098v41.705c0 4.902-2.192 10.648-7.084 10.648H14.17c-4.892 0-10.628-5.746-10.628-10.648V132.21c0-4.9 5.736-7.097 10.627-7.097h24.5C26.833 111.803 19.58 94.59 19.58 75.79c0-39.49 31.946-72.164 71.355-72.164" fill="#FFF" mask="url(#c)"/></g><text font-family="Montserrat-Bold, Montserrat" font-size="27.983" font-weight="bold" fill="#FFF" transform="translate(4 1)"><tspan x="28.387" y="163.374">KID </tspan> <tspan x="86.34" y="163.374" letter-spacing="-.253">S</tspan> <tspan x="103.717" y="163.374">AM</tspan></text><path d="M125.535 84.383c-.013 0-.02.004-.032.004.012 0 .02-.004.032-.004m.118-.02v.004l-.095.01c.03-.003.063-.007.095-.013m8.334 3.283c-.837-2.23-2.845-3.316-5.652-3.316h-.01c2.802 0 4.816 1.1 5.652 3.332.356.955.506 1.934.464 3.035.04-1.08-.112-2.173-.463-3.115-.836-2.228-3.57-3.475-6.376-3.477-.89.002-1.39.103-3.162.256 1.77-.166 2.99-.03 3.886-.03h-.01c-.883 0-1.49.043-2.62.206.747-8.773-5.85-13.568-6.15-13.778.3.21 6.86 4.87 6.11 13.646-.033.004-.065-.012-.096-.01.758-8.784-5.99-13.507-6.29-13.72-.51-.36-10.77-9.296-27.596-9.296v.77h-1.057c-14.185 0-26.19 1.79-26.31 1.81l-.548-.06-.297.39c-.285.454-6.603 10.554-5.76 19.857-.735-.12-1.625-.242-2.556-.242-4.17 0-5.787 1.966-6.406 3.623-.944 2.52-.433 5.862 1.267 8.326 1.356 1.96 3.238 3.085 5.332 3.203.37 1.08 1.896 4.497 6.26 8.18 4.57 3.853 13.313 8.152 29.018 8.152h1.496c15.704 0 24.447-4.3 29.018-8.16 4.197-3.542 5.768-6.965 6.215-8.196 2.097-.11 3.987-1.17 5.352-3.143.87-1.26 1.43-2.634 1.647-4.11.227-1.476.12-2.86-.355-4.13" fill="#FFE1CF"/><path d="M116.013 85.77c0-4.373-3.54-7.915-7.903-7.915-4.366 0-7.903 3.542-7.903 7.916 0 4.374 3.537 7.92 7.903 7.92 4.364 0 7.903-3.546 7.903-7.92M83.23 85.94c0-4.374-3.538-7.92-7.904-7.92-4.362 0-7.9 3.546-7.9 7.92 0 4.372 3.538 7.918 7.9 7.918 4.366 0 7.903-3.546 7.903-7.918" fill="#FFADA1"/><path d="M63.525 79.426s7.464-8.872 7.097-11.953c0 0 13.1 7.114 25.495 6.892 0 0 .484-.902-1.443-2.638-2.172-1.957-4.075-6.6-3.733-8.116 0 0 3.163 2.325 9.952 6.747 1.452.947 12.537 7.345 16.05 6.11 0 0 0-.732-1.415-3.175-1.415-2.444-.925-2.293-.925-2.293s5.04 1.97 8 7.227l3.22-.88-9.808-9.04s-15.466-13.818-48.61-6.557l-3.88 17.676z" fill="#FFADA1"/><path d="M116.27 85.103c0 4.41-3.57 7.984-7.973 7.984-4.4 0-7.967-3.575-7.967-7.984 0-4.41 3.567-7.986 7.967-7.986 4.402 0 7.972 3.575 7.972 7.986M83.485 85.624c0 4.413-3.568 7.988-7.968 7.988-4.402 0-7.97-3.575-7.97-7.988 0-4.407 3.568-7.982 7.97-7.982 4.4 0 7.968 3.575 7.968 7.982M83.34 99.05s9.31 3.667 18.38 0l.295-2.2s-11.644 2.444-18.53 0l-.145 2.2z" fill="#FFF"/><path d="M83.7 97.608s7.086 2.908 18.6.024v-.83s-9.743 2.15-18.6.048v.758z" fill="#E7E7E7"/><path d="M83.574 99.395l.683 4.982 1.513 2.59 3.17 1.37 4.244.585 5.66-1.27 1.853-2.346 1.123-5.23.195-1.17s-7.268 3.23-18.44.49" fill="#F00"/><path d="M84.52 104.828s7.725-4.71 16.34-.282c0 0-.15 2.688-3.256 3.385-3.104.698-6.566 2.02-11.835-.962l-1.25-2.14z" fill="#B40000"/><path d="M84.52 104.828s7.725-4.71 16.34-.282c0 0-.15 2.688-3.256 3.385-3.104.698-6.566 2.02-11.835-.962l-1.25-2.14z" stroke="#780000" stroke-width="2"/><path d="M58.22 97.168l-.842 3.92-1.794-2.785 2.636-1.135zM124.268 97.204l.84 3.923 1.795-2.784-2.635-1.14zM125.247 88.442s6.727-1.025 5.635 5.1c0 0 2.49-5.283-1.83-5.65-3.73-.317-3.805.55-3.805.55M57.835 88.442s-6.726-1.025-5.635 5.1c0 0-2.486-5.283 1.83-5.65 3.732-.317 3.805.55 3.805.55" fill="#FFADA1"/><path d="M127.002 97.97c-.79 0-1.637-.18-2.527-.58l1.8.926S121.778 114.5 92.11 114.5h-1.495c-29.667 0-34.162-16.178-34.162-16.178l1.797-1.125c-.9.405-1.75.617-2.55.617-4.568 0-7.23-5.963-5.784-9.827.844-2.247 3.133-2.805 5.228-2.805 2.134 0 4.064.593 4.064.593-1.924-9.376 5.317-20.74 5.317-20.74s11.853-2 26.09-2H92.2c14.24 0 26.663 8.822 26.663 8.822s7.247 5 5.326 14.38c0 0 2.02-.813 4.157-.813 1.81.002 3.688.55 4.464 2.632 1.45 3.866-1.222 9.914-5.808 9.914m6.985-10.388c-.837-2.232-2.845-3.454-5.652-3.456-.948 0-1.873.142-2.643.306.767-8.796-6.077-13.51-6.38-13.72-.508-.365-10.814-9.158-27.64-9.158v.594h-1.057c-14.184 0-26.188 1.815-26.31 1.832l-.548-.047-.297.396c-.285.454-6.602 10.553-5.76 19.86-.735-.123-1.624-.244-2.556-.244-4.17 0-5.786 1.967-6.405 3.626-.945 2.518-.435 5.863 1.265 8.325 1.356 1.958 3.238 3.087 5.332 3.207.37 1.08 1.896 4.47 6.26 8.15 4.57 3.856 13.313 8.134 29.018 8.134h1.496c15.704 0 24.448-4.278 29.018-8.137 4.198-3.544 5.768-6.956 6.215-8.186 2.097-.11 3.988-1.163 5.352-3.14 1.722-2.488 2.24-5.803 1.292-8.342" fill="#4E2223"/><path d="M139.823 66.01c-.037-.167-3.726-16.687-23.803-24.208l-.013-.005C107.034 37.8 96.097 36 91.19 36a.32.32 0 0 0-.18.057c-4.72.198-14.06 1.452-22.884 5.226-11.26 4.82-17.844 12.14-19.045 21.176-2.09 15.7 1.16 24.05 1.19 24.133a.318.318 0 0 0 .493.128c.008-.006 1.038-.8 3.582-.8 1.232 0 2.625.185 4.134.55.12.03.247-.018.323-.116.463-.6 11.027-14.35 11.158-20.825 2.046 1.318 10.09 5.908 25.446 7.696.013.002.03.004.042.004.178-.008.32-.134.32-.31 0-.11-.056-.2-.144-.253-.505-.548-5.167-5.64-3.973-8.425.058-.135.164-.236.51-.236 1.233 0 3.956 1.806 7.11 3.793 5.293 3.337 11.884 7.658 17.16 7.658h.01c.178 0 .32-.308.32-.483 0-.104-.05-.358-.125-.418-.32-.41-2.397-3.198-1.55-4.98 1.624 1.092 10.034 7.228 8.77 16.562a.307.307 0 0 0 .1.276.318.318 0 0 0 .287.07c.02-.004 2.156-.538 4.306-.538 1.425 0 3.283.244 4.02 1.408.058.09.158.146.265.146.012 0 .026-.003.04-.004a.315.315 0 0 0 .26-.21l.247-.735c.015-.07 1.67-6.722 1.565-16.64a36.127 36.127 0 0 1 1.67 3.03c.06.13.207.2.348.17.14-.03.245-.15.25-.293.01-.216.198-5.29-2.61-9.674a.38.38 0 0 0-.012-.065c1.255.422 3.427 1.37 4.665 3.173a.315.315 0 0 0 .568-.242" fill="#4E2223"/><path d="M108.297 78.52c-3.88 0-7.034 3.163-7.034 7.05 0 3.888 3.154 7.05 7.034 7.05s7.037-3.162 7.037-7.05c0-3.887-3.156-7.05-7.037-7.05m0 15.034c-4.393 0-7.967-3.58-7.967-7.984s3.574-7.987 7.967-7.987c4.395 0 7.972 3.583 7.972 7.987 0 4.403-3.578 7.984-7.973 7.984" fill="#4E2223"/><path d="M104.09 85.57a4.213 4.213 0 0 1 4.207-4.22c2.328 0 4.21 1.89 4.21 4.22a4.213 4.213 0 0 1-4.21 4.218 4.212 4.212 0 0 1-4.207-4.218" fill="#4E2223"/><path d="M107.11 82.523c0 .874.706 1.583 1.578 1.583a1.58 1.58 0 1 0-1.58-1.583" fill="#FFF"/><path d="M75.372 78.52c-3.88 0-7.037 3.163-7.037 7.05s3.156 7.05 7.037 7.05c3.88 0 7.034-3.163 7.034-7.05s-3.155-7.05-7.034-7.05m0 15.034c-4.396 0-7.97-3.582-7.97-7.984 0-4.404 3.574-7.987 7.97-7.987 4.393 0 7.968 3.583 7.968 7.987 0 4.402-3.575 7.984-7.968 7.984" fill="#4E2223"/><path d="M79.582 85.57a4.215 4.215 0 0 0-4.21-4.22 4.213 4.213 0 0 0-4.21 4.22 4.212 4.212 0 0 0 4.21 4.218 4.213 4.213 0 0 0 4.21-4.218" fill="#4E2223"/><path d="M76.563 82.523a1.58 1.58 0 0 1-3.16 0 1.58 1.58 0 1 1 3.16 0" fill="#FFF"/><path d="M86.064 106.487c.256.19 2.645 1.877 6.305 1.877l.78.027c3.652 0 6.037-1.66 6.3-1.85 1.904-2.006 2.12-7.287 2.14-9.06-2.883.58-5.877 1.048-8.907 1.048h-.003c-4.307 0-7.5-.757-8.757-1.032.02 1.778.244 6.994 2.14 8.99m7.08 2.69h-1.47v-.16c-3.544 0-6.44-1.87-6.55-1.953-.012-.013.142.044.126.03-2.572-2.652-2.352-10.088-2.347-10.405.003-.144.116-.26.23-.344.113-.087.46.532.6.57.036.01 3.475 1.614 9.31 1.614h-.005c2.5 0 6.11-.965 9.1-1.613.135-.027.186-.314.295-.228.11.087.13.057.134.197.008.32.12 7.762-2.453 10.414-.013.016-.044-.086-.06-.07-.107.084-2.716 1.948-6.912 1.948" fill="#4E2223"/><path d="M83.7 98.788c0 .368 4.44 2.402 8.913 2.402h-.063c3.034 0 6.047-1.062 9.024-2.08l.017-1.524c-1.4.276-5.27.792-9.62.792-2.996 0-4.726-.32-8.27-.916v1.326zm8.788 2.402h-.002c-5.536 0-9.08-1.716-9.23-1.787-.162-.076-.27-.283-.27-.462l.003-2.184a.473.473 0 0 1 .59-.467c2.475.676 5.33 1.018 8.49 1.018 5.394 0 9.838-1.016 9.88-1.027a.48.48 0 0 1 .4.092c.113.09.176.23.172.37l-.054 2.17c-.005.195-.128.45-.312.513-3.173 1.118-6.427 1.765-9.668 1.765zM130.784 93.81a.317.317 0 0 1-.283-.453c.96-1.986 1.105-3.415.426-4.247-1.35-1.656-5.536-.606-5.575-.594a.314.314 0 0 1-.384-.227.32.32 0 0 1 .225-.387c.187-.045 4.615-1.158 6.22.808.85 1.04.728 2.694-.348 4.922a.313.313 0 0 1-.283.177M52.476 93.81a.314.314 0 0 1-.283-.178c-1.076-2.228-1.194-3.883-.35-4.92 1.606-1.967 6.034-.854 6.222-.81a.32.32 0 0 1 .228.387.314.314 0 0 1-.384.226c-.045-.01-4.228-1.06-5.577.594-.678.832-.534 2.26.427 4.247a.32.32 0 0 1-.145.42.33.33 0 0 1-.14.032M96.01 93.24a.03.03 0 0 1 .01-.01c-2.027-2.524-5.638-1.956-7.342.054a.4.4 0 0 0-.123.288c0 .22.18.515.404.515.103 0 .197.005.27.005 2.04-2.662 4.076-2.227 6.137-.167.006.007.012-.043.02-.04.012.013.02-.005.033.005l.005-.018c.073.05.158.084.257.084.24 0 .435-.2.435-.438a.424.424 0 0 0-.107-.28" fill="#4E2223"/></g></svg>