<?xml version="1.0" encoding="utf-8"?>
<!-- Generator: Adobe Illustrator 19.1.0, SVG Export Plug-In . SVG Version: 6.00 Build 0)  -->
<svg version="1.1" id="Capa_1" xmlns="http://www.w3.org/2000/svg" xmlns:xlink="http://www.w3.org/1999/xlink" x="0px" y="0px"
	 viewBox="-474 352.4 73.1 65.6" style="enable-background:new -474 352.4 73.1 65.6;" xml:space="preserve">
<style type="text/css">
	.st0{stroke:#000000;stroke-width:2;stroke-miterlimit:10;}
</style>
<g>
	<g>
		<path class="st0" d="M-467.5,418h60c3.6,0,6.6-2.9,6.6-6.6v-52.5c0-3.6-2.9-6.6-6.6-6.6h-60c-3.6,0-6.6,2.9-6.6,6.6v52.5
			C-474.1,415.1-471.1,418-467.5,418z M-467.5,354.4h60c2.6,0,4.7,2.1,4.7,4.7v4.7h-69.4v-4.7C-472.2,356.4-470.1,354.4-467.5,354.4
			z M-472.2,365.5h69.4v45.9c0,2.6-2.1,4.7-4.7,4.7h-60c-2.6,0-4.7-2.1-4.7-4.7L-472.2,365.5L-472.2,365.5z"/>
	</g>
	<circle cx="-465.6" cy="359" r="1.9"/>
	<circle cx="-458.1" cy="359" r="1.9"/>
	<circle cx="-450.6" cy="359" r="1.9"/>
	<ellipse cx="-446.9" cy="393.8" rx="1.9" ry="2.8"/>
	<ellipse cx="-428.1" cy="393.8" rx="1.9" ry="2.8"/>
	<path d="M-428.1,398.4h-18.8c-0.6,0-1.1,0.3-1.5,0.7c-0.4,0.5-0.5,1.1-0.3,1.6c0.1,0.3,2,7,11.2,7c9.1,0,11.1-6.7,11.2-7
		c0.2-0.6,0-1.2-0.3-1.6C-427,398.6-427.5,398.4-428.1,398.4z"/>
</g>
</svg>
