<?xml version="1.0" encoding="utf-8"?>
<!-- Generator: Adobe Illustrator 19.1.0, SVG Export Plug-In . SVG Version: 6.00 Build 0)  -->
<svg version="1.1" id="Capa_1" xmlns="http://www.w3.org/2000/svg" xmlns:xlink="http://www.w3.org/1999/xlink" x="0px" y="0px"
	 viewBox="-279 196.3 282.2 204" style="enable-background:new -279 196.3 282.2 204;" xml:space="preserve">
<style type="text/css">
	.st0{opacity:0.5;}
	.st1{fill:#FFFFFF;}
</style>
<g class="st0">
	<g>
		<path class="st1" d="M29.6,235.4c0,0-2.9-12.7-12.4-11.1c7.7-11.9-9.2-23.5-26.8-25.7c-17.6-2.2-21.4,16.1-21.4,16.1
			s-5.6-3.2-8.5,1.3c-22.3-9.9-41.7,3.6-41.7,3.6s3.6,0,37,0.9C-10.6,221.4,29.6,235.4,29.6,235.4"/>
	</g>
</g>
<g class="st0">
	<g>
		<path class="st1" d="M-306.6,246.1c0,0,46-11.9,83.2-9.9c37.3,2,41.2,2.3,41.2,2.3s-20.4-16.7-46-7.7c-2.7-5.3-9.3-2.3-9.3-2.3
			s-2.5-20.7-22.3-19.8c-19.8,0.9-39.5,12.3-32.1,26.2C-302.2,232.2-306.6,246.1-306.6,246.1"/>
	</g>
</g>
<g class="st0">
	<g>
		<path class="st1" d="M-212.9,301.1c0,0,56.2-14.6,101.7-12.1c45.5,2.4,50.4,2.8,50.4,2.8s-24.9-20.4-56.3-9.4
			c-3.3-6.4-11.3-2.8-11.3-2.8s-3.1-25.3-27.2-24.2s-48.3,15-39.2,32C-207.6,284.2-212.9,301.1-212.9,301.1"/>
	</g>
</g>
<g class="st0">
	<g>
		<path class="st1" d="M0.5,376.1c0,0-5.3-16.9-18-13.7c9.1-17-15.1-30.9-39.2-32S-84,354.6-84,354.6s-8-3.7-11.3,2.8
			c-31.4-11-56.3,9.4-56.3,9.4s4.8-0.4,50.4-2.8C-55.7,361.5,0.5,376.1,0.5,376.1"/>
	</g>
</g>
</svg>
