<?xml version="1.0" encoding="UTF-8" standalone="no"?>
<svg width="109px" height="109px" viewBox="0 0 109 109" version="1.1" xmlns="http://www.w3.org/2000/svg" xmlns:xlink="http://www.w3.org/1999/xlink">
    <!-- Generator: Sketch 3.6.1 (26313) - http://www.bohemiancoding.com/sketch -->
    <title>Slice 1</title>
    <desc>Created with Sketch.</desc>
    <defs>
        <filter x="-50%" y="-50%" width="200%" height="200%" filterUnits="objectBoundingBox" id="filter-1">
            <feOffset dx="0" dy="3" in="SourceAlpha" result="shadowOffsetOuter1"></feOffset>
            <feGaussianBlur stdDeviation="2" in="shadowOffsetOuter1" result="shadowBlurOuter1"></feGaussianBlur>
            <feColorMatrix values="0 0 0 0 0   0 0 0 0 0   0 0 0 0 0  0 0 0 0.35 0" in="shadowBlurOuter1" type="matrix" result="shadowMatrixOuter1"></feColorMatrix>
            <feMerge>
                <feMergeNode in="shadowMatrixOuter1"></feMergeNode>
                <feMergeNode in="SourceGraphic"></feMergeNode>
            </feMerge>
        </filter>
        <path id="path-2" d="M0,0.586619718 L49.6992958,0.586619718 L49.6992958,45.0704225 L0,45.0704225"></path>
    </defs>
    <g id="Page-1" stroke="none" stroke-width="1" fill="none" fill-rule="evenodd">
        <circle id="Oval-1" stroke="#FFFFFF" stroke-width="3" fill="#33BB44" filter="url(#filter-1)" cx="54.5" cy="51.5" r="48.5"></circle>
        <g transform="translate(30.000000, 29.000000)">
            <g id="Group-3">
                <mask id="mask-3" fill="white">
                    <use xlink:href="#path-2"></use>
                </mask>
                <g id="Clip-2"></g>
                <path d="M24.651338,0.586619718 C22.8745775,0.586619718 21.1442958,0.605633803 19.5097887,0.642957746 C15.8323239,0.725352113 12.7780986,2.7 11.3464085,5.8 C3.80204225,6.02394366 0.0999295775,9.96267606 0.0351408451,17.828169 C-0.0141549296,23.4373239 -0.0113380282,28.4309859 0.045,33.0894366 C0.137957746,40.7830986 4.29640845,44.9140845 12.0696479,45.0373239 C13.551338,45.0598592 15.1245775,45.0704225 17.023169,45.0704225 C18.3633099,45.0704225 19.7041549,45.065493 21.0435915,45.0598592 C22.3133099,45.0556338 23.5816197,45.0507042 24.8506338,45.05 L25.6485211,45.05 L29.1323239,45.0514085 L32.623169,45.0528169 C34.4048592,45.0528169 36.1872535,45.0507042 37.9682394,45.0450704 C44.8280986,45.0253521 49.3844366,40.8119718 49.573169,34.3126761 C49.7393662,28.5795775 49.7414789,22.5535211 49.579507,16.4014085 C49.4133099,10.1626761 45.079507,5.80774648 39.0407746,5.80774648 C38.8914789,5.80774648 38.7407746,5.80985915 38.588662,5.81549296 C38.4351408,5.82042254 38.2844366,5.82394366 38.1365493,5.82605634 C36.9928873,2.71760563 33.8752817,0.706338028 29.9661268,0.635915493 C28.0738732,0.602816901 26.3365493,0.586619718 24.651338,0.586619718 M24.651338,6.22042254 C26.3900704,6.22042254 28.1280986,6.23802817 29.8647183,6.26901408 C31.1323239,6.29225352 32.6034507,6.73591549 32.910493,7.96971831 C33.6541549,10.9507042 35.5266901,11.4612676 37.9654225,11.4612676 C38.2309155,11.4612676 38.5034507,11.4556338 38.7816197,11.4457746 C38.8689437,11.4429577 38.9555634,11.4415493 39.0400704,11.4415493 C42.1928873,11.4408451 43.8661268,13.4894366 43.9478169,16.5492958 C44.1020423,22.4119718 44.1119014,28.2852113 43.9421831,34.1485915 C43.8351408,37.8190141 41.4682394,39.4007042 37.9499296,39.4112676 C36.1738732,39.4169014 34.3992254,39.4190141 32.623169,39.4190141 C30.2985211,39.4190141 27.9738732,39.4161972 25.6485211,39.4161972 L24.8485211,39.4161972 C22.2407746,39.4169014 19.6316197,39.4366197 17.023169,39.4366197 C15.401338,39.4366197 13.7802113,39.4288732 12.1590845,39.4042254 C7.39007042,39.3288732 5.73514085,37.6978873 5.67809859,33.0225352 C5.61753521,27.9725352 5.62387324,22.9232394 5.66894366,17.8746479 C5.70908451,12.9809859 7.11894366,11.4457746 11.9548592,11.4246479 C14.0964085,11.4147887 15.6288028,11.1394366 16.2464085,8.76901408 C16.6654225,7.15633803 18.0083803,6.31197183 19.6393662,6.27535211 C21.3090845,6.23661972 22.9802113,6.22042254 24.651338,6.22042254" id="Fill-1" fill="#FFFFFF" mask="url(#mask-3)"></path>
            </g>
            <path d="M24.8308451,18.0038028 C21.2674648,18.0038028 18.4921127,20.7150704 18.4738028,24.176338 C18.455493,27.6242254 21.2688732,30.448169 24.746338,30.47 L24.7885915,33.2869014 L24.7892958,30.47 C28.2970423,30.4707042 31.0590141,27.7432394 31.0773239,24.2615493 C31.0871831,22.5566197 30.4569014,20.9805634 29.3033803,19.8207042 C28.1442254,18.6580282 26.5561972,18.0122535 24.8308451,18.0038028 M24.7892958,36.1038028 C24.7871831,36.1002817 24.7160563,36.1030986 24.7160563,36.1030986 C18.1308451,36.0629577 12.805493,30.698169 12.84,24.1467606 C12.8759155,17.5425352 18.1259155,12.37 24.7914085,12.37 C28.0829577,12.385493 31.0794366,13.62 33.2956338,15.8467606 C35.5167606,18.0770423 36.7294366,21.076338 36.7111268,24.2925352 C36.6759155,30.8052113 31.3287324,36.1038028 24.7892958,36.1038028" id="Fill-4" fill="#FFFFFF"></path>
        </g>
    </g>
</svg>