<?xml version="1.0" encoding="utf-8"?>
<!-- Generator: Adobe Illustrator 19.1.0, SVG Export Plug-In . SVG Version: 6.00 Build 0)  -->
<svg version="1.1" id="Capa_1" xmlns="http://www.w3.org/2000/svg" xmlns:xlink="http://www.w3.org/1999/xlink" x="0px" y="0px"
	 viewBox="0 0 55 55" style="enable-background:new 0 0 55 55;" xml:space="preserve">
<style type="text/css">
	.st0{fill:#FFFFFF;}
</style>
<path class="st0" d="M34.4,27.5L52.1,9.2C54,7.2,54,4,52,2.1c-2-1.9-5.1-1.9-7.1,0.1L27.5,20.3L10.1,2.2C8.2,0.3,5,0.2,3,2.1
	C1,4,1,7.2,2.9,9.2l17.7,18.3L2.9,45.8C1,47.8,1,51,3,52.9c1,0.9,2.2,1.4,3.5,1.4c1.3,0,2.6-0.5,3.6-1.5l17.4-18.1l17.4,18.1
	c1,1,2.3,1.5,3.6,1.5c1.2,0,2.5-0.5,3.5-1.4c2-1.9,2-5.1,0.1-7.1L34.4,27.5z"/>
</svg>
