<?xml version="1.0" encoding="UTF-8" standalone="no"?>
<svg width="107px" height="107px" viewBox="0 0 107 107" version="1.1" xmlns="http://www.w3.org/2000/svg" xmlns:xlink="http://www.w3.org/1999/xlink">
    <!-- Generator: Sketch 3.6.1 (26313) - http://www.bohemiancoding.com/sketch -->
    <title>Group</title>
    <desc>Created with Sketch.</desc>
    <defs>
        <filter x="-50%" y="-50%" width="200%" height="200%" filterUnits="objectBoundingBox" id="filter-1">
            <feOffset dx="0" dy="3" in="SourceAlpha" result="shadowOffsetOuter1"></feOffset>
            <feGaussianBlur stdDeviation="2" in="shadowOffsetOuter1" result="shadowBlurOuter1"></feGaussianBlur>
            <feColorMatrix values="0 0 0 0 0   0 0 0 0 0   0 0 0 0 0  0 0 0 0.35 0" in="shadowBlurOuter1" type="matrix" result="shadowMatrixOuter1"></feColorMatrix>
            <feMerge>
                <feMergeNode in="shadowMatrixOuter1"></feMergeNode>
                <feMergeNode in="SourceGraphic"></feMergeNode>
            </feMerge>
        </filter>
    </defs>
    <g id="Page-1" stroke="none" stroke-width="1" fill="none" fill-rule="evenodd">
        <g id="Group" transform="translate(5.000000, 2.000000)">
            <circle id="Oval-1" stroke="#FFFFFF" stroke-width="3" fill="#0097E8" filter="url(#filter-1)" cx="48.5" cy="48.5" r="48.5"></circle>
            <path d="M29.828587,50.6803261 L42.6773913,63.5306522 C43.7844565,64.633913 45.5747826,64.6346739 46.6788043,63.5306522 C47.7851087,62.4243478 47.7851087,60.6317391 46.6788043,59.5277174 L38.6615217,51.5096739 L65.861087,51.5096739 C67.423913,51.5096739 68.69,50.2413043 68.69,48.68 C68.69,47.1156522 67.423913,45.8495652 65.861087,45.8495652 L38.6630435,45.8480435 L46.6788043,37.8322826 C47.7851087,36.7267391 47.7851087,34.9348913 46.6788043,33.8301087 C46.1279348,33.2777174 45.4028261,33.0015217 44.6777174,33 C43.9533696,33.0015217 43.2275,33.2777174 42.6773913,33.828587 L29.828587,46.6781522 C28.7238043,47.7836957 28.7238043,49.5740217 29.828587,50.6803261" id="Fill-154" fill="#FFFFFF" transform="translate(48.845000, 48.679192) rotate(-180.000000) translate(-48.845000, -48.679192) "></path>
        </g>
    </g>
</svg>