<?xml version="1.0" encoding="UTF-8" standalone="no"?>
<svg width="348px" height="135px" viewBox="0 0 348 135" version="1.1" xmlns="http://www.w3.org/2000/svg" xmlns:xlink="http://www.w3.org/1999/xlink">
    <!-- Generator: Sketch 3.6.1 (26313) - http://www.bohemiancoding.com/sketch -->
    <title>Group</title>
    <desc>Created with Sketch.</desc>
    <defs>
        <filter x="-50%" y="-50%" width="200%" height="200%" filterUnits="objectBoundingBox" id="filter-1">
            <feOffset dx="0" dy="3" in="SourceAlpha" result="shadowOffsetOuter1"></feOffset>
            <feGaussianBlur stdDeviation="2" in="shadowOffsetOuter1" result="shadowBlurOuter1"></feGaussianBlur>
            <feColorMatrix values="0 0 0 0 0   0 0 0 0 0   0 0 0 0 0  0 0 0 0.35 0" in="shadowBlurOuter1" type="matrix" result="shadowMatrixOuter1"></feColorMatrix>
            <feMerge>
                <feMergeNode in="shadowMatrixOuter1"></feMergeNode>
                <feMergeNode in="SourceGraphic"></feMergeNode>
            </feMerge>
        </filter>
        <path id="path-2" d="M127.1522,0.847 L0.0002,0.847 L0.0002,127.9997 L127.1522,127.9997 L127.1522,0.847 L127.1522,0.847 Z"></path>
    </defs>
    <g id="Page-1" stroke="none" stroke-width="1" fill="none" fill-rule="evenodd">
        <g id="Group" transform="translate(4.000000, 0.000000)">
            <g id="Group-67" filter="url(#filter-1)" transform="translate(0.000000, 0.153000)">
                <g id="Group-3" transform="translate(0.000000, 1.000000)" fill="#FFFFFF">
                    <path d="M329.6601,17.2598 L106.5121,17.2598 C95.2691,7.2598 80.1681,0.4168 63.5761,0.4168 C28.9321,0.4168 0.7461,28.6908 0.7461,63.3338 C0.7461,97.9778 28.9321,126.2228 63.5761,126.2228 C80.1691,126.2228 95.2711,120.2598 106.5141,109.2598 L329.6601,109.2598 C335.0441,109.2598 339.5861,104.5138 339.5861,99.1318 L339.5861,27.0408 C339.5861,21.6578 335.0441,17.2598 329.6601,17.2598" id="Fill-1"></path>
                </g>
                <path d="M336.5859,97.2598 C336.5859,102.7828 332.1089,107.2598 326.5859,107.2598 L70.5859,107.2598 C65.0629,107.2598 60.5859,102.7828 60.5859,97.2598 L60.5859,30.2598 C60.5859,24.7368 65.0629,20.2598 70.5859,20.2598 L326.5859,20.2598 C332.1089,20.2598 336.5859,24.7368 336.5859,30.2598 L336.5859,97.2598 Z" id="Fill-4" fill="#0098EC"></path>
                <path d="M63.5762,126.5 C29.3472,126.5 1.5002,98.652 1.5002,64.423 C1.5002,30.194 29.3472,2.347 63.5762,2.347 C97.8052,2.347 125.6522,30.194 125.6522,64.423 C125.6522,98.652 97.8052,126.5 63.5762,126.5" id="Fill-6" fill="#0098EC"></path>
                <g id="Group-10">
                    <mask id="mask-3" fill="white">
                        <use xlink:href="#path-2"></use>
                    </mask>
                    <g id="Clip-9"></g>
                    <path d="M63.5762,0.8467 C28.5202,0.8467 0.0002,29.3667 0.0002,64.4227 C0.0002,99.4797 28.5202,127.9997 63.5762,127.9997 C98.6322,127.9997 127.1522,99.4797 127.1522,64.4227 C127.1522,29.3667 98.6322,0.8467 63.5762,0.8467 M63.5762,3.8467 C97.0312,3.8467 124.1522,30.9667 124.1522,64.4227 C124.1522,97.8787 97.0312,124.9997 63.5762,124.9997 C30.1202,124.9997 3.0002,97.8787 3.0002,64.4227 C3.0002,30.9667 30.1202,3.8467 63.5762,3.8467" id="Fill-8" fill="#FFFFFF" mask="url(#mask-3)"></path>
                </g>
                <path d="M92.0332,71.1104 L92.0332,71.1104 C92.0222,71.1114 92.0152,71.1134 92.0062,71.1134 C92.0152,71.1134 92.0222,71.1104 92.0332,71.1104 M92.1332,71.0934 L92.1332,71.0954 C92.1052,71.0994 92.0802,71.1034 92.0522,71.1064 C92.0802,71.1034 92.1052,71.0994 92.1332,71.0934 M99.2092,73.9724 C98.4982,72.0824 96.7932,71.2594 94.4102,71.2594 L94.4002,71.2594 C96.7802,71.2594 98.4892,72.0944 99.1992,73.9854 C99.5022,74.7944 99.6302,75.5764 99.5932,76.5074 C99.6252,75.5934 99.4972,74.6424 99.1992,73.8444 C98.4892,71.9574 96.4102,70.8884 94.0292,70.8864 C93.2712,70.8884 92.5862,70.9624 91.5862,71.0914 L91.5862,71.0894 C92.5862,70.9504 93.6392,71.2594 94.4002,71.2594 L94.3952,71.2594 C93.6422,71.2594 93.1272,71.1994 92.1682,71.3374 C92.8022,63.9034 87.2012,59.7934 86.9472,59.6154 C87.2012,59.7934 92.7712,63.7174 92.1332,71.1514 C92.1052,71.1564 92.0802,71.1304 92.0522,71.1314 C92.6962,63.6894 87.1172,59.6814 86.8622,59.5024 C86.4292,59.1954 77.5862,51.6204 63.5862,51.6204 L63.5862,52.2594 L62.3882,52.2594 C50.3462,52.2594 40.1562,53.7814 40.0522,53.7984 L39.5882,53.7524 L39.3362,54.0834 C39.0932,54.4684 33.7302,63.0254 34.4462,70.9084 C33.8212,70.8044 33.0662,70.7034 32.2752,70.7034 C28.7352,70.7034 27.3642,72.3694 26.8382,73.7734 C26.0362,75.9084 26.4692,78.7404 27.9132,80.8274 C29.0642,82.4874 30.6622,83.4414 32.4392,83.5414 C32.7542,84.4574 34.0492,87.2914 37.7532,90.4114 C41.6332,93.6764 49.0552,97.2594 62.3882,97.2594 L63.6582,97.2594 C76.9892,97.2594 84.4122,93.6754 88.2922,90.4064 C91.8542,87.4044 93.1872,84.5344 93.5672,83.4914 C95.3472,83.3954 96.9532,82.5134 98.1112,80.8414 C98.8502,79.7754 99.3242,78.6664 99.5092,77.4154 C99.7012,76.1654 99.6112,75.0484 99.2092,73.9724" id="Fill-11" fill="#FFE1CF"></path>
                <path d="M84.0332,72.2871 C84.0332,68.5811 81.0302,65.5791 77.3252,65.5791 C73.6202,65.5791 70.6162,68.5811 70.6162,72.2871 C70.6162,75.9911 73.6202,78.9951 77.3252,78.9951 C81.0302,78.9951 84.0332,75.9911 84.0332,72.2871" id="Fill-13" fill="#FFADA1"></path>
                <path d="M56.2031,72.4297 C56.2031,68.7237 53.2001,65.7207 49.4941,65.7207 C45.7911,65.7207 42.7881,68.7237 42.7881,72.4297 C42.7881,76.1337 45.7911,79.1377 49.4941,79.1377 C53.2001,79.1377 56.2031,76.1337 56.2031,72.4297" id="Fill-15" fill="#FFADA1"></path>
                <path d="M39.3916,66.9102 C39.3916,66.9102 45.7266,59.3922 45.4156,56.7832 C45.4156,56.7832 56.5376,62.8102 67.0586,62.6222 C67.0586,62.6222 67.4706,61.8582 65.8336,60.3882 C63.9906,58.7292 62.3746,54.7962 62.6646,53.5112 C62.6646,53.5112 65.3496,55.4802 71.1136,59.2272 C72.3456,60.0292 81.7556,65.4492 84.7396,64.4032 C84.7396,64.4032 84.7396,63.7832 83.5366,61.7132 C82.3356,59.6422 82.7516,59.7702 82.7516,59.7702 C82.7516,59.7702 87.0316,61.4392 89.5426,65.8942 L92.2766,65.1492 L83.9516,57.4892 C83.9516,57.4892 70.8216,45.7822 42.6826,51.9342 L39.3916,66.9102 Z" id="Fill-17" fill="#FFADA1"></path>
                <path d="M84.166,71.7207 C84.166,75.4547 81.135,78.4847 77.399,78.4847 C73.664,78.4847 70.636,75.4547 70.636,71.7207 C70.636,67.9827 73.664,64.9537 77.399,64.9537 C81.135,64.9537 84.166,67.9827 84.166,71.7207" id="Fill-19" fill="#FFFFFF"></path>
                <path d="M56.3359,72.1621 C56.3359,75.9001 53.3069,78.9301 49.5709,78.9301 C45.8339,78.9301 42.8049,75.9001 42.8049,72.1621 C42.8049,68.4281 45.8339,65.3981 49.5709,65.3981 C53.3069,65.3981 56.3359,68.4281 56.3359,72.1621" id="Fill-21" fill="#FFFFFF"></path>
                <path d="M56.2119,83.5371 C56.2119,83.5371 64.1149,86.6441 71.8159,83.5371 L72.0659,81.6741 C72.0659,81.6741 62.1819,83.7441 56.3359,81.6741 L56.2119,83.5371 Z" id="Fill-23" fill="#FFFFFF"></path>
                <path d="M56.5859,82.3155 C56.5859,82.3155 62.5859,84.7795 72.5859,82.3365 L72.5859,81.6315 C72.5859,81.6315 64.5859,83.4545 56.5859,81.6735 L56.5859,82.3155 Z" id="Fill-25" fill="#E7E7E7"></path>
                <path d="M56.4101,83.8291 L56.9911,88.0511 L58.2741,90.2461 L60.9671,91.4051 L64.5681,91.9011 L69.3751,90.8251 L70.9471,88.8381 L71.9001,84.4061 L72.0651,83.4161 C72.0651,83.4161 65.8951,86.1521 56.4101,83.8291" id="Fill-27" fill="#FF0000"></path>
                <path d="M57.2129,88.4327 C57.2129,88.4327 63.7719,84.4427 71.0859,88.1937 C71.0859,88.1937 70.9579,90.4707 68.3219,91.0617 C65.6869,91.6527 62.7479,92.7737 58.2749,90.2457 L57.2129,88.4327 Z" id="Fill-29" fill="#B40000"></path>
                <path d="M57.2129,88.4327 C57.2129,88.4327 63.7719,84.4427 71.0859,88.1937 C71.0859,88.1937 70.9579,90.4707 68.3219,91.0617 C65.6869,91.6527 62.7479,92.7737 58.2749,90.2457 L57.2129,88.4327 L57.2129,88.4327 Z" id="Stroke-31" stroke="#780000" stroke-width="2"></path>
                <path d="M34.8867,81.9424 L34.1717,85.2644 L32.6507,82.9044 L34.8867,81.9424 Z" id="Fill-33" fill="#FFADA1"></path>
                <path d="M91.0429,81.9737 L91.7569,85.2967 L93.2789,82.9377 L91.0429,81.9737 Z" id="Fill-35" fill="#FFADA1"></path>
                <path d="M91.789,74.5489 C91.789,74.5489 97.499,73.6809 96.572,78.8689 C96.572,78.8689 98.684,74.3949 95.018,74.0839 C91.853,73.8159 91.789,74.5489 91.789,74.5489" id="Fill-37" fill="#FFADA1"></path>
                <path d="M34.5605,74.5489 C34.5605,74.5489 28.8505,73.6809 29.7765,78.8689 C29.7765,78.8689 27.6655,74.3949 31.3305,74.0839 C34.4985,73.8159 34.5605,74.5489 34.5605,74.5489" id="Fill-39" fill="#FFADA1"></path>
                <path d="M93.2783,82.6221 C92.6083,82.6221 91.8883,82.4701 91.1333,82.1301 L92.6603,82.7301 C92.6603,82.7301 88.8433,96.2601 63.6583,96.2601 L62.3883,96.2601 C37.2033,96.2601 33.3863,82.7371 33.3863,82.7371 L34.9133,81.8751 C34.1483,82.2191 33.4253,82.4441 32.7493,82.4441 C28.8703,82.4441 26.6113,77.4141 27.8383,74.1411 C28.5543,72.2361 30.4973,71.7751 32.2753,71.7751 C34.0873,71.7751 35.7263,72.2831 35.7263,72.2831 C34.0933,64.3401 40.2403,54.8331 40.2403,54.8331 C40.2403,54.8331 50.3013,53.2601 62.3883,53.2601 L63.7343,53.2601 C75.8223,53.2601 86.3683,60.6161 86.3683,60.6161 C86.3683,60.6161 92.5213,64.7941 90.8903,72.7401 C90.8903,72.7401 92.6073,72.0211 94.4203,72.0211 C95.9573,72.0231 97.5503,72.4741 98.2103,74.2371 C99.4393,77.5131 97.1723,82.6221 93.2783,82.6221 M99.2093,73.8201 C98.4983,71.9301 96.7933,70.8941 94.4103,70.8921 C93.6053,70.8921 92.8193,71.0131 92.1663,71.1521 C92.8163,63.7001 87.1573,59.7041 86.9003,59.5261 C86.4693,59.2191 77.5863,51.7671 63.5863,51.7671 L63.5863,52.2601 L62.3883,52.2601 C50.3463,52.2601 40.1563,53.8031 40.0523,53.8181 L39.5883,53.7801 L39.3363,54.1181 C39.0933,54.5031 33.7303,63.0601 34.4463,70.9451 C33.8213,70.8421 33.0663,70.7401 32.2753,70.7401 C28.7353,70.7401 27.3643,72.4061 26.8383,73.8121 C26.0363,75.9451 26.4693,78.7791 27.9133,80.8651 C29.0643,82.5241 30.6623,83.4801 32.4393,83.5821 C32.7543,84.4981 34.0493,87.3111 37.7533,90.4291 C41.6333,93.6951 49.0553,97.2601 62.3883,97.2601 L63.6583,97.2601 C76.9893,97.2601 84.4123,93.6951 88.2923,90.4261 C91.8543,87.4221 93.1873,84.5611 93.5673,83.5181 C95.3473,83.4251 96.9533,82.5491 98.1113,80.8751 C99.5733,78.7661 100.0123,75.9731 99.2093,73.8201" id="Fill-41" fill="#4E2223"></path>
                <path d="M104.1621,55.545 C104.1311,55.402 101.0001,41.406 83.9551,35.033 C83.9501,35.033 83.9451,35.031 83.9451,35.031 C76.3261,31.643 67.0411,30.118 62.8771,30.118 C62.8201,30.118 62.7671,30.137 62.7241,30.166 C58.7181,30.333 50.7871,31.395 43.2971,34.594 C33.7381,38.679 28.1481,44.881 27.1291,52.535 C25.3541,65.838 28.1121,72.912 28.1391,72.982 C28.1711,73.062 28.2391,73.119 28.3201,73.142 C28.4021,73.164 28.4901,73.144 28.5551,73.092 C28.5631,73.085 29.4381,72.412 31.5981,72.412 C32.6431,72.412 33.8251,72.569 35.1061,72.878 C35.2091,72.903 35.3171,72.863 35.3821,72.78 C35.7751,72.272 44.7431,60.622 44.8541,55.137 C46.5901,56.254 53.4201,60.143 66.4551,61.657 C66.4671,61.659 66.4801,61.661 66.4911,61.661 C66.6421,61.654 66.7641,61.548 66.7641,61.399 C66.7641,61.305 66.7151,61.231 66.6411,61.184 C66.2121,60.72 62.2541,56.405 63.2671,54.046 C63.3161,53.931 63.4061,53.846 63.7011,53.846 C64.7471,53.846 67.0581,55.231 69.7351,56.914 C74.2281,59.743 79.8241,63.26 84.3051,63.26 L84.3141,63.26 C84.4631,63.26 84.5831,63.143 84.5831,62.994 C84.5831,62.907 84.5411,62.764 84.4771,62.713 C84.2051,62.365 82.4431,60.04 83.1611,58.528 C84.5411,59.455 91.6801,64.672 90.6071,72.58 C90.5951,72.669 90.6261,72.765 90.6921,72.824 C90.7581,72.882 90.8511,72.911 90.9351,72.889 C90.9531,72.885 92.7651,72.434 94.5901,72.434 C95.8001,72.434 97.3771,72.642 98.0041,73.627 C98.0531,73.704 98.1381,73.752 98.2281,73.752 C98.2391,73.752 98.2501,73.751 98.2621,73.749 C98.3621,73.737 98.4501,73.668 98.4821,73.572 L98.6921,72.949 C98.7061,72.891 100.1111,67.254 100.0211,58.852 C100.5431,59.697 101.0171,60.559 101.4381,61.418 C101.4911,61.528 101.6151,61.588 101.7341,61.562 C101.8511,61.537 101.9421,61.436 101.9471,61.313 C101.9551,61.13 102.1151,56.831 99.7291,53.117 C99.7271,53.098 99.7251,53.08 99.7211,53.062 C100.7851,53.418 102.6291,54.223 103.6811,55.75 C103.7521,55.856 103.8871,55.895 104.0041,55.844 C104.1221,55.794 104.1871,55.669 104.1621,55.545" id="Fill-43" fill="#4E2223"></path>
                <path d="M77.3994,66.1426 C74.1054,66.1426 71.4274,68.8226 71.4274,72.1166 C71.4274,75.4106 74.1054,78.0896 77.3994,78.0896 C80.6944,78.0896 83.3734,75.4106 83.3734,72.1166 C83.3734,68.8226 80.6944,66.1426 77.3994,66.1426 M77.3994,78.8806 C73.6694,78.8806 70.6354,75.8466 70.6354,72.1166 C70.6354,68.3856 73.6694,65.3496 77.3994,65.3496 C81.1294,65.3496 84.1664,68.3856 84.1664,72.1166 C84.1664,75.8466 81.1294,78.8806 77.3994,78.8806" id="Fill-45" fill="#4E2223"></path>
                <path d="M73.8271,72.1162 C73.8271,70.1412 75.4261,68.5402 77.3991,68.5402 C79.3751,68.5402 80.9731,70.1412 80.9731,72.1162 C80.9731,74.0902 79.3751,75.6892 77.3991,75.6892 C75.4261,75.6892 73.8271,74.0902 73.8271,72.1162" id="Fill-47" fill="#4E2223"></path>
                <path d="M76.3906,69.5342 C76.3906,70.2752 76.9916,70.8752 77.7306,70.8752 C78.4726,70.8752 79.0726,70.2752 79.0726,69.5342 C79.0726,68.7932 78.4726,68.1952 77.7306,68.1952 C76.9916,68.1952 76.3906,68.7932 76.3906,69.5342" id="Fill-49" fill="#FFFFFF"></path>
                <path d="M49.4482,66.1416 C46.1532,66.1416 43.4732,68.8226 43.4732,72.1166 C43.4732,75.4096 46.1532,78.0896 49.4482,78.0896 C52.7412,78.0896 55.4192,75.4096 55.4192,72.1166 C55.4192,68.8226 52.7412,66.1416 49.4482,66.1416 M49.4482,78.8806 C45.7172,78.8806 42.6822,75.8456 42.6822,72.1166 C42.6822,68.3846 45.7172,65.3496 49.4482,65.3496 C53.1772,65.3496 56.2122,68.3846 56.2122,72.1166 C56.2122,75.8456 53.1772,78.8806 49.4482,78.8806" id="Fill-51" fill="#4E2223"></path>
                <path d="M53.0214,72.1162 C53.0214,70.1412 51.4214,68.5402 49.4484,68.5402 C47.4724,68.5402 45.8754,70.1412 45.8754,72.1162 C45.8754,74.0902 47.4724,75.6892 49.4484,75.6892 C51.4214,75.6892 53.0214,74.0902 53.0214,72.1162" id="Fill-53" fill="#4E2223"></path>
                <path d="M50.4589,69.5342 C50.4589,70.2752 49.8569,70.8752 49.1169,70.8752 C48.3749,70.8752 47.7749,70.2752 47.7749,69.5342 C47.7749,68.7932 48.3749,68.1932 49.1169,68.1932 C49.8569,68.1932 50.4589,68.7932 50.4589,69.5342" id="Fill-55" fill="#FFFFFF"></path>
                <path d="M58.5254,89.8379 C58.7424,89.9989 60.7704,91.4289 63.8784,91.4289 L64.5394,91.4509 C67.6404,91.4509 69.6664,90.0449 69.8884,89.8839 C71.5054,88.1829 71.6894,83.7909 71.7074,82.2889 C69.2574,82.7809 66.7164,83.2599 64.1434,83.2599 L64.1414,83.2599 C60.4854,83.2599 57.7754,82.5349 56.7074,82.3029 C56.7234,83.8089 56.9154,88.1469 58.5254,89.8379 M64.5334,92.2599 L64.5174,92.2599 L63.5864,92.2599 L63.5864,91.9819 C60.5864,91.9819 57.9694,90.3979 57.8764,90.3259 C57.8664,90.3149 57.9214,90.3629 57.9084,90.3519 C55.7244,88.1049 55.8754,81.8049 55.8794,81.5359 C55.8824,81.4139 55.9584,81.3159 56.0544,81.2439 C56.1524,81.1699 56.4374,81.7769 56.5544,81.8089 C56.5864,81.8179 59.4964,83.2599 64.4484,83.2599 L64.4454,83.2599 C66.5674,83.2599 69.6314,82.3589 72.1704,81.8109 C72.2854,81.7869 72.3294,81.5039 72.4214,81.5759 C72.5134,81.6499 72.5304,81.6039 72.5344,81.7229 C72.5414,81.9939 72.6354,88.2889 70.4524,90.5349 C70.4404,90.5489 70.4164,90.5289 70.4024,90.5409 C70.3104,90.6129 68.0954,92.2599 64.5334,92.2599" id="Fill-57" fill="#4E2223"></path>
                <path d="M56.5859,83.3145 C56.5859,83.6265 60.2869,85.2595 64.0839,85.2595 L64.0309,85.2595 C66.6069,85.2595 69.1649,84.4045 71.6919,83.5435 L71.7069,82.2745 C70.5169,82.5075 67.2649,82.9555 63.5709,82.9555 C61.0289,82.9555 59.5859,82.6975 56.5859,82.1915 L56.5859,83.3145 Z M63.9789,85.2595 L63.9769,85.2595 C59.2769,85.2595 56.2679,83.8515 56.1409,83.7915 C56.0029,83.7265 55.9119,83.5745 55.9119,83.4215 L55.9139,81.5815 C55.9139,81.4565 55.9729,81.3375 56.0689,81.2635 C56.1679,81.1895 56.2949,81.1635 56.4139,81.1945 C58.5179,81.7675 60.9409,82.0585 63.6239,82.0585 C68.2029,82.0585 71.9749,81.1985 72.0109,81.1895 C72.1289,81.1635 72.2559,81.1915 72.3509,81.2675 C72.4459,81.3435 72.4999,81.4625 72.4959,81.5825 L72.4509,83.4195 C72.4459,83.5845 72.3419,83.7535 72.1859,83.8085 C69.4919,84.7555 66.7309,85.2595 63.9789,85.2595 L63.9789,85.2595 Z" id="Fill-59" fill="#4E2223"></path>
                <path d="M96.4882,79.0967 C96.4502,79.0967 96.4102,79.0877 96.3742,79.0707 C96.2402,79.0057 96.1832,78.8457 96.2482,78.7137 C97.0642,77.0307 97.1872,75.8207 96.6112,75.1157 C95.4662,73.7127 91.9122,74.6027 91.8782,74.6127 C91.7342,74.6487 91.5882,74.5627 91.5512,74.4197 C91.5172,74.2757 91.6022,74.1327 91.7442,74.0927 C91.9032,74.0547 95.6622,73.1117 97.0242,74.7777 C97.7452,75.6567 97.6432,77.0587 96.7292,78.9467 C96.6822,79.0427 96.5882,79.0967 96.4882,79.0967" id="Fill-61" fill="#4E2223"></path>
                <path d="M30.0107,79.0967 C29.9137,79.0967 29.8167,79.0427 29.7707,78.9467 C28.8577,77.0587 28.7577,75.6567 29.4747,74.7777 C30.8367,73.1127 34.5957,74.0547 34.7557,74.0927 C34.8977,74.1327 34.9847,74.2757 34.9487,74.4197 C34.9107,74.5637 34.7677,74.6487 34.6227,74.6127 C34.5857,74.6037 31.0347,73.7137 29.8897,75.1157 C29.3137,75.8207 29.4367,77.0307 30.2517,78.7137 C30.3147,78.8457 30.2597,79.0057 30.1287,79.0707 C30.0907,79.0877 30.0517,79.0967 30.0107,79.0967" id="Fill-63" fill="#4E2223"></path>
                <path d="M66.9677,78.6133 C66.9707,78.6093 66.9727,78.6073 66.9727,78.6073 C65.2557,76.4673 62.1897,76.9483 60.7427,78.6523 C60.6797,78.7143 60.6397,78.8003 60.6397,78.8953 C60.6397,79.0823 60.7927,79.2933 60.9827,79.2933 C61.0717,79.2933 61.1507,79.2593 61.2117,79.2593 L61.2137,79.2593 C62.9447,77.2593 64.6727,77.4113 66.4227,79.1573 L66.4387,79.1423 C66.4487,79.1533 66.4567,79.1463 66.4667,79.1553 C66.4667,79.1533 66.4687,79.1463 66.4717,79.1443 C66.5337,79.1893 66.6057,79.2183 66.6897,79.2183 C66.8947,79.2183 67.0587,79.0513 67.0587,78.8483 C67.0587,78.7583 67.0237,78.6763 66.9677,78.6133" id="Fill-65" fill="#4E2223"></path>
            </g>
            <text id="KID-SAM" font-family="Montserrat-Bold, Montserrat" font-size="31.5992" font-weight="bold" fill="#FFFFFF">
                <tspan x="147.6172" y="76.1908782">KID </tspan>
                <tspan x="213.059143" y="76.1908782" letter-spacing="-0.2527936">S</tspan>
                <tspan x="232.713846" y="76.1908782">AM</tspan>
            </text>
        </g>
    </g>
</svg>