<?xml version="1.0" encoding="UTF-8" standalone="no"?>
<svg width="186px" height="196px" viewBox="0 0 186 196" version="1.1" xmlns="http://www.w3.org/2000/svg" xmlns:xlink="http://www.w3.org/1999/xlink">
    <!-- Generator: Sketch 3.6.1 (26313) - http://www.bohemiancoding.com/sketch -->
    <title>Group 3</title>
    <desc>Created with Sketch.</desc>
    <defs>
        <filter x="-50%" y="-50%" width="200%" height="200%" filterUnits="objectBoundingBox" id="filter-1">
            <feOffset dx="0" dy="2" in="SourceAlpha" result="shadowOffsetOuter1"></feOffset>
            <feGaussianBlur stdDeviation="2" in="shadowOffsetOuter1" result="shadowBlurOuter1"></feGaussianBlur>
            <feColorMatrix values="0 0 0 0 0   0 0 0 0 0   0 0 0 0 0  0 0 0 0.35 0" in="shadowBlurOuter1" type="matrix" result="shadowMatrixOuter1"></feColorMatrix>
            <feMerge>
                <feMergeNode in="shadowMatrixOuter1"></feMergeNode>
                <feMergeNode in="SourceGraphic"></feMergeNode>
            </feMerge>
        </filter>
        <path id="path-2" d="M177.999557,0.0771971831 L1.28673114e-14,0.0771971831 L1.28673114e-14,188.112676 L178,188.112676 L178,0.0771971831 L177.999557,188.112587 L-0.00044278607,188.112587 L-0.00044278607,0.0771084507 L177.999557,0.0771084507 L177.999557,0.0771971831 Z"></path>
    </defs>
    <g id="Page-1" stroke="none" stroke-width="1" fill="none" fill-rule="evenodd">
        <g id="Group-3" transform="translate(4.000000, 1.000000)">
            <g id="Group-2">
                <g id="Group">
                    <path d="M14.1691542,187.148155 C8.25973134,187.148155 1.77114428,180.646732 1.77114428,174.72562 L1.77114428,133.021394 C1.77114428,127.196113 8.00822886,124.148155 14.1691542,124.148155 L34.8463781,124.148155 C23.8316318,110.484254 17.8079701,93.744 17.8079701,76.5991268 C17.8079701,35.8301408 50.6131045,2.66197183 90.9358607,2.66197183 C131.257731,2.66197183 164.062866,35.7298732 164.062866,76.3772958 C164.062866,93.6570423 158.038318,110.47538 147.023572,124.148155 L167.373134,124.148155 C173.249791,124.148155 176.228856,127.133113 176.228856,133.021394 L176.228856,174.72562 C176.228856,180.898732 173.186915,187.148155 167.373134,187.148155 L14.1691542,187.148155 Z" id="Fill-1" stroke="#FFFFFF" stroke-width="5" fill="#0098EC" filter="url(#filter-1)"></path>
                    <g id="Group-5" transform="translate(0.000000, 0.810127)">
                        <mask id="mask-3" fill="white">
                            <use xlink:href="#path-2"></use>
                        </mask>
                        <g id="Clip-4"></g>
                        <path d="M90.9354179,0.0771084507 C70.9604527,0.0771084507 52.1464726,8.00712254 37.9578358,22.4066155 C23.8223333,36.7519817 16.0372687,55.7105451 16.0372687,75.7889113 C16.0372687,92.1493901 21.3914378,108.146066 31.2434279,121.563292 L14.1687114,121.563292 C10.9000647,121.563292 7.74122886,122.335263 5.27402488,123.736348 C1.87254229,125.668939 -0.00044278607,128.678742 -0.00044278607,132.211179 L-0.00044278607,173.915404 C-0.00044278607,180.815235 7.28338806,188.112587 14.1687114,188.112587 L167.372692,188.112587 C170.89904,188.112587 173.9029,186.235897 175.830791,182.827686 C177.229995,180.356489 177.999557,177.191404 177.999557,173.915404 L177.999557,132.211179 C177.999557,125.345066 174.226134,121.563292 167.372692,121.563292 L150.62298,121.563292 C160.477627,108.12832 165.833567,92.0535592 165.833567,75.5670803 C165.833567,33.9418268 132.234075,0.0771084507 90.9354179,0.0771084507 M90.9354179,3.62640423 C130.343378,3.62640423 162.291279,36.0793901 162.291279,75.5670803 C162.291279,94.3677 155.039328,111.802728 143.198343,125.112587 L167.372692,125.112587 C172.264592,125.112587 174.457269,127.310489 174.457269,132.211179 L174.457269,173.915404 C174.457269,178.816982 172.264592,184.563292 167.372692,184.563292 L14.1687114,184.563292 C9.27769652,184.563292 3.54184577,178.816982 3.54184577,173.915404 L3.54184577,132.211179 C3.54184577,127.310489 9.27769652,125.112587 14.1687114,125.112587 L38.6707214,125.112587 C26.8315075,111.802728 19.5795572,94.589531 19.5795572,75.7889113 C19.5795572,36.3012211 51.5256866,3.62640423 90.9354179,3.62640423" id="Fill-3" fill="#FFFFFF" mask="url(#mask-3)"></path>
                    </g>
                    <text id="KID-SAM" font-family="Montserrat-Bold, Montserrat" font-size="27.9833711" font-weight="bold" fill="#FFFFFF">
                        <tspan x="28.3867493" y="163.373862">KID </tspan>
                        <tspan x="86.3403109" y="163.373862" letter-spacing="-0.2527936">S</tspan>
                        <tspan x="103.717041" y="163.373862">AM</tspan>
                    </text>
                    <g id="Group-63" transform="translate(43.393035, 34.528437)">
                        <path d="M78.1422657,48.8548141 L78.1422657,48.8548141 C78.1289821,48.8557014 78.1218975,48.8583634 78.1103851,48.8583634 C78.1218975,48.8583634 78.1289821,48.8548141 78.1422657,48.8548141 M78.2600468,48.835293 L78.2600468,48.8388423 C78.2281662,48.8415042 78.1962856,48.8459408 78.1652905,48.8494901 C78.1962856,48.8459408 78.2281662,48.8415042 78.2600468,48.835293 M86.5941662,52.1183915 C85.7573005,49.8876592 83.7488229,48.802462 80.9415592,48.802462 L80.9309323,48.802462 C83.7337682,48.802462 85.7475592,49.9018563 86.5835393,52.1334761 C86.9395393,53.0882366 87.0900866,54.0678423 87.0484647,55.1681239 C87.0856587,54.0882507 86.9351114,52.9950676 86.5835393,52.0536169 C85.7475592,49.8255465 83.0129124,48.5788563 80.2083055,48.5761944 C79.3156488,48.5788563 78.8161861,48.6800113 77.0450418,48.832631 L77.0450418,48.8308563 C78.8161861,48.6658141 80.0347333,48.802462 80.9309323,48.802462 L80.921191,48.802462 C80.0382756,48.802462 79.4307731,48.8450535 78.3007831,49.0074338 C79.048206,40.234462 72.4515791,35.4393634 72.1513701,35.2299549 C72.4515791,35.4393634 79.0110119,40.1004761 78.2600468,48.8752225 C78.2281662,48.8796592 78.1962856,48.8636873 78.1652905,48.865462 C78.9233403,40.0818423 72.174395,35.3586169 71.8741861,35.1465465 C71.3640965,34.7845183 61.1047433,25.8500535 44.2788726,25.8500535 L44.2788726,26.6193634 L43.2214995,26.6193634 C29.0372905,26.6193634 17.0333602,28.4082085 16.9120368,28.4286169 L16.3638677,28.3700535 L16.067201,28.7595887 C15.7820468,29.2138986 9.46437512,39.3134197 10.3074398,48.6161239 C9.57152935,48.4954479 8.68241493,48.3747718 7.75079303,48.3747718 C3.58063383,48.3747718 1.96446468,50.3401944 1.34544975,51.9977155 C0.401429851,54.5177155 0.911519403,57.8593775 2.61181791,60.3234761 C3.96762886,62.2826873 5.84946965,63.4087014 7.94384776,63.5267155 C8.31401692,64.6074761 9.83985771,68.0236732 14.2030716,71.7051803 C18.7735095,75.5597155 27.5167632,79.8588 43.2214995,79.8588 L44.7181164,79.8588 C60.4210816,79.8588 69.1643353,75.5588282 73.7347731,71.698969 C77.9323851,68.1567718 79.5025045,64.7334761 79.9497184,63.5027577 C82.0467532,63.3900676 83.9374498,62.3314901 85.3021164,60.3580817 C86.1726338,59.098969 86.7305443,57.7245042 86.9492806,56.2479972 C87.1759871,54.7723775 87.0688328,53.3872648 86.5941662,52.1183915" id="Fill-7" fill="#FFE1CF"></path>
                        <path d="M68.6197085,50.2429437 C68.6197085,45.8684366 65.0809622,42.3262394 60.7168627,42.3262394 C56.350992,42.3262394 52.8140169,45.8684366 52.8140169,50.2429437 C52.8140169,54.6156761 56.350992,58.1614225 60.7168627,58.1614225 C65.0809622,58.1614225 68.6197085,54.6156761 68.6197085,50.2429437" id="Fill-9" fill="#FFADA1"></path>
                        <path d="M35.8362706,50.4119789 C35.8362706,46.0374718 32.2992955,42.4926127 27.9334249,42.4926127 C23.5710965,42.4926127 20.0332358,46.0374718 20.0332358,50.4119789 C20.0332358,54.7838239 23.5710965,58.3295704 27.9334249,58.3295704 C32.2992955,58.3295704 35.8362706,54.7838239 35.8362706,50.4119789" id="Fill-11" fill="#FFADA1"></path>
                        <path d="M16.1322905,43.8974239 C16.1322905,43.8974239 23.5958925,35.0250718 23.2292657,31.9442831 C23.2292657,31.9442831 36.3295343,39.0588465 48.724002,38.8361282 C48.724002,38.8361282 49.20841,37.934607 47.281405,36.1981141 C45.1090965,34.2415648 43.206002,29.5990859 43.5478328,28.0826493 C43.5478328,28.0826493 46.7102109,30.4065507 53.499007,34.8289732 C54.9513453,35.7757479 66.0360517,42.1733535 69.550002,40.9381986 C69.550002,40.9381986 69.550002,40.2070437 68.1339721,37.7633535 C66.7188279,35.3196634 67.2094348,35.4705085 67.2094348,35.4705085 C67.2094348,35.4705085 72.2501114,37.4412549 75.208808,42.6986493 L78.4287483,41.8184239 L68.6210368,32.7783676 C68.6210368,32.7783676 53.155405,18.9600718 20.0102109,26.221931 L16.1322905,43.8974239 Z" id="Fill-13" fill="#FFADA1"></path>
                        <path d="M68.8757274,49.5748775 C68.8757274,53.9831028 65.3059861,57.558131 60.903807,57.558131 C56.5042846,57.558131 52.9372,53.9831028 52.9372,49.5748775 C52.9372,45.1631028 56.5042846,41.5880746 60.903807,41.5880746 C65.3059861,41.5880746 68.8757274,45.1631028 68.8757274,49.5748775" id="Fill-15" fill="#FFFFFF"></path>
                        <path d="M36.0922896,50.0956479 C36.0922896,54.5083099 32.5243194,58.083338 28.1239114,58.083338 C23.7217323,58.083338 20.1537622,54.5083099 20.1537622,50.0956479 C20.1537622,45.6883099 23.7217323,42.1132817 28.1239114,42.1132817 C32.5243194,42.1132817 36.0922896,45.6883099 36.0922896,50.0956479" id="Fill-17" fill="#FFFFFF"></path>
                        <path d="M35.9469672,63.5216577 C35.9469672,63.5216577 45.2561015,67.1889676 54.3279025,63.5216577 L54.6219124,61.3219817 C54.6219124,61.3219817 42.97841,63.7656718 36.092201,61.3219817 L35.9469672,63.5216577 Z" id="Fill-19" fill="#FFFFFF"></path>
                        <path d="M36.3084577,62.0797563 C36.3084577,62.0797563 43.3930348,64.9875169 54.9054726,62.1037141 L54.9054726,61.2731789 C54.9054726,61.2731789 45.1641791,63.4240521 36.3084577,61.3219817 L36.3084577,62.0797563 Z" id="Fill-21" fill="#E7E7E7"></path>
                        <path d="M36.1804925,63.8665606 L36.8641542,68.8488845 L38.3767114,71.4398704 L41.5479453,72.8081239 L45.7907214,73.3937577 L51.4512985,72.1239972 L53.3039154,69.7779127 L54.4268209,64.5480254 L54.6216468,63.3785324 C54.6216468,63.3785324 47.3537562,66.6083915 36.1804925,63.8665606" id="Fill-23" fill="#FF0000"></path>
                        <path d="M37.1257522,69.2996451 C37.1257522,69.2996451 44.8514836,64.5897296 53.4672149,69.0174761 C53.4672149,69.0174761 53.3166677,71.7051803 50.2109662,72.4026169 C47.1070358,73.1000535 43.6453343,74.4230535 38.3761801,71.4398704 L37.1257522,69.2996451 Z" id="Fill-25" fill="#B40000"></path>
                        <path d="M37.1257522,69.2996451 C37.1257522,69.2996451 44.8514836,64.5897296 53.4672149,69.0174761 C53.4672149,69.0174761 53.3166677,71.7051803 50.2109662,72.4026169 C47.1070358,73.1000535 43.6453343,74.4230535 38.3761801,71.4398704 L37.1257522,69.2996451 L37.1257522,69.2996451 Z" id="Stroke-27" stroke="#780000" stroke-width="2"></path>
                        <path d="M10.8266507,61.6395549 L9.98447164,65.5606394 L8.19118806,62.7744423 L10.8266507,61.6395549 Z" id="Fill-29" fill="#FFADA1"></path>
                        <path d="M76.8752776,61.6759352 L77.7156856,65.5987944 L79.5098547,62.8143718 L76.8752776,61.6759352 Z" id="Fill-31" fill="#FFADA1"></path>
                        <path d="M77.8542776,52.9136113 C77.8542776,52.9136113 84.5810836,51.8887521 83.4891731,58.0121746 C83.4891731,58.0121746 85.9776308,52.7308225 81.65781,52.3643577 C77.9304368,52.0466958 77.8542776,52.9136113 77.8542776,52.9136113" id="Fill-33" fill="#FFADA1"></path>
                        <path d="M10.4417811,52.9136113 C10.4417811,52.9136113 3.7158607,51.8887521 4.80688557,58.0121746 C4.80688557,58.0121746 2.32108458,52.7308225 6.63824876,52.3643577 C10.3691642,52.0466958 10.4417811,52.9136113 10.4417811,52.9136113" id="Fill-35" fill="#FFADA1"></path>
                        <path d="M79.6089502,62.441962 C78.8190199,62.441962 77.9715274,62.2618352 77.0815274,61.8616521 L78.88101,62.787131 C78.88101,62.787131 74.3858458,78.9719197 44.7182935,78.9719197 L43.2216766,78.9719197 C13.55501,78.9719197 9.05984577,62.7933423 9.05984577,62.7933423 L10.8566716,61.6682155 C9.95693035,62.0737225 9.10589552,62.285793 8.30710945,62.285793 C3.73932836,62.285793 1.07729851,56.3220887 2.52343781,52.4586803 C3.36738806,50.2110887 5.65570647,49.6538493 7.75097015,49.6538493 C9.885199,49.6538493 11.8148607,50.2465817 11.8148607,50.2465817 C9.89139801,40.8702296 17.1318358,29.5062718 17.1318358,29.5062718 C17.1318358,29.5062718 28.9852189,27.507131 43.2216766,27.507131 L44.8077363,27.507131 C59.0459652,27.507131 71.4696567,36.3289056 71.4696567,36.3289056 C71.4696567,36.3289056 78.7171791,41.3298634 76.7963731,50.7088775 C76.7963731,50.7088775 78.8181343,49.8952014 80.9541343,49.8952014 C82.7651294,49.8978634 84.6416567,50.4453423 85.4183035,52.5278915 C86.8662139,56.393962 84.1953284,62.441962 79.6089502,62.441962 M86.5943433,52.0531732 C85.756592,49.8215535 83.749,48.5997085 80.9417363,48.5979338 C79.9941741,48.5979338 79.0687512,48.7399056 78.2991891,48.9040606 C79.0660945,40.1080183 72.2215075,35.3927789 71.9195274,35.1824831 C71.411209,34.8186803 61.1049204,26.0253 44.2790498,26.0253 L44.2790498,26.619807 L43.2216766,26.619807 C29.0374677,26.619807 17.0335373,28.4343845 16.9122139,28.4512437 L16.3640448,28.4042155 L16.0673781,28.8008493 C15.7822239,29.2551592 9.46455224,39.3546803 10.3076169,48.6609338 C9.57170647,48.5384831 8.68259204,48.417807 7.75097015,48.417807 C3.58081095,48.417807 1.96464179,50.3841169 1.34562687,52.0434127 C0.401606965,54.561638 0.911696517,57.9068493 2.61199502,60.3682859 C3.96780597,62.3266099 5.84964677,63.4552859 7.94402488,63.5750746 C8.31419403,64.6558352 9.84003483,68.0463 14.2032488,71.7260324 C18.7736866,75.5814549 27.5169403,79.8592437 43.2216766,79.8592437 L44.7182935,79.8592437 C60.4212587,79.8592437 69.1645124,75.5814549 73.7349502,71.7224831 C77.9325622,68.1776239 79.5026816,64.7658634 79.9498955,63.5351451 C82.0469303,63.4242296 83.9376269,62.3727507 85.3022935,60.3966803 C87.0238458,57.9077366 87.5419055,54.5926944 86.5943433,52.0531732" id="Fill-37" fill="#4E2223"></path>
                        <path d="M92.4298209,30.4826831 C92.3926269,30.3149789 88.7042189,13.7947817 68.6265274,6.27382394 L68.6141294,6.2685 C59.6406269,2.27199296 48.7029254,0.4725 43.7977413,0.4725 C43.7304378,0.4725 43.6693333,0.493795775 43.6179701,0.528401408 C38.8978706,0.726274648 29.5559701,1.98006338 20.7330149,5.75473944 C9.47296517,10.5755704 2.88873632,17.895993 1.6879005,26.9307254 C-0.402049751,42.6310352 2.84711443,50.9816408 2.87810945,51.064162 C2.91618905,51.1582183 2.99589055,51.2256549 3.09153234,51.2513873 C3.1880597,51.278007 3.29167164,51.2540493 3.36960199,51.1928239 C3.37757214,51.1857254 4.40837811,50.3906831 6.95174129,50.3906831 C8.18445771,50.3906831 9.57657711,50.5761338 11.085592,50.9417113 C11.2060299,50.970993 11.3344378,50.9239648 11.4097114,50.8254718 C11.8728657,50.2256408 22.4368557,36.475669 22.5679204,30.0008662 C24.6127065,31.3194296 32.6572438,35.9095563 48.0130647,37.6975141 C48.0263483,37.6992887 48.0422886,37.7019507 48.0546866,37.7019507 C48.2326866,37.6939648 48.3761493,37.5679648 48.3761493,37.3922746 C48.3761493,37.2813592 48.3185871,37.1926268 48.2309154,37.1385 C47.7261393,36.5910211 43.063602,31.498669 44.2582388,28.7133592 C44.3149154,28.5784859 44.4211841,28.477331 44.7683284,28.477331 C46.0001592,28.477331 48.7232935,30.2839225 51.8768159,32.2706408 C57.1698806,35.6087535 63.761194,39.9291338 69.0383184,39.9291338 L69.0480597,39.9291338 C69.2251741,39.9291338 69.3668657,39.6212324 69.3668657,39.4464296 C69.3668657,39.3426127 69.3163881,39.088838 69.242,39.0285 C68.9205373,38.617669 66.8447562,35.8305845 67.6904776,34.0470634 C69.3163881,35.1402465 77.7257811,41.2760915 76.4629552,50.6107394 C76.4479005,50.716331 76.484209,50.8174859 76.5630249,50.8875845 C76.6400697,50.9559085 76.7507662,50.9843028 76.8490647,50.9585704 C76.8703184,50.9532465 79.0045473,50.4190775 81.1547164,50.4190775 C82.579602,50.4190775 84.4375323,50.6639789 85.1760995,51.8272606 C85.2327761,51.9168803 85.3328458,51.973669 85.44,51.973669 C85.452398,51.973669 85.4656816,51.971007 85.4789652,51.9692324 C85.5976318,51.9550352 85.7012438,51.8734014 85.7393234,51.7598239 L85.9872836,51.0242324 C86.0023383,50.9550211 87.6574726,44.3027535 87.5520896,34.3851338 C88.1666766,35.3833732 88.7245871,36.4011338 89.221393,37.4144577 C89.2833831,37.5448944 89.4286169,37.6158803 89.5703085,37.5857113 C89.7093433,37.5555423 89.8147264,37.4357535 89.8209254,37.292007 C89.8297811,37.0755 90.018408,32.0008944 87.2084876,27.6175141 C87.2067164,27.5944437 87.2031741,27.5740352 87.1978607,27.5527394 C88.4518308,27.973331 90.6241393,28.9227676 91.8621692,30.7249225 C91.9462985,30.8500352 92.1065871,30.8952887 92.2429652,30.835838 C92.382,30.7772746 92.4590448,30.6299789 92.4298209,30.4826831" id="Fill-39" fill="#4E2223"></path>
                        <path d="M60.903807,42.9919099 C57.0241154,42.9919099 53.8697075,46.1543324 53.8697075,50.0416986 C53.8697075,53.9290648 57.0241154,57.0923746 60.903807,57.0923746 C64.7852697,57.0923746 67.9405632,53.9290648 67.9405632,50.0416986 C67.9405632,46.1543324 64.7852697,42.9919099 60.903807,42.9919099 M60.903807,58.0258394 C56.5104836,58.0258394 52.9372,54.4446 52.9372,50.0416986 C52.9372,45.6379099 56.5104836,42.0548958 60.903807,42.0548958 C65.2989015,42.0548958 68.8757274,45.6379099 68.8757274,50.0416986 C68.8757274,54.4446 65.2989015,58.0258394 60.903807,58.0258394" id="Fill-41" fill="#4E2223"></path>
                        <path d="M56.6965423,50.0419648 C56.6965423,47.7100775 58.5792687,45.8209648 60.9038955,45.8209648 C63.2320647,45.8209648 65.114791,47.7100775 65.114791,50.0419648 C65.114791,52.3711901 63.2320647,54.2594155 60.9038955,54.2594155 C58.5792687,54.2594155 56.6965423,52.3711901 56.6965423,50.0419648" id="Fill-43" fill="#4E2223"></path>
                        <path d="M59.7155463,46.994362 C59.7155463,47.8683761 60.4231184,48.5773479 61.2945214,48.5773479 C62.1685811,48.5773479 62.8743821,47.8683761 62.8743821,46.994362 C62.8743821,46.1203479 62.1685811,45.4149254 61.2945214,45.4149254 C60.4231184,45.4149254 59.7155463,46.1203479 59.7155463,46.994362" id="Fill-45" fill="#FFFFFF"></path>
                        <path d="M27.9793861,42.9901352 C24.0979234,42.9901352 20.9417443,46.1543324 20.9417443,50.0416986 C20.9417443,53.9281775 24.0979234,57.0923746 27.9793861,57.0923746 C31.858192,57.0923746 35.0126,53.9281775 35.0126,50.0416986 C35.0126,46.1543324 31.858192,42.9901352 27.9793861,42.9901352 M27.9793861,58.0258394 C23.583406,58.0258394 20.0101224,54.4437127 20.0101224,50.0416986 C20.0101224,45.6379099 23.583406,42.0548958 27.9793861,42.0548958 C32.3718239,42.0548958 35.9468786,45.6379099 35.9468786,50.0416986 C35.9468786,54.4437127 32.3718239,58.0258394 27.9793861,58.0258394" id="Fill-47" fill="#4E2223"></path>
                        <path d="M32.1885104,50.0419648 C32.1885104,47.7100775 30.3040129,45.8209648 27.9793861,45.8209648 C25.6521025,45.8209648 23.7702617,47.7100775 23.7702617,50.0419648 C23.7702617,52.3711901 25.6521025,54.2594155 27.9793861,54.2594155 C30.3040129,54.2594155 32.1885104,52.3711901 32.1885104,50.0419648" id="Fill-49" fill="#4E2223"></path>
                        <path d="M29.1703035,46.994362 C29.1703035,47.8683761 28.4609602,48.5773479 27.5895572,48.5773479 C26.7154975,48.5773479 26.0088109,47.8683761 26.0088109,46.994362 C26.0088109,46.1203479 26.7154975,45.4113761 27.5895572,45.4113761 C28.4609602,45.4113761 29.1703035,46.1203479 29.1703035,46.994362" id="Fill-51" fill="#FFFFFF"></path>
                        <path d="M38.6711642,70.958231 C38.9270945,71.1490056 41.3154826,72.8358085 44.9764378,72.8358085 L45.7557413,72.8624282 C49.4087264,72.8624282 51.7944577,71.2022451 52.0565871,71.0123577 C53.9614527,69.005231 54.1784179,63.7247662 54.1979005,61.951893 C51.313592,62.5322028 48.3203582,62.9998225 45.2899303,62.9998225 L45.2872736,62.9998225 C40.9798507,62.9998225 37.7882488,62.2429352 36.5298507,61.9678648 C36.5493333,63.7451746 36.7742687,68.9617521 38.6711642,70.958231 M45.7486567,73.6477099 L45.7300597,73.6477099 L44.278607,73.6477099 L44.278607,73.4888789 C40.7363184,73.4888789 37.8404975,71.6184 37.729801,71.5349915 C37.7182886,71.5216817 37.8723781,71.5784704 37.8564378,71.5651606 C35.2847363,68.9129493 35.5052438,61.4762873 35.5096716,61.1595127 C35.5132139,61.0157662 35.6256816,60.8995268 35.7390348,60.815231 C35.8532736,60.7282732 36.2004179,61.3476254 36.3385672,61.384893 C36.3757612,61.3964282 39.8153234,62.9998225 45.6485871,62.9998225 L45.6450448,62.9998225 C48.1441294,62.9998225 51.7537214,62.0344141 54.7442985,61.3866676 C54.879791,61.3591606 54.9311542,61.0725549 55.0400796,61.1586254 C55.149005,61.2455831 55.1684876,61.2154141 55.173801,61.3556113 C55.1817711,61.6759352 55.2933532,69.1179211 52.7207662,71.7692451 C52.7074826,71.7852169 52.6773731,71.684062 52.6623184,71.6982592 C52.5542786,71.7834423 49.9444975,73.6477099 45.7486567,73.6477099" id="Fill-53" fill="#4E2223"></path>
                        <path d="M36.3084577,63.2590986 C36.3084577,63.627338 40.7469453,65.6619718 45.2199701,65.6619718 L45.1570945,65.6619718 C48.1910647,65.6619718 51.2037811,64.5998451 54.1810746,63.5820845 L54.1979005,62.057662 C52.7969254,62.3336197 48.9269751,62.8491549 44.5770448,62.8491549 C41.5811542,62.8491549 39.8507463,62.5306056 36.3084577,61.9334366 L36.3084577,63.2590986 Z M45.0951045,65.6619718 L45.0933333,65.6619718 C39.5567363,65.6619718 36.0126766,63.9458873 35.8621294,63.8749014 C35.7009552,63.7985915 35.5929154,63.5918451 35.5929154,63.4126056 L35.5955721,61.2271268 C35.5955721,61.079831 35.6646468,60.9325352 35.7788856,60.8455775 C35.8948955,60.7577324 36.0436716,60.7231268 36.1844776,60.7603944 C38.6623085,61.4365352 41.5182786,61.7781549 44.678,61.7781549 C50.0711343,61.7781549 54.5149353,60.762169 54.5565572,60.7515211 C54.6964776,60.7204648 54.8452537,60.7541831 54.9577214,60.8438028 C55.0701891,60.9325352 55.1330647,61.0736197 55.1286368,61.2147042 L55.0746169,63.3833239 C55.0701891,63.5785352 54.9470945,63.8323099 54.7628955,63.8961972 C51.5898905,65.0142254 48.3362985,65.6619718 45.0951045,65.6619718 L45.0951045,65.6619718 Z" id="Fill-55" fill="#4E2223"></path>
                        <path d="M83.3907861,58.2808563 C83.3456219,58.2808563 83.297801,58.2702085 83.2561791,58.2498 C83.0985473,58.1734901 83.0330149,57.9844901 83.107403,57.8283211 C84.0691343,55.8424901 84.2143682,54.4138986 83.5351343,53.5815887 C82.1855224,51.9258423 77.9994229,52.9755465 77.9595721,52.987969 C77.7904279,53.0305606 77.6168557,52.9294056 77.5761194,52.7608141 C77.5353831,52.5904479 77.6345672,52.420969 77.8019403,52.3748282 C77.988796,52.3295746 82.4166567,51.2168704 84.022199,53.182293 C84.8705771,54.220462 84.7501393,55.8753211 83.6741692,58.1033915 C83.6192637,58.216969 83.5076816,58.2808563 83.3907861,58.2808563" id="Fill-57" fill="#4E2223"></path>
                        <path d="M5.08336119,58.2808563 C4.96912239,58.2808563 4.85311244,58.216969 4.79997811,58.1033915 C3.72400796,55.8753211 3.60622687,54.220462 4.45106269,53.182293 C6.0557194,51.2168704 10.4835801,52.3295746 10.672207,52.3748282 C10.8395801,52.420969 10.9414209,52.5904479 10.899799,52.7608141 C10.8555204,52.9311803 10.6854905,53.0305606 10.5163463,52.987969 C10.4720677,52.9773211 6.28862488,51.9276169 4.93989851,53.5815887 C4.26155025,54.4138986 4.40589851,55.8424901 5.36674428,57.8283211 C5.44024677,57.9844901 5.3756,58.1734901 5.22151045,58.2498 C5.17634627,58.2702085 5.13118209,58.2808563 5.08336119,58.2808563" id="Fill-59" fill="#4E2223"></path>
                        <path d="M48.6164935,57.7107507 C48.6200358,57.7054268 48.621807,57.7036521 48.6271204,57.7001028 C46.6000458,55.1774408 42.9886826,55.7453282 41.2848418,57.7560042 C41.2095682,57.8287648 41.1617473,57.9316944 41.1617473,58.0434972 C41.1617473,58.2635535 41.3432896,58.5581451 41.5664537,58.5581451 C41.6700657,58.5581451 41.7639363,58.563469 41.8365532,58.563469 L41.8383244,58.563469 C43.8769114,55.9014972 45.9128418,56.3362859 47.9744537,58.3966521 C47.9797672,58.4037507 47.9859662,58.3531732 47.9930507,58.3576099 C48.0063343,58.3700324 48.0143045,58.3513986 48.0267025,58.3611592 L48.0320159,58.3434127 C48.1046328,58.3948775 48.1896478,58.4277085 48.2888318,58.4277085 C48.5297075,58.4277085 48.7236478,58.2289479 48.7236478,57.9893704 C48.7236478,57.8837789 48.6820259,57.7852859 48.6164935,57.7107507" id="Fill-61" fill="#4E2223"></path>
                    </g>
                </g>
            </g>
        </g>
    </g>
</svg>