<?xml version="1.0" encoding="utf-8"?>
<!-- Generator: Adobe Illustrator 19.1.0, SVG Export Plug-In . SVG Version: 6.00 Build 0)  -->
<svg version="1.1" id="Capa_1" xmlns="http://www.w3.org/2000/svg" xmlns:xlink="http://www.w3.org/1999/xlink" x="0px" y="0px"
	 viewBox="0 0 500 500" style="enable-background:new 0 0 500 500;" xml:space="preserve">
<style type="text/css">
	.st0{fill:#FFB400;}
	.st1{fill:#CB7000;}
	.st2{filter:url(#Adobe_OpacityMaskFilter);}
	.st3{opacity:0.3;mask:url(#SVGID_1_);}
	.st4{fill:#FFCC00;}
	.st5{filter:url(#Adobe_OpacityMaskFilter_1_);}
	.st6{opacity:0.3;mask:url(#SVGID_2_);}
</style>
<g>
	<g>
		<g>
			<path class="st0" d="M262.4,361.3c-10.7,0-20.9-2.3-28.7-6.4l-12.7-6.7l-8.1-4.3c-4-2.2-6.5-5.5-7-9.4c-0.1-0.5,0-1,0-1.4
				c0-0.2,0-0.4,0-0.5v-27.5c-0.2-0.6-0.3-1.1-0.4-1.6c-0.1-0.8-0.1-1.7,0-2.5c-1.2-0.9-2.4-1.7-3.7-2.4c-7.9-4.2-18.6-6.4-30-6.4
				c-9.5,0-18.7,1.6-26.6,4.6c-0.1,0-0.2,0.1-0.3,0.1c-3.3,1.3-7,2-10.8,2c-4.2,0-8.1-0.8-11.4-2.3c-0.2,0-0.3-0.1-0.5-0.2l-0.6-0.4
				l-20.7-10.9c-9.5-5-14.8-12.2-15.1-20.3c0-0.3,0-0.7,0-1c0-0.2,0-0.4,0-0.6v-28.1c0-0.5-0.1-0.9-0.1-1.4
				c-0.3-8.1,4.6-15.7,13.7-21.3l104.8-64.8c8.8-5.4,21-8.5,33.5-8.5c10.7,0,20.9,2.3,28.7,6.4l21.1,11.1c1.9,0.9,4.5,1.5,7.2,1.5
				c2.5,0,4.9-0.4,6.9-1.2c0,0,0.2-0.1,0.4-0.2c9.2-3.5,19.7-5.4,30.5-5.4c13,0,25.4,2.8,34.9,7.8c10.2,5.3,16.5,13,17.8,21.5
				c0.4,2.8,0.3,5.6-0.4,8.4v18.8l14.4,7.6c9.5,5,14.8,12.2,15.1,20.3c0,0.8,0,1.6,0,2.3c0,0.8,0,1.6,0,2.2c0,0,0,0.1,0,0.1v26.4
				c-0.3,8.6-5,16-13.7,21.4l-104.8,64.8C287.1,358.2,274.9,361.3,262.4,361.3z"/>
			<path class="st1" d="M237.8,140.5c10.5,0,20.4,2.2,28,6.2l12.8,6.7l8,4.2l0.1,0l0.1,0l0.1,0c2.1,1,4.9,1.6,7.9,1.6
				c2.6,0,5.3-0.5,7.5-1.3c0.1-0.1,0.2-0.1,0.4-0.2c9-3.4,19.3-5.3,29.9-5.3c0,0,0,0,0,0c12.7,0,24.9,2.7,34.2,7.6
				c9.7,5.1,15.8,12.4,17.1,20.4c0.4,2.7,0.3,5.4-0.4,8v19.9l6,3.1l9.2,4.8c9,4.7,14.1,11.5,14.3,19.1c0.1,1.6-0.1,3.2,0,4.6v26.4
				c-0.2,7.8-4.3,14.8-13,20.1l-41.5,25.7l-21.8,13.5l-41.5,25.7c-8.6,5.3-20.5,8.3-32.7,8.3c-10.5,0-20.4-2.2-28-6.2l-12.7-6.7
				l-8.1-4.3c-3.7-2-5.8-4.9-6.2-8.2c-0.1-0.6,0-1.2,0-1.7v-27.7c-0.2-0.5-0.3-1.1-0.4-1.6c-0.1-1-0.1-2,0.1-3
				c-1.4-1-2.9-2.2-4.6-3.1c-8.3-4.3-19.2-6.6-30.7-6.6c-9.7,0-19.1,1.6-27.2,4.7c-0.1,0-0.2,0.1-0.3,0.1c-3.1,1.2-6.6,1.9-10.3,1.9
				c-4,0-7.8-0.8-10.9-2.3l-0.2,0l-0.6-0.4l0,0l-11.5-6.1l-9.2-4.8c-9-4.7-14-11.5-14.3-19.1c0-0.5,0.1-1,0.1-1.5V235
				c0-0.4-0.1-0.9-0.1-1.3c-0.3-7.6,4.3-14.7,13-20l41.5-25.7l21.8-13.5l41.5-25.7C213.5,143.5,225.5,140.5,237.8,140.5
				 M237.8,137.5c-12.8,0-25.3,3.2-34.3,8.8L161.9,172l-21.8,13.5l-41.5,25.7c-9.6,5.9-14.7,14-14.4,22.7c0,0.4,0,0.9,0.1,1.4v28
				c0,0.2,0,0.3,0,0.5c0,0.3,0,0.7,0,1.2c0.3,8.7,6,16.4,15.9,21.6l9.2,4.8l11.4,6l0.5,0.3c0.2,0.1,0.5,0.3,0.8,0.3
				c3.4,1.6,7.5,2.4,11.9,2.4c4,0,8-0.7,11.4-2.1c0.1-0.1,0.2-0.1,0.3-0.1c7.8-3,16.8-4.5,26-4.5c11.2,0,21.7,2.2,29.3,6.3
				c1,0.5,1.9,1.1,2.8,1.8c0,0.7,0,1.3,0.1,2c0.1,0.5,0.2,1.1,0.4,1.7v27.3c0,0.1,0,0.3,0,0.4c0,0.5-0.1,1,0,1.7
				c0.6,4.4,3.3,8.1,7.8,10.5l8.1,4.3l12.7,6.7c8,4.2,18.5,6.6,29.4,6.6c12.8,0,25.3-3.2,34.3-8.8l41.5-25.7l21.8-13.5l41.5-25.7
				c9.1-5.6,14.1-13.5,14.4-22.6c0,0,0-0.1,0-0.1v-26.4c0-0.1,0-0.2,0-0.3c0-0.5,0-1.3,0-2c0-0.7,0-1.5,0-2.4
				c-0.3-8.7-6-16.4-15.9-21.6l-9.2-4.8l-4.4-2.3V189c0.7-2.9,0.8-5.9,0.3-8.8c-1.4-9-8-17-18.6-22.6c-9.7-5.1-22.4-7.9-35.6-7.9
				c-11,0-21.7,1.9-31,5.5c-0.2,0.1-0.3,0.1-0.4,0.2c-1.8,0.7-4,1.1-6.3,1.1c-2.5,0-4.9-0.5-6.5-1.3l-0.1,0l-0.1,0l-0.1-0.1l-8-4.2
				l-12.8-6.7C259.1,139.8,248.7,137.5,237.8,137.5L237.8,137.5z"/>
		</g>
		<defs>
			<filter id="Adobe_OpacityMaskFilter" filterUnits="userSpaceOnUse" x="84.2" y="137.5" width="331.6" height="225.3">
				
					<feColorMatrix  type="matrix" values="-1 0 0 0 1  0 -1 0 0 1  0 0 -1 0 1  0 0 0 1 0" color-interpolation-filters="sRGB" result="source"/>
			</filter>
		</defs>
		<mask maskUnits="userSpaceOnUse" x="84.2" y="137.5" width="331.6" height="225.3" id="SVGID_1_">
			<g class="st2">
				
					<image style="overflow:visible;" width="337" height="230" xlink:href="CABC3207AAF92F74.jpg"  transform="matrix(1 0 0 1 81.2605 135.5)">
				</image>
			</g>
		</mask>
		<g class="st3">
			<path d="M262.4,361.3c-10.7,0-20.9-2.3-28.7-6.4l-12.7-6.7l-8.1-4.3c-4-2.2-6.5-5.5-7-9.4c-0.1-0.5,0-1,0-1.4c0-0.2,0-0.4,0-0.5
				v-27.5c-0.2-0.6-0.3-1.1-0.4-1.6c-0.1-0.8-0.1-1.7,0-2.5c-1.2-0.9-2.4-1.7-3.7-2.4c-7.9-4.2-18.6-6.4-30-6.4
				c-9.5,0-18.7,1.6-26.6,4.6c-0.1,0-0.2,0.1-0.3,0.1c-3.3,1.3-7,2-10.8,2c-4.2,0-8.1-0.8-11.4-2.3c-0.2,0-0.3-0.1-0.5-0.2l-0.6-0.4
				l-20.7-10.9c-9.5-5-14.8-12.2-15.1-20.3c0-0.3,0-0.7,0-1c0-0.2,0-0.4,0-0.6v-28.1c0-0.5-0.1-0.9-0.1-1.4
				c-0.3-8.1,4.6-15.7,13.7-21.3l104.8-64.8c8.8-5.4,21-8.5,33.5-8.5c10.7,0,20.9,2.3,28.7,6.4l21.1,11.1c1.9,0.9,4.5,1.5,7.2,1.5
				c2.5,0,4.9-0.4,6.9-1.2c0,0,0.2-0.1,0.4-0.2c9.2-3.5,19.7-5.4,30.5-5.4c13,0,25.4,2.8,34.9,7.8c10.2,5.3,16.5,13,17.8,21.5
				c0.4,2.8,0.3,5.6-0.4,8.4v18.8l14.4,7.6c9.5,5,14.8,12.2,15.1,20.3c0,0.8,0,1.6,0,2.3c0,0.8,0,1.6,0,2.2c0,0,0,0.1,0,0.1v26.4
				c-0.3,8.6-5,16-13.7,21.4l-104.8,64.8C287.1,358.2,274.9,361.3,262.4,361.3z"/>
			<path d="M237.8,140.5c10.5,0,20.4,2.2,28,6.2l12.8,6.7l8,4.2l0.1,0l0.1,0l0.1,0c2.1,1,4.9,1.6,7.9,1.6c2.6,0,5.3-0.5,7.5-1.3
				c0.1-0.1,0.2-0.1,0.4-0.2c9-3.4,19.3-5.3,29.9-5.3c0,0,0,0,0,0c12.7,0,24.9,2.7,34.2,7.6c9.7,5.1,15.8,12.4,17.1,20.4
				c0.4,2.7,0.3,5.4-0.4,8v19.9l6,3.1l9.2,4.8c9,4.7,14.1,11.5,14.3,19.1c0.1,1.6-0.1,3.2,0,4.6v26.4c-0.2,7.8-4.3,14.8-13,20.1
				l-41.5,25.7l-21.8,13.5l-41.5,25.7c-8.6,5.3-20.5,8.3-32.7,8.3c-10.5,0-20.4-2.2-28-6.2l-12.7-6.7l-8.1-4.3
				c-3.7-2-5.8-4.9-6.2-8.2c-0.1-0.6,0-1.2,0-1.7v-27.7c-0.2-0.5-0.3-1.1-0.4-1.6c-0.1-1-0.1-2,0.1-3c-1.4-1-2.9-2.2-4.6-3.1
				c-8.3-4.3-19.2-6.6-30.7-6.6c-9.7,0-19.1,1.6-27.2,4.7c-0.1,0-0.2,0.1-0.3,0.1c-3.1,1.2-6.6,1.9-10.3,1.9c-4,0-7.8-0.8-10.9-2.3
				l-0.2,0l-0.6-0.4l0,0l-11.5-6.1l-9.2-4.8c-9-4.7-14-11.5-14.3-19.1c0-0.5,0.1-1,0.1-1.5V235c0-0.4-0.1-0.9-0.1-1.3
				c-0.3-7.6,4.3-14.7,13-20l41.5-25.7l21.8-13.5l41.5-25.7C213.5,143.5,225.5,140.5,237.8,140.5 M237.8,137.5
				c-12.8,0-25.3,3.2-34.3,8.8L161.9,172l-21.8,13.5l-41.5,25.7c-9.6,5.9-14.7,14-14.4,22.7c0,0.4,0,0.9,0.1,1.4v28
				c0,0.2,0,0.3,0,0.5c0,0.3,0,0.7,0,1.2c0.3,8.7,6,16.4,15.9,21.6l9.2,4.8l11.4,6l0.5,0.3c0.2,0.1,0.5,0.3,0.8,0.3
				c3.4,1.6,7.5,2.4,11.9,2.4c4,0,8-0.7,11.4-2.1c0.1-0.1,0.2-0.1,0.3-0.1c7.8-3,16.8-4.5,26-4.5c11.2,0,21.7,2.2,29.3,6.3
				c1,0.5,1.9,1.1,2.8,1.8c0,0.7,0,1.3,0.1,2c0.1,0.5,0.2,1.1,0.4,1.7v27.3c0,0.1,0,0.3,0,0.4c0,0.5-0.1,1,0,1.7
				c0.6,4.4,3.3,8.1,7.8,10.5l8.1,4.3l12.7,6.7c8,4.2,18.5,6.6,29.4,6.6c12.8,0,25.3-3.2,34.3-8.8l41.5-25.7l21.8-13.5l41.5-25.7
				c9.1-5.6,14.1-13.5,14.4-22.6c0,0,0-0.1,0-0.1v-26.4c0-0.1,0-0.2,0-0.3c0-0.5,0-1.3,0-2c0-0.7,0-1.5,0-2.4
				c-0.3-8.7-6-16.4-15.9-21.6l-9.2-4.8l-4.4-2.3V189c0.7-2.9,0.8-5.9,0.3-8.8c-1.4-9-8-17-18.6-22.6c-9.7-5.1-22.4-7.9-35.6-7.9
				c-11,0-21.7,1.9-31,5.5c-0.2,0.1-0.3,0.1-0.4,0.2c-1.8,0.7-4,1.1-6.3,1.1c-2.5,0-4.9-0.5-6.5-1.3l-0.1,0l-0.1,0l-0.1-0.1l-8-4.2
				l-12.8-6.7C259.1,139.8,248.7,137.5,237.8,137.5L237.8,137.5z"/>
		</g>
	</g>
	<path class="st0" d="M412.3,266.5v-31h-11v13.2c-1-0.5-1.7-0.9-2.6-1.4l-9.3-4.8l-11.6-6.1c-1.5-0.8-2.6-1.8-2.7-2.7
		c-0.1-0.8,0.6-1.7,1.1-2.1l0.1-0.1l-0.2-0.1c5.6-5.7,8.3-12.4,7.3-19.1v-29.9h-13v11c-1-0.9-2.4-1.7-3.9-2.5
		c-9.3-4.9-21.3-7.6-34-7.6c-10.6,0-20.9,1.8-29.9,5.3c-0.1,0.1-0.2,0.1-0.3,0.2c-2.2,0.8-4.8,1.3-7.4,1.3c-3,0-5.8-0.6-7.9-1.6
		l-0.1,0l-0.1,0l-0.1,0l-8-4.2l-12.8-6.7c-7.6-4-17.5-6.2-28-6.2c-12.3,0-24.2,3-32.8,8.3l-41.5,25.7l-21.8,13.5l-41.5,25.7
		c-0.4,0.2-1,0.4-1,0.7v-12.5h-12v30.4c0,0.5,0,1,0,1.5c0.3,7.6,5.4,14.3,14.3,19.1l9.2,4.8l11.5,6.1l0,0l0.6,0.4l0.2,0
		c3.1,1.5,6.9,2.3,10.9,2.3c3.6,0,7.2-0.6,10.3-1.9c0.1,0,0.2-0.1,0.3-0.1c8.1-3.1,17.5-4.7,27.2-4.7c11.6,0,22.5,2.3,30.7,6.6
		c2.7,1.4,5,3.6,7,4.6h-2.2v30.8c0,0.6-0.1,1.2,0,1.7c0.4,3.3,2.6,6.2,6.3,8.2l8.1,4.3l12.7,6.7c7.6,4,17.5,6.2,28,6.2
		c12.3,0,24.2-3,32.7-8.3l41.5-25.7l21.8-13.5l41.5-25.7C408.5,281,413.3,274.1,412.3,266.5L412.3,266.5z"/>
	<g>
		<path class="st4" d="M398.5,216.2l-9.2-4.8l-11.6-6.1c-1.5-0.8-2.5-1.8-2.7-2.7c-0.1-0.8,0.6-1.7,1.1-2.1l0.1-0.1l0.1-0.1
			c5.9-6,8.5-13.1,7.4-20.1c-1.3-8-7.3-15.2-17.1-20.4c-9.3-4.9-21.4-7.6-34.2-7.6c-10.6,0-21,1.8-30,5.3c-0.1,0.1-0.2,0.1-0.4,0.2
			c-2.2,0.8-4.8,1.3-7.5,1.3c-3,0-5.8-0.6-7.9-1.6l-0.1,0l-0.1,0l-0.1,0l-8-4.2l-12.8-6.7c-7.6-4-17.5-6.2-28-6.2
			c-12.3,0-24.2,3-32.8,8.3l-41.5,25.7l-21.8,13.5l-41.5,25.7c-8.6,5.3-13.2,12.4-13,20c0.3,7.6,5.4,14.3,14.3,19.1l9.2,4.8
			l11.5,6.1l0,0l0.6,0.4l0.2,0c3.1,1.5,6.9,2.3,10.9,2.3c3.6,0,7.2-0.6,10.3-1.9c0.1,0,0.2-0.1,0.3-0.1c8.1-3.1,17.5-4.7,27.2-4.7
			c11.6,0,22.5,2.4,30.7,6.7c7.6,4,12.3,9.3,13.2,14.9c0.7,4.6-1.1,9.3-5.3,13.6c-2.5,2.4-3.7,5.4-3.3,8.4c0.4,3.3,2.7,6.2,6.4,8.2
			l8.2,4.3l12.8,6.7c7.6,4,17.6,6.2,28,6.2c12.3,0,24.2-3,32.8-8.3l41.5-25.7l21.8-13.5l41.5-25.7c8.6-5.3,13.2-12.4,13-20
			C412.6,227.7,407.5,220.9,398.5,216.2z"/>
		<g>
			<g>
				<path class="st0" d="M296.5,201.1l-48.5,1.7c-4.2,0.1-7.5,2.2-7.4,4.6c0.1,2.4,3.5,4.2,7.7,4.1l30.3-1.1l-50.3,31.1
					c-2.9,1.8-2.8,4.5,0.2,6.1c3,1.6,7.8,1.4,10.7-0.4l50.3-31.1l0.6,17.3c0.1,2.4,3.5,4.2,7.7,4.1c2.1-0.1,4-0.6,5.3-1.5
					c1.3-0.8,2.1-1.9,2.1-3.1l-1-27.7C304.2,202.8,300.7,201,296.5,201.1"/>
			</g>
			<defs>
				<filter id="Adobe_OpacityMaskFilter_1_" filterUnits="userSpaceOnUse" x="226.2" y="201.1" width="79" height="47.6">
					
						<feColorMatrix  type="matrix" values="-1 0 0 0 1  0 -1 0 0 1  0 0 -1 0 1  0 0 0 1 0" color-interpolation-filters="sRGB" result="source"/>
				</filter>
			</defs>
			<mask maskUnits="userSpaceOnUse" x="226.2" y="201.1" width="79" height="47.6" id="SVGID_2_">
				<g class="st5">
					
						<image style="overflow:visible;" width="84" height="53" xlink:href="CABC3207AAF92F73.jpg"  transform="matrix(1 0 0 1 223.2605 198.5)">
					</image>
				</g>
			</mask>
			<g class="st6">
				<path d="M296.5,201.1l-48.5,1.7c-4.2,0.1-7.5,2.2-7.4,4.6c0.1,2.4,3.5,4.2,7.7,4.1l30.3-1.1l-50.3,31.1
					c-2.9,1.8-2.8,4.5,0.2,6.1c3,1.6,7.8,1.4,10.7-0.4l50.3-31.1l0.6,17.3c0.1,2.4,3.5,4.2,7.7,4.1c2.1-0.1,4-0.6,5.3-1.5
					c1.3-0.8,2.1-1.9,2.1-3.1l-1-27.7C304.2,202.8,300.7,201,296.5,201.1"/>
			</g>
		</g>
	</g>
</g>
</svg>
