<svg id="Capa_1" xmlns="http://www.w3.org/2000/svg" viewBox="0 0 20 20"><style>.st0{fill:#1e1e24}</style><path class="st0" d="M16.3.5H3.7C2 .5.5 1.9.5 3.7v12.7c0 1.7 1.4 3.2 3.2 3.2h12.7c1.8 0 3.2-1.4 3.2-3.2V3.7C19.5 1.9 18.1.5 16.3.5zM16 6.8v.4c0 4.2-3.1 9-8.9 9-1.8 0-3.4-.5-4.8-1.4H3c1.5 0 2.8-.5 3.9-1.4-1.4 0-2.5-.9-2.9-2.2.2 0 .4.1.6.1.3 0 .6 0 .8-.1C4.1 11 3 9.7 3 8.2c.4.2.9.4 1.4.4C3.6 8 3 7 3 5.9c0-.6.2-1.1.4-1.6C5 6.2 7.3 7.5 9.9 7.6c-.1-.2-.1-.5-.1-.7 0-1.8 1.4-3.2 3.1-3.2.9 0 1.7.4 2.3 1 .7-.1 1.4-.4 2-.8-.2.7-.7 1.4-1.4 1.8.6-.1 1.2-.3 1.8-.5-.4.6-.9 1.2-1.6 1.6z"/></svg>