<?xml version="1.0" encoding="utf-8"?>
<!-- Generator: Adobe Illustrator 19.1.0, SVG Export Plug-In . SVG Version: 6.00 Build 0)  -->
<svg version="1.1" id="Capa_1" xmlns="http://www.w3.org/2000/svg" xmlns:xlink="http://www.w3.org/1999/xlink" x="0px" y="0px"
	 viewBox="0 0 1280 443" style="enable-background:new 0 0 1280 443;" xml:space="preserve">
<style type="text/css">
	.st0{fill:#33BE33;}
	.st1{filter:url(#Adobe_OpacityMaskFilter);}
	.st2{opacity:0.3;mask:url(#SVGID_1_);}
	.st3{fill:#33CC33;}
	.st4{fill:none;}
	.st5{filter:url(#Adobe_OpacityMaskFilter_1_);}
	.st6{opacity:0.3;mask:url(#SVGID_2_);}
	.st7{fill:#222220;}
	.st8{filter:url(#Adobe_OpacityMaskFilter_2_);}
	.st9{opacity:0.3;mask:url(#SVGID_3_);}
	.st10{filter:url(#Adobe_OpacityMaskFilter_3_);}
	.st11{opacity:0.3;mask:url(#SVGID_4_);}
	.st12{filter:url(#Adobe_OpacityMaskFilter_4_);}
	.st13{opacity:0.3;mask:url(#SVGID_5_);}
	.st14{filter:url(#Adobe_OpacityMaskFilter_5_);}
	.st15{opacity:0.3;mask:url(#SVGID_6_);}
	.st16{fill:#B23333;}
	.st17{fill:#BE3333;}
	.st18{fill:#CC3333;}
	.st19{fill:#9F161D;}
	.st20{fill:#9C3333;}
	.st21{opacity:0.5;}
	.st22{fill:#FFFFFF;}
	.st23{opacity:0.5;fill:#FFFFFF;}
	.st24{opacity:0.5;fill:#FFB400;}
	.st25{filter:url(#Adobe_OpacityMaskFilter_6_);}
	.st26{opacity:0.3;mask:url(#SVGID_7_);}
	.st27{fill:#F2F2F2;}
	.st28{filter:url(#Adobe_OpacityMaskFilter_7_);}
	.st29{opacity:0.3;mask:url(#SVGID_8_);}
	.st30{filter:url(#Adobe_OpacityMaskFilter_8_);}
	.st31{opacity:0.3;mask:url(#SVGID_9_);}
	.st32{filter:url(#Adobe_OpacityMaskFilter_9_);}
	.st33{opacity:0.3;mask:url(#SVGID_10_);}
	.st34{fill:#FFB400;}
	.st35{filter:url(#Adobe_OpacityMaskFilter_10_);}
	.st36{opacity:0.3;mask:url(#SVGID_11_);}
	.st37{filter:url(#Adobe_OpacityMaskFilter_11_);}
	.st38{opacity:0.3;mask:url(#SVGID_12_);}
	.st39{filter:url(#Adobe_OpacityMaskFilter_12_);}
	.st40{opacity:0.3;mask:url(#SVGID_13_);}
	.st41{filter:url(#Adobe_OpacityMaskFilter_13_);}
	.st42{opacity:0.3;mask:url(#SVGID_14_);}
</style>
<g>
	<g>
		<g>
			<path class="st0" d="M727.8,649.7c8.3,0,16.6,1.8,22.9,5.5l16.3,9.5c2.2,1.3,3.4,2.5,3.5,4.6h-0.3v20h0.3c0,1-0.6,2.6-2,3.8
				c-0.7,0.7-1.4,1.4-2,2.1c1.9,2.4,4.6,4.6,8,6.6c7.8,4.5,18,6.8,28.2,6.8c7.1,0,14.3-1.1,20.6-3.3c0.1,0,0.1-0.1,0.2-0.1
				c2-0.7,4.2-1.1,6.4-1.1c3,0,6,0.6,8.3,1.9c0.1,0,0.1,0.1,0.2,0.1h0l16.2,9.5c7.2,4.2,10,9.9,9,15.4v15c1.1,5.6-1.8,11.3-9,15.5
				l-85.2,49.4c-0.5,0.3-1,0.6-1.6,0.9c-20.3,10.9-46.2,16.4-72.1,16.4c-27.1,0-54.3-6-75-18c-20.6-12-31-27.5-31-43.2h-0.2v-20h0.2
				c0.3-14.7,9.7-29.7,28.2-41.3c0.5-0.3,1-0.7,1.5-1.1l85.3-49.5C711.3,651.6,719.6,649.7,727.8,649.7 M727.8,645.5
				c-9.4,0-18.3,2.1-25,6L617.5,701c-0.5,0.3-1.1,0.7-1.7,1c-18.9,11.8-29.7,27.4-30.2,43.9c0,0.2-0.1,0.4-0.1,0.6v20.3
				c0,0.2,0.1,0.3,0.1,0.5c0.3,17.7,12.1,34.2,33.2,46.4c20.7,12,48.1,18.6,77.1,18.6c27.5,0,53.8-6,74-16.8c0.7-0.3,1.3-0.7,1.8-1
				l85.1-49.4c8.3-4.8,12.1-12.1,11.1-19.5v-14.3c0.5-8.4-2.8-14.5-11.1-19.4l-16.3-9.5c0,0,0,0-0.1-0.1c0,0,0,0,0,0
				c0,0-0.1,0-0.1-0.1c-2.9-1.6-6.5-2.4-10.3-2.4c-2.8,0-5.5,0.5-7.9,1.3c0,0-0.1,0-0.1,0c-0.1,0-0.1,0-0.2,0.1
				c-5.7,2-12.3,3-19.1,3c-9.9,0-19.2-2.2-26.1-6.2c-1.6-1-3.1-2-4.3-3.1c1.5-1.7,2.2-3.8,2.3-5.9c0-0.1-0.1-0.1-0.1-0.2v-19.7
				c0-0.4,0.1-0.7,0-1c-0.5-2.9-2.3-5.4-5.5-7.2l-16.3-9.5C746.1,647.6,737.2,645.5,727.8,645.5L727.8,645.5z"/>
		</g>
		<defs>
			<filter id="Adobe_OpacityMaskFilter" filterUnits="userSpaceOnUse" x="585.5" y="645.5" width="282.7" height="186.9">
				
					<feColorMatrix  type="matrix" values="-1 0 0 0 1  0 -1 0 0 1  0 0 -1 0 1  0 0 0 1 0" color-interpolation-filters="sRGB" result="source"/>
			</filter>
		</defs>
		<mask maskUnits="userSpaceOnUse" x="585.5" y="645.5" width="282.7" height="186.9" id="SVGID_1_">
			<g class="st1">
				
					<image style="overflow:visible;" width="274" height="183" xlink:href="1E44A650C2B6126D.jpg"  transform="matrix(1.0502 0 0 1.0502 583.3974 643.0596)">
				</image>
			</g>
		</mask>
		<g class="st2">
			<path d="M727.8,649.7c8.3,0,16.6,1.8,22.9,5.5l16.3,9.5c2.2,1.3,3.4,2.5,3.5,4.6h-0.3v20h0.3c0,1-0.6,2.6-2,3.8
				c-0.7,0.7-3.5,1.4-4.1,2.1c1.9,2.4,6.7,4.6,10.1,6.6c7.8,4.5,18,6.8,28.2,6.8c7.1,0,14.3-1.1,20.6-3.3c0.1,0,0.1-0.1,0.2-0.1
				c2-0.7,4.2-1.1,6.4-1.1c3,0,6,0.6,8.3,1.9c0.1,0,0.1,0.1,0.2,0.1h0l16.2,9.5c7.2,4.2,10,10,9.3,15.4l0.3,14.4
				c1,5.6-2.4,11.9-9.6,16.1l-85.2,49.4c-0.5,0.3-1,0.6-1.6,0.9c-20.3,10.9-46.2,16.4-72.1,16.4c-27.1,0-54.3-6-75-18
				c-20.6-12-31-27.5-31-43.2h-0.2v-20h0.2c0.3-14.7,9.7-29.7,28.2-41.3c0.5-0.3,1-0.7,1.5-1.1l85.3-49.5
				C711.3,651.6,719.6,649.7,727.8,649.7 M727.8,645.5c-9.4,0-18.3,2.1-25,6L617.5,701c-0.5,0.3-1.1,0.7-1.7,1
				c-18.9,11.8-29.7,27.4-30.2,43.9c0,0.2-0.1,0.4-0.1,0.6v20.3c0,0.2,0.1,0.3,0.1,0.5c0.3,17.7,12.1,34.2,33.2,46.4
				c20.7,12,48.1,18.6,77.1,18.6c27.5,0,53.8-6,74-16.8c0.7-0.3,1.3-0.7,1.8-1l85.1-49.4c8.3-4.8,12.1-11.6,11.1-19.5v-14.3
				c0.5-9.2-2.8-14.5-11.1-19.4l-16.3-9.5c0,0,0,0-0.1-0.1c0,0,0,0,0,0c0,0-0.1,0-0.1-0.1c-2.9-1.6-6.5-2.4-10.3-2.4
				c-2.8,0-5.5,0.5-7.9,1.3c0,0-0.1,0-0.1,0c-0.1,0-0.1,0-0.2,0.1c-5.7,2-12.3,3-19.1,3c-9.9,0-19.2-2.2-26.1-6.2
				c-1.6-1-3.1-2-4.3-3.1c1.5-1.7,2.2-3.8,2.3-5.9c0-0.1-0.1-0.1-0.1-0.2v-19.7c0-0.4,0.1-0.7,0-1c-0.5-2.9-2.3-5.4-5.5-7.2
				l-16.3-9.5C746.1,647.6,737.2,645.5,727.8,645.5L727.8,645.5z"/>
		</g>
	</g>
	<g>
		<path class="st0" d="M768.3,692.9c3.1-2.7,2.6-6.4-1.6-8.8l-16.3-9.5c-12.6-7.3-33.2-7.3-45.7,0L619.3,724c-0.5,0.3-1,0.6-1.5,0.9
			c-38.6,24.1-37.6,61.8,2.8,85.2c40.5,23.4,105.5,24,147.1,1.6c0.6-0.3,1.1-0.6,1.6-0.9l85.3-49.4c12.6-7.3,12.6-19.5,0-26.8
			l-16.4-9.8h0c-0.1,0-0.1,0.2-0.2,0.2c-4.1-2.2-10.2-2.4-14.8-0.7c-0.1,0-0.1,0.1-0.2,0.1c-15.3,5.4-35.6,4.2-48.8-3.4
			C761,713.4,759,701.8,768.3,692.9z"/>
		<rect x="852.2" y="728" class="st0" width="11.7" height="20.8"/>
		<rect x="758.6" y="669.2" class="st0" width="11.7" height="19.7"/>
		<rect x="589.5" y="746.6" class="st0" width="11.7" height="20.3"/>
		<g>
			<path class="st3" d="M768.3,673.5c3.1-2.7,2.6-6.4-1.6-8.8l-16.3-9.5c-12.6-7.3-33.2-7.3-45.7,0l-85.3,49.4
				c-0.5,0.3-1,0.6-1.5,0.9c-38.6,24.1-37.6,61.8,2.8,85.2c40.5,23.4,105.5,24,147.1,1.6c0.6-0.3,1.1-0.6,1.6-0.9l85.3-49.4
				c12.6-7.3,12.6-19.2,0-26.5l-16.4-9.5h0c-0.1,0-0.1-0.1-0.2-0.1c-4.1-2.2-10.2-2.5-14.8-0.8c-0.1,0-0.1,0.1-0.2,0.1
				c-15.3,5.4-35.6,4.2-48.8-3.5C761,694.1,759,682.4,768.3,673.5z"/>
			<g>
				<path class="st4" d="M704.6,785.3c3.2,4.1,7.7,7.3,11.3,9.6c3.3-0.6,6.5-1.3,9.6-2.1c-5.4-1.1-10.8-2.8-15.9-5.2L704.6,785.3z"
					/>
				<path class="st4" d="M740.1,745.4l16.9,9.1c5.5,2.7,9.9,5.8,12.8,9.2c2.7-5,3.9-10.2,3.6-15.3
					C764.7,745.5,753.3,743.7,740.1,745.4z"/>
				<path class="st4" d="M688.6,778.4l-21.9-9.4c-5.8,1.4-12.3,0.8-17.1-1.5c-4.3-2.1-6.5-5.2-6-8.4l-0.3-0.1
					c-8.6-4.1-13.8-9.9-14.9-16.3c-1-6.4,2.3-12.7,9.3-17.6c14.6-10.2,40.9-11.7,58.5-3.2l35,18.8c14.4-3.4,28.3-3.1,40.2-1.4
					c-3.3-8.5-10.6-16.6-22-23.2c-31.9-18.5-83.7-18.5-115.6,0s-31.9,48.5,0,67c17.5,10.2,41.1,14.7,64,13.7
					C693.6,792,689.3,785.6,688.6,778.4z"/>
				<g>
					<g>
						<path class="st0" d="M731.3,740.6l-35-18.8c-17.6-8.5-43.9-7-58.5,3.2c-7.1,4.9-10.4,11.2-9.3,17.6c1,6.4,6.3,12.2,14.9,16.3
							l0.3,0.1c-0.5,3.2,1.7,6.3,6,8.4c4.8,2.3,11.3,2.9,17.1,1.5l21.9,9.4c0.7,7.2,5,13.6,9.3,18.4c6.1-0.3,12.2-0.9,18.1-2
							c-3.7-2.3-8.1-5.5-11.3-9.6l5.1,2.2c5.1,2.4,10.5,4.2,15.9,5.2c8.7-2.3,16.8-5.5,23.9-9.6c9.7-5.6,16.5-12.3,20.3-19.4
							c-2.9-3.4-7.2-6.5-12.8-9.2l-16.9-9.1c13.2-1.7,24.6,0.2,33.3,2.9c-0.1-3-0.8-6.1-1.9-9C759.6,737.5,745.6,737.2,731.3,740.6z
							 M669.6,764.7c-2,1.1-4.6,1.9-7.4,2c-3.2,0.2-6.3-0.4-8.8-1.6c-5.1-2.5-5.8-6.9-1.6-9.8c2.1-1.4,4.9-2.3,8.2-2.5
							c3.2-0.2,6.3,0.4,8.8,1.6c2.5,1.2,4,2.9,4.3,4.7c0.3,1.9-0.7,3.7-2.7,5.1C670.2,764.4,669.9,764.5,669.6,764.7z M676.9,764.9
							c-0.3-1.9,2.1-3.7,5.4-4.1c7.3-0.7,12.8-4.7,12.1-9c-0.3-1.9,2.1-3.7,5.4-4.1c3.3-0.3,6.3,1,6.6,2.9c0.6,3.9-1.4,7.9-5.8,11.1
							c-0.2,0.1-0.4,0.3-0.6,0.4c-4.3,3-10.2,5-16.6,5.6C680.1,768.1,677.2,766.8,676.9,764.9z M736,766.6c0.6,0.5,1.2,1.1,1.5,1.7
							c0.2,0.3,0.3,0.7,0.2,1c0,0.2,0,0.3-0.2,0.5c-0.1,0.2-0.3,0.3-0.4,0.5c-0.5,0.3-1,0.5-1.7,0.6c-0.6,0.1-1.2,0.1-1.8,0.1
							c-1.2,0-2.3-0.2-3.3-0.5c-0.3-0.1-0.6-0.2-0.9-0.2c0.2,0.2,0.4,0.3,0.6,0.5c0.6,0.5,1.2,1.1,1.5,1.8c0.2,0.3,0.3,0.7,0.2,1.1
							c0,0.4-0.3,0.9-0.7,1.2c-0.5,0.3-1.2,0.5-1.8,0.6c-0.6,0.1-1.3,0.1-1.9,0.1c-1.2-0.1-2.3-0.2-3.4-0.5c0,0,0,0-0.1,0
							c0.2,0.2,0.4,0.4,0.6,0.6c0.3,0.3,0.6,0.7,0.8,1.1c0.2,0.4,0.4,0.8,0.4,1.3c0,0.1,0,0.2,0,0.3c0,0.1-0.1,0.2-0.2,0.4l-0.1,0.2
							l-0.1,0.1l-0.1,0.1l-0.1,0.1l-0.1,0.1l0,0l-0.1,0.1l0,0l-0.1,0c-0.6,0.4-1.5,0.6-2.3,0.6c-0.8,0-1.5-0.1-2.1-0.2
							c-0.6-0.1-1.3-0.2-1.9-0.4c-1.2-0.3-2.3-0.6-3.4-1c-0.5-0.2-1-0.4-1.5-0.6c-0.5-0.2-1-0.5-1.5-0.7c-0.9-0.5-1.9-0.9-2.9-1.4
							c-0.1,0-0.1-0.1,0-0.2c0.1-0.1,0.2-0.1,0.3,0c0,0,0,0,0,0c0.9,0.5,1.9,0.9,2.9,1.4c0.5,0.2,1,0.4,1.5,0.6
							c0.5,0.2,1,0.4,1.6,0.6c1.1,0.3,2.2,0.6,3.3,0.8c0.6,0.1,1.2,0.2,1.7,0.2c0.6,0,1.1,0,1.6-0.1c0.5-0.1,0.8-0.2,1-0.3l0,0l0,0
							l0.1-0.1l0.1-0.1l0,0c0,0,0,0,0,0c0,0,0-0.1,0.1-0.1c0-0.1,0-0.1,0-0.2c0-0.3-0.1-0.6-0.3-0.9c-0.2-0.3-0.4-0.6-0.7-0.9
							c-0.5-0.6-1.2-1.1-2-1.7c-0.4-0.3-0.8-0.5-1.2-0.8c-0.4-0.2-0.9-0.5-1.3-0.7c-0.4-0.2-0.5-0.5-0.1-0.8
							c0.3-0.2,0.9-0.3,1.3-0.1c0,0,0,0,0,0c1.6,0.8,3.3,1.4,5.2,1.9c0.9,0.2,1.9,0.4,2.9,0.4c0.5,0,0.9,0,1.3,0
							c0.4-0.1,0.7-0.2,0.9-0.3c0.3-0.2,0.3-0.3,0.4-0.6c0-0.2,0-0.5-0.1-0.8c-0.2-0.5-0.7-1.1-1.2-1.6c-1.1-1-2.5-1.9-4.1-2.7
							c-0.3-0.1-0.3-0.4-0.1-0.6c0.2-0.2,0.7-0.2,1-0.1l0,0l0,0c1.6,0.8,3.4,1.5,5.3,1.9c1,0.2,1.9,0.4,2.9,0.5c0.5,0,1,0,1.4,0
							c0.4-0.1,0.9-0.2,1.1-0.3c0.2-0.1,0.3-0.3,0.4-0.4c0.1-0.1,0.1-0.2,0.1-0.4c0-0.3,0-0.6-0.2-0.8c-0.2-0.6-0.7-1.1-1.3-1.6
							c-1.1-1-2.6-2-4.2-2.8c-0.1,0-0.1-0.1,0-0.2c0.1-0.1,0.2-0.1,0.3,0C733.2,764.6,734.8,765.5,736,766.6z M725.5,754.5
							c0.4,0.3,0.8,0.6,1.2,0.9c0.7,0.6,1.4,1.3,1.7,2.1c0.2,0.4,0.3,0.8,0.3,1.2c-0.1,0.2-0.1,0.4-0.2,0.7
							c-0.1,0.3-0.3,0.4-0.5,0.5c-0.6,0.4-1.2,0.6-2,0.7c-0.7,0.1-1.4,0.1-2.1,0.1c-1.4,0-2.7-0.3-3.9-0.5c-0.4-0.1-0.8-0.2-1.2-0.3
							c0.3,0.2,0.5,0.4,0.7,0.6c0.7,0.7,1.4,1.4,1.7,2.2c0.2,0.4,0.3,0.8,0.3,1.3c0,0.1-0.1,0.2-0.1,0.3c0,0.1-0.1,0.2-0.2,0.4
							c-0.2,0.3-0.4,0.4-0.5,0.6c-0.1,0.1,0,0-0.1,0.1l0,0l0,0l0,0l-0.1,0l-0.1,0.1l-0.2,0.1c-0.1,0.1-0.3,0.1-0.5,0.2
							c-0.4,0.1-0.7,0.2-1.1,0.3c-0.8,0.1-1.5,0.1-2.2,0.1c-1.4-0.1-2.8-0.3-4-0.6c-0.3-0.1-0.5-0.1-0.7-0.2
							c0.2,0.1,0.3,0.3,0.5,0.4c0.7,0.7,1.3,1.4,1.7,2.2c0.2,0.4,0.3,0.8,0.2,1.3c0,0.4-0.4,1-0.9,1.3c-0.6,0.4-1.3,0.6-2.1,0.7
							c-0.8,0.1-1.5,0.1-2.2,0.1c-1.4-0.1-2.7-0.3-4-0.6c-0.5-0.1-0.9-0.2-1.3-0.4c0.3,0.2,0.6,0.5,0.8,0.7c0.7,0.7,1.3,1.4,1.6,2.1
							c0.2,0.4,0.3,0.8,0.2,1.2c-0.1,0.4-0.4,0.9-0.8,1.2c-0.5,0.3-1.2,0.6-1.9,0.7c-0.7,0.1-1.4,0.1-2.1,0.1
							c-1.4-0.1-2.7-0.3-3.9-0.6c-0.6-0.1-1.2-0.3-1.8-0.5c-0.6-0.2-1.1-0.4-1.7-0.6c-0.5-0.2-1.1-0.4-1.6-0.7
							c-0.5-0.2-1-0.5-1.5-0.7c-0.1-0.1-0.1-0.2,0-0.2c0.1-0.1,0.3-0.1,0.4,0c0.5,0.2,1,0.5,1.6,0.6c0.5,0.2,1.1,0.4,1.6,0.6
							c0.6,0.2,1.1,0.4,1.7,0.5c0.6,0.2,1.1,0.3,1.7,0.4c1.2,0.2,2.4,0.4,3.6,0.5c0.6,0,1.2,0,1.7-0.1c0.5-0.1,1-0.2,1.3-0.5
							c0.4-0.3,0.4-0.5,0.5-0.8c0-0.3,0-0.6-0.2-1c-0.3-0.7-0.9-1.3-1.5-1.9c-1.3-1.2-3.1-2.3-5-3.2l0,0c-0.3-0.2-0.4-0.4-0.1-0.6
							c0.3-0.2,0.8-0.2,1.1-0.1l0,0c1.9,0.9,4.1,1.7,6.4,2.2c1.1,0.3,2.3,0.4,3.5,0.5c0.6,0,1.1,0,1.6-0.1c0.5-0.1,0.9-0.2,1.2-0.4
							c0.3-0.3,0.4-0.4,0.4-0.7c0-0.3,0-0.6-0.2-0.9c-0.3-0.6-0.8-1.3-1.5-1.9c-0.3-0.3-0.7-0.6-1.1-0.9c-0.4-0.3-0.8-0.5-1.2-0.8
							c-0.4-0.3-0.9-0.5-1.3-0.8c-0.4-0.3-0.9-0.5-1.4-0.7c-0.4-0.2-0.5-0.5-0.1-0.8c0.3-0.2,0.9-0.3,1.4-0.1l0,0
							c1.9,0.9,4,1.7,6.3,2.2c1.1,0.3,2.3,0.5,3.4,0.5c0.6,0,1.1,0,1.6-0.1c0.2-0.1,0.5-0.1,0.6-0.2c0.1,0,0.2-0.1,0.3-0.1l0.1-0.1
							l0.1,0l0,0l0,0l0,0l0.2-0.2c0.1-0.1,0.1-0.1,0.1-0.2c0.1-0.1,0.1-0.2,0.1-0.4c0-0.3,0-0.6-0.2-0.9c-0.3-0.6-0.8-1.3-1.5-1.9
							c-1.3-1.2-3-2.3-4.9-3.2c-0.4-0.2-0.4-0.5-0.1-0.7c0.3-0.2,0.8-0.2,1.2-0.1l0,0l0,0c1,0.5,2,0.9,3,1.3
							c0.5,0.2,1.1,0.4,1.6,0.5c0.5,0.2,1.1,0.3,1.7,0.5c1.1,0.3,2.3,0.5,3.5,0.5c0.6,0,1.2,0,1.7-0.1c0.2-0.1,0.5-0.1,0.7-0.2
							c0.1,0,0.2-0.1,0.3-0.1l0.1-0.1l0.1,0l0,0l0,0l0,0c0.2-0.1,0.4-0.3,0.4-0.4c0.1-0.1,0.1-0.3,0.2-0.4c0-0.3,0-0.7-0.2-1
							c-0.3-0.7-0.8-1.3-1.4-2c-0.3-0.3-0.7-0.6-1-0.9c-0.4-0.3-0.8-0.6-1.2-0.9c-0.8-0.5-1.7-1.1-2.7-1.6l0,0
							c-0.1-0.1-0.1-0.2,0-0.2c0.1-0.1,0.3-0.1,0.4,0c1,0.5,2,1,2.9,1.5C724.7,753.9,725.1,754.2,725.5,754.5z M702.4,739.5
							c0.3,2.1-0.7,4.1-3,5.7c-0.3,0.2-0.6,0.4-0.9,0.5c-4.9,2.9-12.7,3.1-18,0.5c-2.8-1.3-4.5-3.2-4.8-5.3c-0.3-2.1,0.7-4.1,3-5.7
							c0.3-0.2,0.6-0.4,0.9-0.5c4.9-2.9,12.7-3.1,18-0.5C700.4,735.6,702.1,737.4,702.4,739.5z M710.7,739.7c0,0.1-0.1,0.2-0.3,0.3
							c-0.2,0.1-0.6,0.2-1,0.2c-0.6-0.1-0.9-0.4-0.8-0.7c1.3-3.2-0.6-6.5-4.9-8.6c-3.9-1.9-9.1-2.5-14-1.5c-0.5,0.1-1.1-0.1-1.3-0.4
							c-0.2-0.3,0.1-0.7,0.7-0.8c5.5-1,11.5-0.4,16,1.8C710,732.3,712.2,736.1,710.7,739.7z"/>
					</g>
					<defs>
						<filter id="Adobe_OpacityMaskFilter_1_" filterUnits="userSpaceOnUse" x="628.3" y="716.3" width="145.1" height="80.5">
							
								<feColorMatrix  type="matrix" values="-1 0 0 0 1  0 -1 0 0 1  0 0 -1 0 1  0 0 0 1 0" color-interpolation-filters="sRGB" result="source"/>
						</filter>
					</defs>
					<mask maskUnits="userSpaceOnUse" x="628.3" y="716.3" width="145.1" height="80.5" id="SVGID_2_">
						<g class="st5">
							
								<image style="overflow:visible;" width="150" height="85" xlink:href="1E44A650C2B6126F.jpg"  transform="matrix(1 0 0 1 626 714)">
							</image>
						</g>
					</mask>
					<g class="st6">
						<path d="M731.3,740.6l-35-18.8c-17.6-8.5-43.9-7-58.5,3.2c-7.1,4.9-10.4,11.2-9.3,17.6c1,6.4,6.3,12.2,14.9,16.3l0.3,0.1
							c-0.5,3.2,1.7,6.3,6,8.4c4.8,2.3,11.3,2.9,17.1,1.5l21.9,9.4c0.7,7.2,5,13.6,9.3,18.4c6.1-0.3,12.2-0.9,18.1-2
							c-3.7-2.3-8.1-5.5-11.3-9.6l5.1,2.2c5.1,2.4,10.5,4.2,15.9,5.2c8.7-2.3,16.8-5.5,23.9-9.6c9.7-5.6,16.5-12.3,20.3-19.4
							c-2.9-3.4-7.2-6.5-12.8-9.2l-16.9-9.1c13.2-1.7,24.6,0.2,33.3,2.9c-0.1-3-0.8-6.1-1.9-9C759.6,737.5,745.6,737.2,731.3,740.6z
							 M669.6,764.7c-2,1.1-4.6,1.9-7.4,2c-3.2,0.2-6.3-0.4-8.8-1.6c-5.1-2.5-5.8-6.9-1.6-9.8c2.1-1.4,4.9-2.3,8.2-2.5
							c3.2-0.2,6.3,0.4,8.8,1.6c2.5,1.2,4,2.9,4.3,4.7c0.3,1.9-0.7,3.7-2.7,5.1C670.2,764.4,669.9,764.5,669.6,764.7z M676.9,764.9
							c-0.3-1.9,2.1-3.7,5.4-4.1c7.3-0.7,12.8-4.7,12.1-9c-0.3-1.9,2.1-3.7,5.4-4.1c3.3-0.3,6.3,1,6.6,2.9c0.6,3.9-1.4,7.9-5.8,11.1
							c-0.2,0.1-0.4,0.3-0.6,0.4c-4.3,3-10.2,5-16.6,5.6C680.1,768.1,677.2,766.8,676.9,764.9z M736,766.6c0.6,0.5,1.2,1.1,1.5,1.7
							c0.2,0.3,0.3,0.7,0.2,1c0,0.2,0,0.3-0.2,0.5c-0.1,0.2-0.3,0.3-0.4,0.5c-0.5,0.3-1,0.5-1.7,0.6c-0.6,0.1-1.2,0.1-1.8,0.1
							c-1.2,0-2.3-0.2-3.3-0.5c-0.3-0.1-0.6-0.2-0.9-0.2c0.2,0.2,0.4,0.3,0.6,0.5c0.6,0.5,1.2,1.1,1.5,1.8c0.2,0.3,0.3,0.7,0.2,1.1
							c0,0.4-0.3,0.9-0.7,1.2c-0.5,0.3-1.2,0.5-1.8,0.6c-0.6,0.1-1.3,0.1-1.9,0.1c-1.2-0.1-2.3-0.2-3.4-0.5c0,0,0,0-0.1,0
							c0.2,0.2,0.4,0.4,0.6,0.6c0.3,0.3,0.6,0.7,0.8,1.1c0.2,0.4,0.4,0.8,0.4,1.3c0,0.1,0,0.2,0,0.3c0,0.1-0.1,0.2-0.2,0.4l-0.1,0.2
							l-0.1,0.1l-0.1,0.1l-0.1,0.1l-0.1,0.1l0,0l-0.1,0.1l0,0l-0.1,0c-0.6,0.4-1.5,0.6-2.3,0.6c-0.8,0-1.5-0.1-2.1-0.2
							c-0.6-0.1-1.3-0.2-1.9-0.4c-1.2-0.3-2.3-0.6-3.4-1c-0.5-0.2-1-0.4-1.5-0.6c-0.5-0.2-1-0.5-1.5-0.7c-0.9-0.5-1.9-0.9-2.9-1.4
							c-0.1,0-0.1-0.1,0-0.2c0.1-0.1,0.2-0.1,0.3,0c0,0,0,0,0,0c0.9,0.5,1.9,0.9,2.9,1.4c0.5,0.2,1,0.4,1.5,0.6
							c0.5,0.2,1,0.4,1.6,0.6c1.1,0.3,2.2,0.6,3.3,0.8c0.6,0.1,1.2,0.2,1.7,0.2c0.6,0,1.1,0,1.6-0.1c0.5-0.1,0.8-0.2,1-0.3l0,0l0,0
							l0.1-0.1l0.1-0.1l0,0c0,0,0,0,0,0c0,0,0-0.1,0.1-0.1c0-0.1,0-0.1,0-0.2c0-0.3-0.1-0.6-0.3-0.9c-0.2-0.3-0.4-0.6-0.7-0.9
							c-0.5-0.6-1.2-1.1-2-1.7c-0.4-0.3-0.8-0.5-1.2-0.8c-0.4-0.2-0.9-0.5-1.3-0.7c-0.4-0.2-0.5-0.5-0.1-0.8
							c0.3-0.2,0.9-0.3,1.3-0.1c0,0,0,0,0,0c1.6,0.8,3.3,1.4,5.2,1.9c0.9,0.2,1.9,0.4,2.9,0.4c0.5,0,0.9,0,1.3,0
							c0.4-0.1,0.7-0.2,0.9-0.3c0.3-0.2,0.3-0.3,0.4-0.6c0-0.2,0-0.5-0.1-0.8c-0.2-0.5-0.7-1.1-1.2-1.6c-1.1-1-2.5-1.9-4.1-2.7
							c-0.3-0.1-0.3-0.4-0.1-0.6c0.2-0.2,0.7-0.2,1-0.1l0,0l0,0c1.6,0.8,3.4,1.5,5.3,1.9c1,0.2,1.9,0.4,2.9,0.5c0.5,0,1,0,1.4,0
							c0.4-0.1,0.9-0.2,1.1-0.3c0.2-0.1,0.3-0.3,0.4-0.4c0.1-0.1,0.1-0.2,0.1-0.4c0-0.3,0-0.6-0.2-0.8c-0.2-0.6-0.7-1.1-1.3-1.6
							c-1.1-1-2.6-2-4.2-2.8c-0.1,0-0.1-0.1,0-0.2c0.1-0.1,0.2-0.1,0.3,0C733.2,764.6,734.8,765.5,736,766.6z M725.5,754.5
							c0.4,0.3,0.8,0.6,1.2,0.9c0.7,0.6,1.4,1.3,1.7,2.1c0.2,0.4,0.3,0.8,0.3,1.2c-0.1,0.2-0.1,0.4-0.2,0.7
							c-0.1,0.3-0.3,0.4-0.5,0.5c-0.6,0.4-1.2,0.6-2,0.7c-0.7,0.1-1.4,0.1-2.1,0.1c-1.4,0-2.7-0.3-3.9-0.5c-0.4-0.1-0.8-0.2-1.2-0.3
							c0.3,0.2,0.5,0.4,0.7,0.6c0.7,0.7,1.4,1.4,1.7,2.2c0.2,0.4,0.3,0.8,0.3,1.3c0,0.1-0.1,0.2-0.1,0.3c0,0.1-0.1,0.2-0.2,0.4
							c-0.2,0.3-0.4,0.4-0.5,0.6c-0.1,0.1,0,0-0.1,0.1l0,0l0,0l0,0l-0.1,0l-0.1,0.1l-0.2,0.1c-0.1,0.1-0.3,0.1-0.5,0.2
							c-0.4,0.1-0.7,0.2-1.1,0.3c-0.8,0.1-1.5,0.1-2.2,0.1c-1.4-0.1-2.8-0.3-4-0.6c-0.3-0.1-0.5-0.1-0.7-0.2
							c0.2,0.1,0.3,0.3,0.5,0.4c0.7,0.7,1.3,1.4,1.7,2.2c0.2,0.4,0.3,0.8,0.2,1.3c0,0.4-0.4,1-0.9,1.3c-0.6,0.4-1.3,0.6-2.1,0.7
							c-0.8,0.1-1.5,0.1-2.2,0.1c-1.4-0.1-2.7-0.3-4-0.6c-0.5-0.1-0.9-0.2-1.3-0.4c0.3,0.2,0.6,0.5,0.8,0.7c0.7,0.7,1.3,1.4,1.6,2.1
							c0.2,0.4,0.3,0.8,0.2,1.2c-0.1,0.4-0.4,0.9-0.8,1.2c-0.5,0.3-1.2,0.6-1.9,0.7c-0.7,0.1-1.4,0.1-2.1,0.1
							c-1.4-0.1-2.7-0.3-3.9-0.6c-0.6-0.1-1.2-0.3-1.8-0.5c-0.6-0.2-1.1-0.4-1.7-0.6c-0.5-0.2-1.1-0.4-1.6-0.7
							c-0.5-0.2-1-0.5-1.5-0.7c-0.1-0.1-0.1-0.2,0-0.2c0.1-0.1,0.3-0.1,0.4,0c0.5,0.2,1,0.5,1.6,0.6c0.5,0.2,1.1,0.4,1.6,0.6
							c0.6,0.2,1.1,0.4,1.7,0.5c0.6,0.2,1.1,0.3,1.7,0.4c1.2,0.2,2.4,0.4,3.6,0.5c0.6,0,1.2,0,1.7-0.1c0.5-0.1,1-0.2,1.3-0.5
							c0.4-0.3,0.4-0.5,0.5-0.8c0-0.3,0-0.6-0.2-1c-0.3-0.7-0.9-1.3-1.5-1.9c-1.3-1.2-3.1-2.3-5-3.2l0,0c-0.3-0.2-0.4-0.4-0.1-0.6
							c0.3-0.2,0.8-0.2,1.1-0.1l0,0c1.9,0.9,4.1,1.7,6.4,2.2c1.1,0.3,2.3,0.4,3.5,0.5c0.6,0,1.1,0,1.6-0.1c0.5-0.1,0.9-0.2,1.2-0.4
							c0.3-0.3,0.4-0.4,0.4-0.7c0-0.3,0-0.6-0.2-0.9c-0.3-0.6-0.8-1.3-1.5-1.9c-0.3-0.3-0.7-0.6-1.1-0.9c-0.4-0.3-0.8-0.5-1.2-0.8
							c-0.4-0.3-0.9-0.5-1.3-0.8c-0.4-0.3-0.9-0.5-1.4-0.7c-0.4-0.2-0.5-0.5-0.1-0.8c0.3-0.2,0.9-0.3,1.4-0.1l0,0
							c1.9,0.9,4,1.7,6.3,2.2c1.1,0.3,2.3,0.5,3.4,0.5c0.6,0,1.1,0,1.6-0.1c0.2-0.1,0.5-0.1,0.6-0.2c0.1,0,0.2-0.1,0.3-0.1l0.1-0.1
							l0.1,0l0,0l0,0l0,0l0.2-0.2c0.1-0.1,0.1-0.1,0.1-0.2c0.1-0.1,0.1-0.2,0.1-0.4c0-0.3,0-0.6-0.2-0.9c-0.3-0.6-0.8-1.3-1.5-1.9
							c-1.3-1.2-3-2.3-4.9-3.2c-0.4-0.2-0.4-0.5-0.1-0.7c0.3-0.2,0.8-0.2,1.2-0.1l0,0l0,0c1,0.5,2,0.9,3,1.3
							c0.5,0.2,1.1,0.4,1.6,0.5c0.5,0.2,1.1,0.3,1.7,0.5c1.1,0.3,2.3,0.5,3.5,0.5c0.6,0,1.2,0,1.7-0.1c0.2-0.1,0.5-0.1,0.7-0.2
							c0.1,0,0.2-0.1,0.3-0.1l0.1-0.1l0.1,0l0,0l0,0l0,0c0.2-0.1,0.4-0.3,0.4-0.4c0.1-0.1,0.1-0.3,0.2-0.4c0-0.3,0-0.7-0.2-1
							c-0.3-0.7-0.8-1.3-1.4-2c-0.3-0.3-0.7-0.6-1-0.9c-0.4-0.3-0.8-0.6-1.2-0.9c-0.8-0.5-1.7-1.1-2.7-1.6l0,0
							c-0.1-0.1-0.1-0.2,0-0.2c0.1-0.1,0.3-0.1,0.4,0c1,0.5,2,1,2.9,1.5C724.7,753.9,725.1,754.2,725.5,754.5z M702.4,739.5
							c0.3,2.1-0.7,4.1-3,5.7c-0.3,0.2-0.6,0.4-0.9,0.5c-4.9,2.9-12.7,3.1-18,0.5c-2.8-1.3-4.5-3.2-4.8-5.3c-0.3-2.1,0.7-4.1,3-5.7
							c0.3-0.2,0.6-0.4,0.9-0.5c4.9-2.9,12.7-3.1,18-0.5C700.4,735.6,702.1,737.4,702.4,739.5z M710.7,739.7c0,0.1-0.1,0.2-0.3,0.3
							c-0.2,0.1-0.6,0.2-1,0.2c-0.6-0.1-0.9-0.4-0.8-0.7c1.3-3.2-0.6-6.5-4.9-8.6c-3.9-1.9-9.1-2.5-14-1.5c-0.5,0.1-1.1-0.1-1.3-0.4
							c-0.2-0.3,0.1-0.7,0.7-0.8c5.5-1,11.5-0.4,16,1.8C710,732.3,712.2,736.1,710.7,739.7z"/>
					</g>
				</g>
				<path class="st7" d="M723.4,778.5L723.4,778.5C723.5,778.5,723.5,778.5,723.4,778.5z"/>
				<g>
					<g>
						<path class="st0" d="M683.8,737.7c-0.7,0.5-0.5,1.1,0.2,1.5l7.6,3.7c0.8,0.4,2,0.3,2.6-0.1c0.7-0.5,0.5-1.1-0.2-1.5l-7.6-3.7
							C685.6,737.2,684.5,737.3,683.8,737.7z"/>
					</g>
					<defs>
						<filter id="Adobe_OpacityMaskFilter_2_" filterUnits="userSpaceOnUse" x="683.4" y="737.3" width="11.3" height="5.8">
							
								<feColorMatrix  type="matrix" values="-1 0 0 0 1  0 -1 0 0 1  0 0 -1 0 1  0 0 0 1 0" color-interpolation-filters="sRGB" result="source"/>
						</filter>
					</defs>
					<mask maskUnits="userSpaceOnUse" x="683.4" y="737.3" width="11.3" height="5.8" id="SVGID_3_">
						<g class="st8">
							
								<image style="overflow:visible;" width="16" height="11" xlink:href="1E44A650C2B6126A.jpg"  transform="matrix(1 0 0 1 681 735)">
							</image>
						</g>
					</mask>
					<g class="st9">
						<path d="M683.8,737.7c-0.7,0.5-0.5,1.1,0.2,1.5l7.6,3.7c0.8,0.4,2,0.3,2.6-0.1c0.7-0.5,0.5-1.1-0.2-1.5l-7.6-3.7
							C685.6,737.2,684.5,737.3,683.8,737.7z"/>
					</g>
				</g>
				<g>
					<g>
						<path class="st0" d="M655.4,757.7c-0.7,0.5-0.5,1.1,0.2,1.5l7.6,3.7c0.8,0.4,2,0.3,2.6-0.1c0.7-0.5,0.5-1.1-0.2-1.5l-7.6-3.7
							C657.2,757.1,656,757.2,655.4,757.7z"/>
					</g>
					<defs>
						<filter id="Adobe_OpacityMaskFilter_3_" filterUnits="userSpaceOnUse" x="655" y="757.3" width="11.3" height="5.8">
							
								<feColorMatrix  type="matrix" values="-1 0 0 0 1  0 -1 0 0 1  0 0 -1 0 1  0 0 0 1 0" color-interpolation-filters="sRGB" result="source"/>
						</filter>
					</defs>
					<mask maskUnits="userSpaceOnUse" x="655" y="757.3" width="11.3" height="5.8" id="SVGID_4_">
						<g class="st10">
							
								<image style="overflow:visible;" width="17" height="11" xlink:href="1E44A650C2B6126B.jpg"  transform="matrix(1 0 0 1 652 755)">
							</image>
						</g>
					</mask>
					<g class="st11">
						<path d="M655.4,757.7c-0.7,0.5-0.5,1.1,0.2,1.5l7.6,3.7c0.8,0.4,2,0.3,2.6-0.1c0.7-0.5,0.5-1.1-0.2-1.5l-7.6-3.7
							C657.2,757.1,656,757.2,655.4,757.7z"/>
					</g>
				</g>
				<g>
					<g>
						<path class="st0" d="M683.1,765.5c5.6-0.5,10.5-2.3,14-4.7c3.8-2.7,5.9-6.1,5.3-9.7c-0.1-0.6-1.1-1.1-2.2-1
							c-1.1,0.1-1.9,0.7-1.8,1.4c0.9,5.6-6.1,10.8-15.7,11.7c-1.1,0.1-1.9,0.7-1.8,1.4C681,765.2,682,765.6,683.1,765.5z"/>
					</g>
					<defs>
						<filter id="Adobe_OpacityMaskFilter_4_" filterUnits="userSpaceOnUse" x="680.9" y="750.1" width="21.6" height="15.4">
							
								<feColorMatrix  type="matrix" values="-1 0 0 0 1  0 -1 0 0 1  0 0 -1 0 1  0 0 0 1 0" color-interpolation-filters="sRGB" result="source"/>
						</filter>
					</defs>
					<mask maskUnits="userSpaceOnUse" x="680.9" y="750.1" width="21.6" height="15.4" id="SVGID_5_">
						<g class="st12">
							
								<image style="overflow:visible;" width="27" height="20" xlink:href="1E44A650C2B61275.jpg"  transform="matrix(1 0 0 1 678 748)">
							</image>
						</g>
					</mask>
					<g class="st13">
						<path d="M683.1,765.5c5.6-0.5,10.5-2.3,14-4.7c3.8-2.7,5.9-6.1,5.3-9.7c-0.1-0.6-1.1-1.1-2.2-1c-1.1,0.1-1.9,0.7-1.8,1.4
							c0.9,5.6-6.1,10.8-15.7,11.7c-1.1,0.1-1.9,0.7-1.8,1.4C681,765.2,682,765.6,683.1,765.5z"/>
					</g>
				</g>
			</g>
			<g>
				<g>
					<path class="st0" d="M754.7,784.5c-33.1,19.2-86.9,19.2-119.9,0c-33.1-19.2-33.1-50.3,0-69.5c33.1-19.2,86.9-19.2,119.9,0
						C787.8,734.2,787.8,765.3,754.7,784.5 M639.1,717.5c-30.7,17.8-30.7,46.7,0,64.5c30.7,17.8,80.6,17.8,111.3,0
						c30.7-17.8,30.7-46.7,0-64.5C719.7,699.7,669.8,699.7,639.1,717.5"/>
				</g>
				<defs>
					<filter id="Adobe_OpacityMaskFilter_5_" filterUnits="userSpaceOnUse" x="610" y="700.6" width="169.5" height="98.2">
						
							<feColorMatrix  type="matrix" values="-1 0 0 0 1  0 -1 0 0 1  0 0 -1 0 1  0 0 0 1 0" color-interpolation-filters="sRGB" result="source"/>
					</filter>
				</defs>
				<mask maskUnits="userSpaceOnUse" x="610" y="700.6" width="169.5" height="98.2" id="SVGID_6_">
					<g class="st14">
						
							<image style="overflow:visible;" width="175" height="103" xlink:href="1E44A650C2B61277.jpg"  transform="matrix(1 0 0 1 607 698)">
						</image>
					</g>
				</mask>
				<g class="st15">
					<path d="M754.7,784.5c-33.1,19.2-86.9,19.2-119.9,0c-33.1-19.2-33.1-50.3,0-69.5c33.1-19.2,86.9-19.2,119.9,0
						C787.8,734.2,787.8,765.3,754.7,784.5 M639.1,717.5c-30.7,17.8-30.7,46.7,0,64.5c30.7,17.8,80.6,17.8,111.3,0
						c30.7-17.8,30.7-46.7,0-64.5C719.7,699.7,669.8,699.7,639.1,717.5"/>
				</g>
			</g>
		</g>
	</g>
</g>
<g>
	<g>
		<path class="st16" d="M1177.2,675.8c-38.1-22.1-99.2-22.8-138.8-2.2c-0.9,0.4-1.7,0.8-2.5,1.3l-0.3,0.2l-64,37.1l-16.9,9.8
			l-32.3,18.7c-12,6.9-12,18.3,0,25.2l15.6,9c3.9,2.3,4.4,5.8,1.5,8.4c-8.8,8.5-6.9,19.6,5.7,26.9c12.6,7.3,31.9,8.4,46.5,3.3
			c0.1,0,0.1-0.1,0.2-0.1c4.4-1.6,10.2-1.2,14.1,1c0.1,0,0.1,0.2,0.2,0.2h0l0.1-0.1c0,0,0-0.1,0-0.1l15.6,9c8.9,5.2,22,6.5,33.1,3.9
			c3.8-0.9,7.4-2.2,10.5-4l32.3-18.7l16.9-9.8l64.3-37.3c0.8-0.5,1.5-0.9,2.2-1.4C1216.6,733.3,1215.4,697.9,1177.2,675.8z"/>
		<polygon class="st17" points="918.2,752.6 913.4,754.5 913.2,736.7 918.2,736.7 		"/>
		<rect x="1203.7" y="701.1" class="st17" width="3" height="18"/>
		<polygon class="st17" points="933.8,777.4 936.8,777.4 936.8,796 934.1,796.5 		"/>
		<g>
			<path class="st18" d="M1177.1,659.2c-38.1-22.1-99.2-22.8-138.8-2.2c-0.9,0.4-1.7,0.8-2.5,1.3l-0.3,0.2l-64,37.1l-16.9,9.8
				L922.2,724c-12,6.9-12,18.3,0,25.2l15.6,9c3.9,2.3,4.4,5.8,1.5,8.4c-8.8,8.5-6.9,19.6,5.7,26.9c12.6,7.3,31.9,8.4,46.5,3.3
				c0.1,0,0.1-0.1,0.2-0.1c4.4-1.6,10.2-1.3,14.1,0.8c0.1,0,0.1,0.1,0.2,0.1h0l0.1,0.1c0,0,0,0,0,0l15.6,9c8.9,5.2,22,6.5,33.1,4
				c3.8-0.9,7.4-2.2,10.5-4l32.3-18.7l16.9-9.8l64.3-37.3c0.8-0.5,1.5-0.9,2.2-1.4C1216.5,716.6,1215.2,681.2,1177.1,659.2z"/>
			<polygon class="st19" points="1026,704.1 1028.2,702.8 1034.9,706.7 1032.7,708 			"/>
			<polygon class="st19" points="1032.7,708 1034.9,706.7 1043.8,711.9 1041.6,713.1 			"/>
			<polygon class="st19" points="1043.8,714.4 1046,713.1 1048.3,714.4 1046,715.7 			"/>
			<polygon class="st19" points="1050.5,718.3 1052.7,717 1057.2,719.6 1054.9,720.9 			"/>
			<polygon class="st19" points="1059.4,723.5 1061.6,722.2 1063.9,723.5 1061.6,724.8 			"/>
			<polygon class="st19" points="1070.5,729.9 1072.8,728.6 1077.2,731.2 1075,732.5 			"/>
			<polygon class="st19" points="1075,732.5 1077.2,731.2 1083.9,735.1 1081.7,736.4 			"/>
			<polygon class="st19" points="1083.9,737.7 1086.1,736.4 1097.3,742.8 1095.1,744.1 			"/>
			<polygon class="st19" points="1095.1,744.1 1097.3,742.8 1101.7,745.4 1099.5,746.7 			"/>
			<polygon class="st19" points="1028.2,702.8 1030.4,701.5 1032.7,702.8 1030.4,704.1 			"/>
			<polygon class="st19" points="1041.6,710.6 1043.8,709.3 1046,710.6 1043.8,711.9 			"/>
			<polygon class="st19" points="1048.3,714.4 1050.5,713.1 1055,715.7 1052.7,717 			"/>
			<polygon class="st19" points="1059.4,720.9 1061.6,719.6 1063.9,720.9 1061.6,722.2 			"/>
			<polygon class="st19" points="1066.1,724.8 1068.3,723.5 1070.5,724.8 1068.3,726.1 			"/>
			<polygon class="st19" points="1075,729.9 1077.2,728.6 1079.5,729.9 1077.2,731.2 			"/>
			<polygon class="st19" points="1086.1,736.4 1088.4,735.1 1090.6,736.4 1088.4,737.7 			"/>
			<polygon class="st19" points="1099.5,744.1 1101.7,742.8 1104,744.1 1101.7,745.4 			"/>
			<polygon class="st19" points="1030.4,701.5 1032.7,700.2 1034.9,701.5 1032.7,702.8 			"/>
			<polygon class="st19" points="1034.9,704.1 1037.1,702.8 1039.4,704.1 1037.1,705.4 			"/>
			<polygon class="st19" points="1037.1,705.4 1039.4,704.1 1043.8,706.7 1041.6,708 			"/>
			<polygon class="st19" points="1043.8,709.3 1046,708 1048.3,709.3 1046,710.6 			"/>
			<polygon class="st19" points="1048.3,711.9 1050.5,710.6 1052.7,711.9 1050.5,713.1 			"/>
			<polygon class="st19" points="1057.2,717 1059.4,715.7 1063.9,718.3 1061.6,719.6 			"/>
			<polygon class="st19" points="1070.5,724.8 1072.8,723.5 1079.5,727.3 1077.2,728.6 			"/>
			<polygon class="st19" points="1083.9,732.5 1086.1,731.2 1088.4,732.5 1086.1,733.8 			"/>
			<polygon class="st19" points="1088.4,735.1 1090.6,733.8 1092.8,735.1 1090.6,736.4 			"/>
			<polygon class="st19" points="1092.8,737.7 1095.1,736.4 1101.7,740.3 1099.5,741.5 			"/>
			<polygon class="st19" points="1101.7,742.8 1104,741.5 1106.2,742.8 1104,744.1 			"/>
			<polygon class="st19" points="1032.7,700.2 1034.9,698.9 1037.1,700.2 1034.9,701.5 			"/>
			<polygon class="st19" points="1037.1,702.8 1039.4,701.5 1041.6,702.8 1039.4,704.1 			"/>
			<polygon class="st19" points="1039.4,704.1 1041.6,702.8 1046,705.4 1043.8,706.7 			"/>
			<polygon class="st19" points="1046,708 1048.3,706.7 1050.5,708 1048.3,709.3 			"/>
			<polygon class="st19" points="1050.5,710.6 1052.7,709.3 1055,710.6 1052.7,711.9 			"/>
			<polygon class="st19" points="1055,713.1 1057.2,711.9 1068.3,718.3 1066.1,719.6 			"/>
			<polygon class="st19" points="1068.3,720.9 1070.6,719.6 1072.8,720.9 1070.5,722.2 			"/>
			<polygon class="st19" points="1072.8,723.5 1075,722.2 1079.5,724.8 1077.2,726.1 			"/>
			<polygon class="st19" points="1081.7,728.6 1083.9,727.3 1088.4,729.9 1086.1,731.2 			"/>
			<polygon class="st19" points="1090.6,733.8 1092.8,732.5 1095.1,733.8 1092.8,735.1 			"/>
			<polygon class="st19" points="1095.1,736.4 1097.3,735.1 1104,739 1101.7,740.3 			"/>
			<polygon class="st19" points="1104,741.5 1106.2,740.3 1108.4,741.5 1106.2,742.8 			"/>
			<polygon class="st19" points="1034.9,698.9 1037.1,697.7 1039.4,698.9 1037.1,700.2 			"/>
			<polygon class="st19" points="1039.4,701.5 1041.6,700.2 1043.8,701.5 1041.6,702.8 			"/>
			<polygon class="st19" points="1041.6,702.8 1043.8,701.5 1048.3,704.1 1046,705.4 			"/>
			<polygon class="st19" points="1048.3,706.7 1050.5,705.4 1052.7,706.7 1050.5,708 			"/>
			<polygon class="st19" points="1052.7,709.3 1055,708 1072.8,718.3 1070.5,719.6 			"/>
			<polygon class="st19" points="1072.8,720.9 1075,719.6 1079.5,722.2 1077.2,723.5 			"/>
			<polygon class="st19" points="1079.5,724.8 1081.7,723.5 1083.9,724.8 1081.7,726.1 			"/>
			<polygon class="st19" points="1086.1,728.6 1088.4,727.3 1090.6,728.6 1088.4,729.9 			"/>
			<polygon class="st19" points="1092.8,732.5 1095.1,731.2 1097.3,732.5 1095.1,733.8 			"/>
			<polygon class="st19" points="1097.3,735.1 1099.5,733.8 1106.2,737.7 1104,739 			"/>
			<polygon class="st19" points="1106.2,740.3 1108.4,739 1110.7,740.3 1108.4,741.5 			"/>
			<polygon class="st19" points="1037.1,697.7 1039.4,696.4 1041.6,697.7 1039.4,698.9 			"/>
			<polygon class="st19" points="1050.5,705.4 1052.7,704.1 1055,705.4 1052.7,706.7 			"/>
			<polygon class="st19" points="1055,708 1057.2,706.7 1066.1,711.9 1063.9,713.1 			"/>
			<polygon class="st19" points="1070.5,717 1072.8,715.7 1081.7,720.9 1079.5,722.2 			"/>
			<polygon class="st19" points="1083.9,724.8 1086.1,723.5 1088.4,724.8 1086.1,726.1 			"/>
			<polygon class="st19" points="1090.6,728.6 1092.8,727.3 1095.1,728.6 1092.8,729.9 			"/>
			<polygon class="st19" points="1095.1,731.2 1097.3,729.9 1099.5,731.2 1097.3,732.5 			"/>
			<polygon class="st19" points="1108.4,739 1110.7,737.7 1112.9,739 1110.7,740.3 			"/>
			<polygon class="st19" points="1039.4,696.4 1041.6,695.1 1048.3,698.9 1046,700.2 			"/>
			<polygon class="st19" points="1046,700.2 1048.3,698.9 1057.2,704.1 1055,705.4 			"/>
			<polygon class="st19" points="1057.2,706.7 1059.4,705.4 1061.6,706.7 1059.4,708 			"/>
			<polygon class="st19" points="1061.6,709.3 1063.9,708 1066.1,709.3 1063.9,710.6 			"/>
			<polygon class="st19" points="1066.1,711.9 1068.3,710.6 1070.5,711.9 1068.3,713.1 			"/>
			<polygon class="st19" points="1070.5,714.4 1072.8,713.1 1075,714.4 1072.8,715.7 			"/>
			<polygon class="st19" points="1075,717 1077.2,715.7 1079.5,717 1077.2,718.3 			"/>
			<polygon class="st19" points="1079.5,719.6 1081.7,718.3 1083.9,719.6 1081.7,720.9 			"/>
			<polygon class="st19" points="1083.9,722.2 1086.1,720.9 1088.4,722.2 1086.1,723.5 			"/>
			<polygon class="st19" points="1088.4,724.8 1090.6,723.5 1092.8,724.8 1090.6,726.1 			"/>
			<polygon class="st19" points="1092.8,727.3 1095.1,726.1 1097.3,727.3 1095.1,728.6 			"/>
			<polygon class="st19" points="1097.3,729.9 1099.5,728.6 1110.7,735.1 1108.4,736.4 			"/>
			<polygon class="st19" points="1108.4,736.4 1110.7,735.1 1115.1,737.7 1112.9,739 			"/>
			<polygon class="st19" points="1063.9,708 1066.1,706.7 1081.7,715.7 1079.5,717 			"/>
			<polygon class="st19" points="1092.8,724.8 1095.1,723.5 1097.3,724.8 1095.1,726.1 			"/>
			<polygon class="st19" points="1048.3,696.4 1050.5,695.1 1052.7,696.4 1050.5,697.7 			"/>
			<polygon class="st19" points="1050.5,697.7 1052.7,696.4 1063.9,702.8 1061.6,704.1 			"/>
			<polygon class="st19" points="1063.9,705.4 1066.1,704.1 1075,709.3 1072.8,710.6 			"/>
			<polygon class="st19" points="1077.2,713.1 1079.5,711.9 1086.1,715.7 1083.9,717 			"/>
			<polygon class="st19" points="1086.1,718.3 1088.4,717 1090.6,718.3 1088.4,719.6 			"/>
			<polygon class="st19" points="1090.6,720.9 1092.8,719.6 1095.1,720.9 1092.8,722.2 			"/>
			<polygon class="st19" points="1092.8,722.2 1095.1,720.9 1099.5,723.5 1097.3,724.8 			"/>
			<polygon class="st19" points="1099.5,726.1 1101.7,724.8 1104,726.1 1101.7,727.3 			"/>
			<polygon class="st19" points="1104,728.6 1106.2,727.3 1115.1,732.5 1112.9,733.8 			"/>
			<polygon class="st19" points="1115.1,735.1 1117.3,733.8 1119.6,735.1 1117.3,736.4 			"/>
			<polygon class="st19" points="1046,692.5 1048.3,691.2 1050.5,692.5 1048.3,693.8 			"/>
			<polygon class="st19" points="1050.5,695.1 1052.7,693.8 1055,695.1 1052.7,696.4 			"/>
			<polygon class="st19" points="1052.7,696.4 1055,695.1 1061.6,698.9 1059.4,700.2 			"/>
			<polygon class="st19" points="1061.6,701.5 1063.9,700.2 1066.1,701.5 1063.9,702.8 			"/>
			<polygon class="st19" points="1075,709.3 1077.2,708 1081.7,710.6 1079.5,711.9 			"/>
			<polygon class="st19" points="1088.4,717 1090.6,715.7 1092.8,717 1090.6,718.3 			"/>
			<polygon class="st19" points="1092.8,719.6 1095.1,718.3 1097.3,719.6 1095.1,720.9 			"/>
			<polygon class="st19" points="1095.1,720.9 1097.3,719.6 1101.7,722.2 1099.5,723.5 			"/>
			<polygon class="st19" points="1101.7,724.8 1104,723.5 1106.2,724.8 1104,726.1 			"/>
			<polygon class="st19" points="1104,726.1 1106.2,724.8 1108.4,726.1 1106.2,727.3 			"/>
			<polygon class="st19" points="1108.4,728.6 1110.7,727.3 1117.3,731.2 1115.1,732.5 			"/>
			<polygon class="st19" points="1115.1,732.5 1117.3,731.2 1121.8,733.8 1119.6,735.1 			"/>
			<polygon class="st19" points="1050.5,692.5 1052.7,691.2 1055,692.5 1052.7,693.8 			"/>
			<polygon class="st19" points="1055,695.1 1057.2,693.8 1061.6,696.4 1059.4,697.7 			"/>
			<polygon class="st19" points="1061.6,698.9 1063.9,697.7 1066.1,698.9 1063.9,700.2 			"/>
			<polygon class="st19" points="1066.1,701.5 1068.3,700.2 1072.8,702.8 1070.5,704.1 			"/>
			<polygon class="st19" points="1072.8,705.4 1075,704.1 1079.5,706.7 1077.2,708 			"/>
			<polygon class="st19" points="1081.7,710.6 1083.9,709.3 1095.1,715.7 1092.8,717 			"/>
			<polygon class="st19" points="1097.3,719.6 1099.5,718.3 1101.7,719.6 1099.5,720.9 			"/>
			<polygon class="st19" points="1101.7,722.2 1104,720.9 1106.2,722.2 1104,723.5 			"/>
			<polygon class="st19" points="1106.2,724.8 1108.4,723.5 1110.7,724.8 1108.4,726.1 			"/>
			<polygon class="st19" points="1110.7,727.3 1112.9,726.1 1115.1,727.3 1112.9,728.6 			"/>
			<polygon class="st19" points="1050.5,689.9 1052.7,688.6 1055,689.9 1052.7,691.2 			"/>
			<polygon class="st19" points="1055,692.5 1057.2,691.2 1059.4,692.5 1057.2,693.8 			"/>
			<polygon class="st19" points="1059.4,695.1 1061.6,693.8 1063.9,695.1 1061.6,696.4 			"/>
			<polygon class="st19" points="1077.2,705.4 1079.5,704.1 1090.6,710.6 1088.4,711.9 			"/>
			<polygon class="st19" points="1095.1,715.7 1097.3,714.4 1099.5,715.7 1097.3,717 			"/>
			<polygon class="st19" points="1106.2,722.2 1108.4,720.9 1110.7,722.2 1108.4,723.5 			"/>
			<polygon class="st19" points="1112.9,726.1 1115.1,724.8 1117.3,726.1 1115.1,727.3 			"/>
			<polygon class="st19" points="1117.3,728.6 1119.6,727.3 1121.8,728.6 1119.6,729.9 			"/>
			<polygon class="st19" points="1119.6,729.9 1121.8,728.6 1124,729.9 1121.8,731.2 			"/>
			<polygon class="st19" points="1061.6,693.8 1063.9,692.5 1072.8,697.7 1070.6,698.9 			"/>
			<polygon class="st19" points="1072.8,700.2 1075,698.9 1079.5,701.5 1077.2,702.8 			"/>
			<polygon class="st19" points="1081.7,705.4 1083.9,704.1 1086.1,705.4 1083.9,706.7 			"/>
			<polygon class="st19" points="1088.4,709.3 1090.6,708 1095.1,710.6 1092.8,711.9 			"/>
			<polygon class="st19" points="1095.1,713.1 1097.3,711.9 1099.5,713.1 1097.3,714.4 			"/>
			<polygon class="st19" points="1099.5,715.7 1101.7,714.4 1104,715.7 1101.7,717 			"/>
			<polygon class="st19" points="1104,718.3 1106.2,717 1108.4,718.3 1106.2,719.6 			"/>
			<polygon class="st19" points="1110.7,722.2 1112.9,720.9 1117.3,723.5 1115.1,724.8 			"/>
			<polygon class="st19" points="1117.3,726.1 1119.6,724.8 1124,727.3 1121.8,728.6 			"/>
			<polygon class="st19" points="1121.8,728.6 1124,727.3 1128.5,729.9 1126.3,731.2 			"/>
			<polygon class="st19" points="1063.9,692.5 1066.1,691.2 1070.5,693.8 1068.3,695.1 			"/>
			<polygon class="st19" points="1072.8,697.7 1075,696.4 1083.9,701.5 1081.7,702.8 			"/>
			<polygon class="st19" points="1088.4,706.7 1090.6,705.4 1092.8,706.7 1090.6,708 			"/>
			<polygon class="st19" points="1095.1,710.6 1097.3,709.3 1106.2,714.4 1104,715.7 			"/>
			<polygon class="st19" points="1106.2,717 1108.4,715.7 1115.1,719.6 1112.9,720.9 			"/>
			<polygon class="st19" points="1112.9,720.9 1115.1,719.6 1117.3,720.9 1115.1,722.2 			"/>
			<polygon class="st19" points="1117.3,723.5 1119.6,722.2 1121.8,723.5 1119.6,724.8 			"/>
			<polygon class="st19" points="1121.8,726.1 1124,724.8 1126.3,726.1 1124,727.3 			"/>
			<polygon class="st19" points="1124,727.3 1126.3,726.1 1130.7,728.6 1128.5,729.9 			"/>
			<polygon class="st19" points="1061.6,688.6 1063.9,687.3 1066.1,688.6 1063.9,689.9 			"/>
			<polygon class="st19" points="1066.1,691.2 1068.3,689.9 1079.5,696.4 1077.2,697.7 			"/>
			<polygon class="st19" points="1079.5,698.9 1081.7,697.7 1083.9,698.9 1081.7,700.2 			"/>
			<polygon class="st19" points="1083.9,701.5 1086.1,700.2 1088.4,701.5 1086.1,702.8 			"/>
			<polygon class="st19" points="1088.4,704.1 1090.6,702.8 1092.8,704.1 1090.6,705.4 			"/>
			<polygon class="st19" points="1092.8,706.7 1095.1,705.4 1097.3,706.7 1095.1,708 			"/>
			<polygon class="st19" points="1099.5,710.6 1101.7,709.3 1106.2,711.9 1104,713.1 			"/>
			<polygon class="st19" points="1106.2,714.4 1108.4,713.1 1115.1,717 1112.9,718.3 			"/>
			<polygon class="st19" points="1117.3,720.9 1119.6,719.6 1121.8,720.9 1119.6,722.2 			"/>
			<polygon class="st19" points="1126.3,726.1 1128.5,724.8 1130.7,726.1 1128.5,727.3 			"/>
			<polygon class="st19" points="1061.6,686 1063.9,684.7 1068.3,687.3 1066.1,688.6 			"/>
			<polygon class="st19" points="1066.1,688.6 1068.3,687.3 1072.8,689.9 1070.5,691.2 			"/>
			<polygon class="st19" points="1081.7,697.7 1083.9,696.4 1099.5,705.4 1097.3,706.7 			"/>
			<polygon class="st19" points="1099.5,708 1101.7,706.7 1104,708 1101.7,709.3 			"/>
			<polygon class="st19" points="1106.2,711.9 1108.4,710.6 1110.7,711.9 1108.4,713.1 			"/>
			<polygon class="st19" points="1117.3,718.3 1119.6,717 1121.8,718.3 1119.6,719.6 			"/>
			<polygon class="st19" points="1121.8,720.9 1124,719.6 1130.7,723.5 1128.5,724.8 			"/>
			<polygon class="st19" points="1128.5,724.8 1130.7,723.5 1135.2,726.1 1132.9,727.3 			"/>
			<polygon class="st19" points="1063.9,684.7 1066.1,683.5 1070.5,686 1068.3,687.3 			"/>
			<polygon class="st19" points="1070.5,688.6 1072.8,687.3 1075,688.6 1072.8,689.9 			"/>
			<polygon class="st19" points="1075,691.2 1077.2,689.9 1081.7,692.5 1079.5,693.8 			"/>
			<polygon class="st19" points="1081.7,695.1 1083.9,693.8 1086.1,695.1 1083.9,696.4 			"/>
			<polygon class="st19" points="1086.1,697.7 1088.4,696.4 1092.8,698.9 1090.6,700.2 			"/>
			<polygon class="st19" points="1092.8,701.5 1095.1,700.2 1097.3,701.5 1095.1,702.8 			"/>
			<polygon class="st19" points="1099.5,705.4 1101.7,704.1 1108.4,708 1106.2,709.3 			"/>
			<polygon class="st19" points="1108.4,710.6 1110.7,709.3 1112.9,710.6 1110.7,711.9 			"/>
			<polygon class="st19" points="1112.9,713.1 1115.1,711.9 1117.3,713.1 1115.1,714.4 			"/>
			<polygon class="st19" points="1117.3,715.7 1119.6,714.4 1121.8,715.7 1119.6,717 			"/>
			<polygon class="st19" points="1119.6,717 1121.8,715.7 1124,717 1121.8,718.3 			"/>
			<polygon class="st19" points="1124,719.6 1126.2,718.3 1128.5,719.6 1126.2,720.9 			"/>
			<polygon class="st19" points="1128.5,722.2 1130.7,720.9 1132.9,722.2 1130.7,723.5 			"/>
			<polygon class="st19" points="1072.8,687.3 1075,686 1079.5,688.6 1077.2,689.9 			"/>
			<polygon class="st19" points="1081.7,692.5 1083.9,691.2 1092.8,696.4 1090.6,697.7 			"/>
			<polygon class="st19" points="1092.8,698.9 1095.1,697.7 1097.3,698.9 1095.1,700.2 			"/>
			<polygon class="st19" points="1099.5,702.8 1101.7,701.5 1104,702.8 1101.7,704.1 			"/>
			<polygon class="st19" points="1117.3,713.1 1119.6,711.9 1124,714.4 1121.8,715.7 			"/>
			<polygon class="st19" points="1121.8,715.7 1124,714.4 1128.5,717 1126.3,718.3 			"/>
			<polygon class="st19" points="1130.7,720.9 1132.9,719.6 1135.2,720.9 1132.9,722.2 			"/>
			<polygon class="st19" points="1135.2,723.5 1137.4,722.2 1139.6,723.5 1137.4,724.8 			"/>
			<polygon class="st19" points="1066.1,680.9 1068.3,679.6 1072.8,682.2 1070.5,683.5 			"/>
			<polygon class="st19" points="1072.8,684.7 1075,683.5 1077.2,684.7 1075,686 			"/>
			<polygon class="st19" points="1077.2,687.3 1079.5,686 1083.9,688.6 1081.7,689.9 			"/>
			<polygon class="st19" points="1086.1,692.5 1088.4,691.2 1090.6,692.5 1088.4,693.8 			"/>
			<polygon class="st19" points="1090.6,695.1 1092.8,693.8 1095.1,695.1 1092.8,696.4 			"/>
			<polygon class="st19" points="1095.1,697.7 1097.3,696.4 1101.7,698.9 1099.5,700.2 			"/>
			<polygon class="st19" points="1104,702.8 1106.2,701.5 1110.7,704.1 1108.4,705.4 			"/>
			<polygon class="st19" points="1110.7,706.7 1112.9,705.4 1115.1,706.7 1112.9,708 			"/>
			<polygon class="st19" points="1117.3,710.6 1119.6,709.3 1121.8,710.6 1119.6,711.9 			"/>
			<polygon class="st19" points="1126.3,715.7 1128.5,714.4 1130.7,715.7 1128.5,717 			"/>
			<polygon class="st19" points="1130.7,718.3 1132.9,717 1137.4,719.6 1135.2,720.9 			"/>
			<polygon class="st19" points="1068.3,679.6 1070.5,678.3 1072.8,679.6 1070.5,680.9 			"/>
			<polygon class="st19" points="1072.8,682.2 1075,680.9 1077.2,682.2 1075,683.5 			"/>
			<polygon class="st19" points="1075,683.5 1077.2,682.2 1079.5,683.5 1077.2,684.7 			"/>
			<polygon class="st19" points="1079.5,686 1081.7,684.7 1083.9,686 1081.7,687.3 			"/>
			<polygon class="st19" points="1083.9,688.6 1086.1,687.3 1092.8,691.2 1090.6,692.5 			"/>
			<polygon class="st19" points="1106.2,701.5 1108.4,700.2 1110.7,701.5 1108.4,702.8 			"/>
			<polygon class="st19" points="1117.3,708 1119.6,706.7 1128.5,711.9 1126.3,713.1 			"/>
			<polygon class="st19" points="1128.5,714.4 1130.7,713.1 1135.2,715.7 1132.9,717 			"/>
			<polygon class="st19" points="1070.5,678.3 1072.8,677 1079.5,680.9 1077.2,682.2 			"/>
			<polygon class="st19" points="1079.5,683.5 1081.7,682.2 1083.9,683.5 1081.7,684.7 			"/>
			<polygon class="st19" points="1083.9,686 1086.1,684.7 1090.6,687.3 1088.4,688.6 			"/>
			<polygon class="st19" points="1092.8,691.2 1095.1,689.9 1101.7,693.8 1099.5,695.1 			"/>
			<polygon class="st19" points="1101.7,696.4 1104,695.1 1106.2,696.4 1104,697.7 			"/>
			<polygon class="st19" points="1106.2,698.9 1108.4,697.7 1117.3,702.8 1115.1,704.1 			"/>
			<polygon class="st19" points="1117.3,705.4 1119.6,704.1 1121.8,705.4 1119.6,706.7 			"/>
			<polygon class="st19" points="1121.8,708 1124,706.7 1126.3,708 1124,709.3 			"/>
			<polygon class="st19" points="1126.3,710.6 1128.5,709.3 1130.7,710.6 1128.5,711.9 			"/>
			<polygon class="st19" points="1130.7,713.1 1132.9,711.9 1137.4,714.4 1135.2,715.7 			"/>
			<polygon class="st19" points="1137.4,717 1139.6,715.7 1141.8,717 1139.6,718.3 			"/>
			<polygon class="st19" points="1072.8,677 1075,675.7 1081.7,679.6 1079.5,680.9 			"/>
			<polygon class="st19" points="1079.5,680.9 1081.7,679.6 1086.1,682.2 1083.9,683.5 			"/>
			<polygon class="st19" points="1088.4,686 1090.6,684.7 1092.8,686 1090.6,687.3 			"/>
			<polygon class="st19" points="1099.5,692.5 1101.7,691.2 1106.2,693.8 1104,695.1 			"/>
			<polygon class="st19" points="1106.2,696.4 1108.4,695.1 1110.7,696.4 1108.4,697.7 			"/>
			<polygon class="st19" points="1110.7,698.9 1112.9,697.7 1121.8,702.8 1119.6,704.1 			"/>
			<polygon class="st19" points="1121.8,705.4 1124,704.1 1128.5,706.7 1126.3,708 			"/>
			<polygon class="st19" points="1135.2,713.1 1137.4,711.9 1144.1,715.7 1141.8,717 			"/>
			<polygon class="st19" points="1141.8,717 1144.1,715.7 1146.3,717 1144.1,718.3 			"/>
			<polygon class="st19" points="1075,675.7 1077.2,674.4 1079.5,675.7 1077.2,677 			"/>
			<polygon class="st19" points="1079.5,678.3 1081.7,677 1083.9,678.3 1081.7,679.6 			"/>
			<polygon class="st19" points="1083.9,680.9 1086.1,679.6 1088.4,680.9 1086.1,682.2 			"/>
			<polygon class="st19" points="1088.4,683.5 1090.6,682.2 1092.8,683.5 1090.6,684.7 			"/>
			<polygon class="st19" points="1092.8,686 1095.1,684.7 1097.3,686 1095.1,687.3 			"/>
			<polygon class="st19" points="1097.3,688.6 1099.5,687.3 1101.7,688.6 1099.5,689.9 			"/>
			<polygon class="st19" points="1101.7,691.2 1104,689.9 1106.2,691.2 1104,692.5 			"/>
			<polygon class="st19" points="1108.4,695.1 1110.7,693.8 1115.1,696.4 1112.9,697.7 			"/>
			<polygon class="st19" points="1117.3,700.2 1119.6,698.9 1121.8,700.2 1119.6,701.5 			"/>
			<polygon class="st19" points="1121.8,702.8 1124,701.5 1126.3,702.8 1124,704.1 			"/>
			<polygon class="st19" points="1126.3,705.4 1128.5,704.1 1132.9,706.7 1130.7,708 			"/>
			<polygon class="st19" points="1132.9,709.3 1135.2,708 1137.4,709.3 1135.2,710.6 			"/>
			<polygon class="st19" points="1137.4,711.9 1139.6,710.6 1141.8,711.9 1139.6,713.1 			"/>
			<polygon class="st19" points="1144.1,715.7 1146.3,714.4 1148.5,715.7 1146.3,717 			"/>
			<polygon class="st19" points="1077.2,674.4 1079.5,673.1 1081.7,674.4 1079.5,675.7 			"/>
			<polygon class="st19" points="1088.4,680.9 1090.6,679.6 1092.8,680.9 1090.6,682.2 			"/>
			<polygon class="st19" points="1092.8,683.5 1095.1,682.2 1101.7,686 1099.5,687.3 			"/>
			<polygon class="st19" points="1101.7,688.6 1104,687.3 1106.2,688.6 1104,689.9 			"/>
			<polygon class="st19" points="1112.9,695.1 1115.1,693.8 1119.6,696.4 1117.3,697.7 			"/>
			<polygon class="st19" points="1119.6,698.9 1121.8,697.7 1128.5,701.5 1126.3,702.8 			"/>
			<polygon class="st19" points="1130.7,705.4 1132.9,704.1 1135.2,705.4 1132.9,706.7 			"/>
			<polygon class="st19" points="1135.2,708 1137.4,706.7 1141.8,709.3 1139.6,710.6 			"/>
			<polygon class="st19" points="1141.8,711.9 1144.1,710.6 1146.3,711.9 1144.1,713.1 			"/>
			<polygon class="st19" points="1148.5,715.7 1150.8,714.4 1153,715.7 1150.8,717 			"/>
			<polygon class="st19" points="1083.9,675.7 1086.1,674.4 1088.4,675.7 1086.1,677 			"/>
			<polygon class="st19" points="1086.1,677 1088.4,675.7 1090.6,677 1088.4,678.3 			"/>
			<polygon class="st19" points="1090.6,679.6 1092.8,678.3 1097.3,680.9 1095.1,682.2 			"/>
			<polygon class="st19" points="1097.3,683.5 1099.5,682.2 1101.7,683.5 1099.5,684.7 			"/>
			<polygon class="st19" points="1106.2,688.6 1108.4,687.3 1115.1,691.2 1112.9,692.5 			"/>
			<polygon class="st19" points="1115.1,693.8 1117.3,692.5 1119.6,693.8 1117.3,695.1 			"/>
			<polygon class="st19" points="1124,698.9 1126.2,697.7 1128.5,698.9 1126.2,700.2 			"/>
			<polygon class="st19" points="1132.9,704.1 1135.2,702.8 1139.6,705.4 1137.4,706.7 			"/>
			<polygon class="st19" points="1137.4,706.7 1139.6,705.4 1146.3,709.3 1144.1,710.6 			"/>
			<polygon class="st19" points="1146.3,711.9 1148.5,710.6 1150.8,711.9 1148.5,713.1 			"/>
			<polygon class="st19" points="1150.8,714.4 1153,713.1 1155.2,714.4 1153,715.7 			"/>
			<polygon class="st19" points="1101.7,683.5 1104,682.2 1108.4,684.7 1106.2,686 			"/>
			<polygon class="st19" points="1108.4,687.3 1110.7,686 1112.9,687.3 1110.7,688.6 			"/>
			<polygon class="st19" points="1117.3,692.5 1119.6,691.2 1121.8,692.5 1119.6,693.8 			"/>
			<polygon class="st19" points="1126.3,697.7 1128.5,696.4 1132.9,698.9 1130.7,700.2 			"/>
			<polygon class="st19" points="1132.9,701.5 1135.2,700.2 1139.6,702.8 1137.4,704.1 			"/>
			<polygon class="st19" points="1144.1,708 1146.3,706.7 1150.8,709.3 1148.5,710.6 			"/>
			<polygon class="st19" points="1150.8,711.9 1153,710.6 1155.2,711.9 1153,713.1 			"/>
			<polygon class="st19" points="1083.9,670.5 1086.1,669.3 1092.8,673.1 1090.6,674.4 			"/>
			<polygon class="st19" points="1090.6,674.4 1092.8,673.1 1101.7,678.3 1099.5,679.6 			"/>
			<polygon class="st19" points="1101.7,680.9 1104,679.6 1112.9,684.7 1110.7,686 			"/>
			<polygon class="st19" points="1112.9,687.3 1115.1,686 1117.3,687.3 1115.1,688.6 			"/>
			<polygon class="st19" points="1121.8,692.5 1124,691.2 1128.5,693.8 1126.3,695.1 			"/>
			<polygon class="st19" points="1130.7,697.7 1132.9,696.4 1135.2,697.7 1132.9,698.9 			"/>
			<polygon class="st19" points="1137.4,701.5 1139.6,700.2 1141.8,701.5 1139.6,702.8 			"/>
			<polygon class="st19" points="1141.8,704.1 1144.1,702.8 1146.3,704.1 1144.1,705.4 			"/>
			<polygon class="st19" points="1146.3,706.7 1148.5,705.4 1150.8,706.7 1148.5,708 			"/>
			<polygon class="st19" points="1150.8,709.3 1153,708 1155.2,709.3 1153,710.6 			"/>
			<polygon class="st19" points="1086.1,669.3 1088.4,668 1090.6,669.3 1088.4,670.5 			"/>
			<polygon class="st19" points="1099.5,677 1101.7,675.7 1104,677 1101.7,678.3 			"/>
			<polygon class="st19" points="1104,679.6 1106.2,678.3 1108.4,679.6 1106.2,680.9 			"/>
			<polygon class="st19" points="1112.9,684.7 1115.1,683.5 1119.6,686 1117.3,687.3 			"/>
			<polygon class="st19" points="1119.6,688.6 1121.8,687.3 1128.5,691.2 1126.3,692.5 			"/>
			<polygon class="st19" points="1132.9,696.4 1135.2,695.1 1137.4,696.4 1135.2,697.7 			"/>
			<polygon class="st19" points="1139.6,700.2 1141.8,698.9 1144.1,700.2 1141.8,701.5 			"/>
			<polygon class="st19" points="1148.5,705.4 1150.8,704.1 1157.4,708 1155.2,709.3 			"/>
			<polygon class="st19" points="1155.2,709.3 1157.4,708 1161.9,710.6 1159.7,711.9 			"/>
			<polygon class="st19" points="1088.4,668 1090.6,666.7 1092.8,668 1090.6,669.3 			"/>
			<polygon class="st19" points="1092.8,670.5 1095.1,669.3 1097.3,670.5 1095.1,671.8 			"/>
			<polygon class="st19" points="1095.1,671.8 1097.3,670.5 1101.7,673.1 1099.5,674.4 			"/>
			<polygon class="st19" points="1101.7,675.7 1104,674.4 1106.2,675.7 1104,677 			"/>
			<polygon class="st19" points="1106.2,678.3 1108.4,677 1110.7,678.3 1108.4,679.6 			"/>
			<polygon class="st19" points="1110.7,680.9 1112.9,679.6 1119.6,683.5 1117.3,684.7 			"/>
			<polygon class="st19" points="1124,688.6 1126.3,687.3 1128.5,688.6 1126.3,689.9 			"/>
			<polygon class="st19" points="1128.5,691.2 1130.7,689.9 1137.4,693.8 1135.2,695.1 			"/>
			<polygon class="st19" points="1141.8,698.9 1144.1,697.7 1148.5,700.2 1146.3,701.5 			"/>
			<polygon class="st19" points="1146.3,701.5 1148.5,700.2 1157.4,705.4 1155.2,706.7 			"/>
			<polygon class="st19" points="1157.4,708 1159.7,706.7 1164.1,709.3 1161.9,710.6 			"/>
			<polygon class="st19" points="1090.6,666.7 1092.8,665.4 1095.1,666.7 1092.8,668 			"/>
			<polygon class="st19" points="1095.1,669.3 1097.3,668 1099.5,669.3 1097.3,670.5 			"/>
			<polygon class="st19" points="1097.3,670.5 1099.5,669.3 1104,671.8 1101.7,673.1 			"/>
			<polygon class="st19" points="1104,674.4 1106.2,673.1 1108.4,674.4 1106.2,675.7 			"/>
			<polygon class="st19" points="1108.4,677 1110.7,675.7 1115.1,678.3 1112.9,679.6 			"/>
			<polygon class="st19" points="1115.1,680.9 1117.3,679.6 1128.5,686 1126.3,687.3 			"/>
			<polygon class="st19" points="1128.5,688.6 1130.7,687.3 1132.9,688.6 1130.7,689.9 			"/>
			<polygon class="st19" points="1132.9,691.2 1135.2,689.9 1139.6,692.5 1137.4,693.8 			"/>
			<polygon class="st19" points="1139.6,695.1 1141.8,693.8 1146.3,696.4 1144.1,697.7 			"/>
			<polygon class="st19" points="1153,702.8 1155.2,701.5 1161.9,705.4 1159.7,706.7 			"/>
			<polygon class="st19" points="1159.7,706.7 1161.9,705.4 1164.1,706.7 1161.9,708 			"/>
			<polygon class="st19" points="1092.8,665.4 1095.1,664.1 1097.3,665.4 1095.1,666.7 			"/>
			<polygon class="st19" points="1097.3,668 1099.5,666.7 1101.7,668 1099.5,669.3 			"/>
			<polygon class="st19" points="1099.5,669.3 1101.7,668 1106.2,670.5 1104,671.8 			"/>
			<polygon class="st19" points="1106.2,673.1 1108.4,671.8 1110.7,673.1 1108.4,674.4 			"/>
			<polygon class="st19" points="1110.7,675.7 1112.9,674.4 1121.8,679.6 1119.6,680.9 			"/>
			<polygon class="st19" points="1121.8,682.2 1124,680.9 1126.2,682.2 1124,683.5 			"/>
			<polygon class="st19" points="1126.2,684.7 1128.5,683.5 1130.7,684.7 1128.5,686 			"/>
			<polygon class="st19" points="1130.7,687.3 1132.9,686 1139.6,689.9 1137.4,691.2 			"/>
			<polygon class="st19" points="1139.6,692.5 1141.8,691.2 1144.1,692.5 1141.8,693.8 			"/>
			<polygon class="st19" points="1141.8,693.8 1144.1,692.5 1148.5,695.1 1146.3,696.4 			"/>
			<polygon class="st19" points="1148.5,697.7 1150.8,696.4 1153,697.7 1150.8,698.9 			"/>
			<polygon class="st19" points="1150.8,698.9 1153,697.7 1157.4,700.2 1155.2,701.5 			"/>
			<polygon class="st19" points="1159.7,704.1 1161.9,702.8 1164.1,704.1 1161.9,705.4 			"/>
			<polygon class="st19" points="1161.9,705.4 1164.1,704.1 1166.4,705.4 1164.1,706.7 			"/>
			<polygon class="st19" points="1095.1,664.1 1097.3,662.8 1099.5,664.1 1097.3,665.4 			"/>
			<polygon class="st19" points="1108.4,671.8 1110.7,670.5 1112.9,671.8 1110.7,673.1 			"/>
			<polygon class="st19" points="1117.3,677 1119.6,675.7 1121.8,677 1119.6,678.3 			"/>
			<polygon class="st19" points="1121.8,679.6 1124,678.3 1130.7,682.2 1128.5,683.5 			"/>
			<polygon class="st19" points="1135.2,687.3 1137.4,686 1139.6,687.3 1137.4,688.6 			"/>
			<polygon class="st19" points="1139.6,689.9 1141.8,688.6 1144.1,689.9 1141.8,691.2 			"/>
			<polygon class="st19" points="1144.1,692.5 1146.3,691.2 1150.8,693.8 1148.5,695.1 			"/>
			<polygon class="st19" points="1153,697.7 1155.2,696.4 1161.9,700.2 1159.7,701.5 			"/>
			<polygon class="st19" points="1166.4,705.4 1168.6,704.1 1170.8,705.4 1168.6,706.7 			"/>
			<polygon class="st19" points="1097.3,662.8 1099.5,661.5 1106.2,665.4 1104,666.7 			"/>
			<polygon class="st19" points="1104,666.7 1106.2,665.4 1115.1,670.5 1112.9,671.8 			"/>
			<polygon class="st19" points="1117.3,674.4 1119.6,673.1 1121.8,674.4 1119.6,675.7 			"/>
			<polygon class="st19" points="1126.3,679.6 1128.5,678.3 1130.7,679.6 1128.5,680.9 			"/>
			<polygon class="st19" points="1132.9,683.5 1135.2,682.2 1139.6,684.7 1137.4,686 			"/>
			<polygon class="st19" points="1139.6,687.3 1141.8,686 1148.5,689.9 1146.3,691.2 			"/>
			<polygon class="st19" points="1148.5,692.5 1150.8,691.2 1157.4,695.1 1155.2,696.4 			"/>
			<polygon class="st19" points="1161.9,700.2 1164.1,698.9 1166.4,700.2 1164.1,701.5 			"/>
		</g>
	</g>
	<g>
		<path class="st20" d="M1105.6,642.1c25.9,0,51.8,5.7,71.5,17.2c20,11.6,29.8,27.1,29.6,42.1h0v13.4c1,14.8-7.5,29.7-25.7,41.4
			c-0.7,0.5-1.4,1-2.2,1.4l-64.3,37.3l-16.9,9.8l-32.3,18.7c-3.1,1.8-6.6,3.1-10.5,4c-3.6,0.8-7.5,1.2-11.3,1.2
			c-7.9,0-15.8-1.7-21.8-5.2l-15.6-9c0,0,0,0,0,0l-0.1-0.1h0c-0.1,0-0.1,0-0.2-0.1c-2.2-1.2-5.1-1.8-7.9-1.8c-2.1,0-4.3,0.3-6.2,1
			c-0.1,0-0.1,0-0.2,0.1c-6,2.1-12.8,3.1-19.6,3.1c-9.7,0-19.5-2.2-26.9-6.5c-6.7-3.9-10.3-8.9-11-13.9c0-1-0.2-2-0.1-3l-0.2-16h0.1
			c0.1-1,0.4-2.8,0.9-4.2l-12.4-7.2c-5.5-3.2-8.4-7.3-8.8-11.4l0.1,0v-0.1c0-0.7-0.2-1.5-0.2-2.2l-0.3-15.9h0c0-4,3-9,9-12.5
			l32.3-18.6l16.9-9.8l64-37.1l0.3-0.2c0.8-0.5,1.6-0.9,2.5-1.3C1057.4,647,1081.5,642.1,1105.6,642.1 M1105.6,638.1
			c-25.5,0-50,5.4-69.1,15.3c-0.9,0.4-1.8,0.8-2.7,1.3l-0.2,0.1c-0.1,0-0.1,0.1-0.2,0.1l-64,37.1l-16.9,9.8l-32.3,18.5
			c-6.5,3.8-10.7,9.6-11,15.3c0,0.3-0.1,0.5-0.1,0.8l0.3,15.7c0,0.6,0,1.2,0.1,1.7c-0.1,0.4-0.1,0.7,0,1.1
			c0.6,5.6,4.5,10.8,10.8,14.4l9.8,5.7c-0.1,0.4-0.1,0.8-0.2,1.1c-0.1,0.4-0.2,0.8-0.2,1.2l0.2,15.8c-0.1,0.9,0,1.6,0,2.2
			c0,0.3,0,0.6,0,0.9c0,0.2,0,0.4,0,0.5c0.9,6.5,5.5,12.5,13,16.8c7.8,4.5,18.1,7,28.9,7c7.4,0,14.6-1.2,20.9-3.4c0,0,0,0,0,0l0.1,0
			c0,0,0.1,0,0.1,0c1.4-0.5,3.1-0.8,4.8-0.8c2.2,0,4.4,0.5,5.9,1.3c0,0,0,0,0,0c0.1,0.1,0.2,0.1,0.2,0.1l15.6,9
			c6.4,3.7,14.8,5.7,23.8,5.7c4.2,0,8.3-0.4,12.2-1.3c4.3-1,8.2-2.5,11.6-4.4l32.3-18.7l16.9-9.8l64.3-37.3c0.8-0.5,1.7-1,2.5-1.6
			c18.8-12.1,28.5-28.1,27.4-44.9v-13.3c0-0.1,0-0.2,0-0.2c0.2-17.1-11.3-33.6-31.5-45.3C1159.4,644.4,1133.3,638.1,1105.6,638.1
			L1105.6,638.1z"/>
	</g>
</g>
<g>
	<g class="st21">
		<path class="st22" d="M930.5,11c8.2,0,16.3,1.8,22.5,5.4l9.9,5.8l6.3,3.8c2.1,1.2,3.2,2.6,3.4,4.7h0.2v19.6h-0.3
			c-0.2,1-0.8,1.8-1.8,2.7c-0.9,0.8-1.6,1.5-2.3,2.3c1.9,2.5,4.6,4.9,8.2,6.9c7.7,4.4,17.7,6.7,27.8,6.7c7,0,14-1.1,20.2-3.2
			c0.1,0,0.1,0,0.2,0c1.9-0.7,4-1,6.1-1c3,0,6,0.7,8.4,1.9c0.1,0,0.1,0.3,0.2,0.3c0,0,0,0,0,0c0,0,0-0.1,0.1-0.1c0,0,0,0,0,0l8.9,5
			l7.1,4.1c6.8,3.9,10.1,9.2,9.1,14.3v15.7c1,5.1-2.4,10.4-9.1,14.3l-33.3,19.3l-17.5,10.1l-33.3,19.3c-6.2,3.6-14.3,5.4-22.5,5.4
			c-8.1,0-16.3-1.8-22.4-5.4l-9.9-5.7l-6.3-3.6h0c-0.1,0-0.1-0.1-0.2-0.1c-2.3-1.3-5.3-1.9-8.2-1.9c-2.2,0-4.4,0.3-6.3,1
			c-0.1,0-0.1,0.1-0.2,0.1c-6.3,2.2-13.4,3.3-20.4,3.3c-10,0-19.9-2.2-27.5-6.6c-7-4.1-10.8-9.3-11.4-14.5h-0.5v-20.6h0.5
			c0.1-1,0.3-2.2,0.6-3.3l-5.5-3.4l-7.1-4c-5.8-3.4-8.9-7.9-9.2-12h0.2V76.9h-0.2c0.3-4.1,3.3-8.7,9.2-12.1l33.3-19.1l17.5-10.1
			L908,16.3C914.2,12.7,922.3,11,930.5,11 M930.5,7l0,4L930.5,7c-9.2,0-17.8,2.1-24.4,5.9l-33.3,19.3l-17.5,10.1L822,61.4
			c-6.8,3.9-10.8,9.5-11.2,15.3c0,0.5,0,1,0.2,1.5v18.2c-0.1,0.5-0.2,1-0.2,1.5c0.4,5.8,4.5,11.3,11.2,15.2l7.1,4l2.8,1.7
			c-0.2,0.5-0.3,1-0.3,1.5v20.6c0,1,0.3,1.8,0.9,2.5c1.4,5.9,5.9,11.3,13,15.4c7.9,4.6,18.4,7.1,29.5,7.1c7.7,0,15.2-1.2,21.7-3.5
			c0,0,0,0,0.1,0c0.2-0.1,0.4-0.2,0.6-0.3c1.4-0.4,2.9-0.7,4.5-0.7c2.3,0,4.5,0.5,6.1,1.3c0.2,0.1,0.3,0.2,0.5,0.3l6.1,3.5l9.8,5.7
			c6.6,3.8,15.2,5.9,24.4,5.9c9.2,0,17.9-2.1,24.5-5.9l33.3-19.3l17.5-10.1l33.3-19.3c8.1-4.7,12.2-11.4,11.1-18.1V90.3
			c1.1-6.7-3-13.4-11.1-18.1l-7.1-4.1c0,0,0,0-0.1,0l-8.9-5c-0.1-0.1-0.2-0.1-0.4-0.2c-2.9-1.6-6.5-2.4-10.2-2.4
			c-2.5,0-5,0.4-7.1,1.1c-0.1,0-0.3,0.1-0.5,0.1c-5.7,2-12.2,3-18.9,3c-9.8,0-19-2.2-25.8-6.1c-1.8-1-3.4-2.2-4.7-3.4
			c0.7-0.7,1.4-1.5,1.9-2.6c0.6-0.7,0.9-1.6,0.9-2.6V30.5c0-0.6-0.2-1.2-0.4-1.8c-0.9-3.8-4-5.6-5.1-6.3l-6.3-3.8l-9.9-5.8
			C948.4,9.1,939.7,7,930.5,7L930.5,7z"/>
	</g>
	<path class="st23" d="M1039.2,66.2c-0.1,0-0.1,0-0.2,0c-4-2.2-10-2.4-14.5-0.8c-0.1,0-0.1,0.1-0.2,0.1c-15.1,5.3-34.9,4.1-47.9-3.4
		c-13-7.5-15-19-5.9-27.8c3-2.7,2.5-6.2-1.5-8.6l-6.3-3.6l-9.9-5.7c-12.4-7.2-32.6-7.2-44.9,0l-33.3,19.3l-17.5,10.1l-33.3,19.3
		c-12.4,7.2-12.4,18.9,0,26l7.1,4.1l9,5.2c4.1,2.4,4.6,6,1.6,8.7c-9.1,8.7-7.1,20.2,5.9,27.8c13,7.5,32.9,8.7,48,3.4
		c0.1,0,0.1-0.1,0.2-0.1c4.5-1.6,10.5-1.1,14.5,1c0.1,0,0.1,0.3,0.2,0.3h0l6.3,3.4l9.9,5.6c12.4,7.2,32.6,7.1,44.9-0.1l33.3-19.3
		l17.5-10.1l33.3-19.3c12.4-7.2,12.4-18.9,0-26l-7.1-4.1l-9-5.2C1039.3,66.3,1039.3,66.2,1039.2,66.2
		C1039.2,66.2,1039.2,66.2,1039.2,66.2z"/>
	<path class="st24" d="M836.6,116.8"/>
	<g class="st21">
		<g>
			<path class="st22" d="M942.4,61.9l-25.3-0.8c-2.3-0.1-4.3,1.2-4.3,2.9c-0.1,1.7,1.8,3.1,4.1,3.2l14.8,0.5L910.3,82
				c-10.6,7.1-11,19.3-1,27.1c10,7.9,26.8,8.4,37.3,1.3c1.8-1.2,1.8-3.2,0.2-4.5c-1.7-1.3-4.5-1.4-6.2-0.2c-7,4.8-18.2,4.4-24.9-0.9
				c-6.7-5.2-6.4-13.3,0.6-18.1l21.3-14.4l-0.4,10.8c-0.1,1.7,1.8,3.1,4.1,3.2c2.3,0.1,4.3-1.2,4.3-2.9l0.7-18.4
				C946.5,63.4,944.7,62,942.4,61.9"/>
		</g>
		<defs>
			<filter id="Adobe_OpacityMaskFilter_6_" filterUnits="userSpaceOnUse" x="902.1" y="61.1" width="45.9" height="54.4">
				
					<feColorMatrix  type="matrix" values="-1 0 0 0 1  0 -1 0 0 1  0 0 -1 0 1  0 0 0 1 0" color-interpolation-filters="sRGB" result="source"/>
			</filter>
		</defs>
		<mask maskUnits="userSpaceOnUse" x="902.1" y="61.1" width="45.9" height="54.4" id="SVGID_7_">
			<g class="st25">
				
					<image style="overflow:visible;" width="51" height="59" xlink:href="1E44A650C2B6127A.jpg"  transform="matrix(1 0 0 1 900 59)">
				</image>
			</g>
		</mask>
		<g class="st26">
			<path d="M942.4,61.9l-25.3-0.8c-2.3-0.1-4.3,1.2-4.3,2.9c-0.1,1.7,1.8,3.1,4.1,3.2l14.8,0.5L910.3,82c-10.6,7.1-11,19.3-1,27.1
				c10,7.9,26.8,8.4,37.3,1.3c1.8-1.2,1.8-3.2,0.2-4.5c-1.7-1.3-4.5-1.4-6.2-0.2c-7,4.8-18.2,4.4-24.9-0.9
				c-6.7-5.2-6.4-13.3,0.6-18.1l21.3-14.4l-0.4,10.8c-0.1,1.7,1.8,3.1,4.1,3.2c2.3,0.1,4.3-1.2,4.3-2.9l0.7-18.4
				C946.5,63.4,944.7,62,942.4,61.9"/>
		</g>
	</g>
	<g class="st21">
		<path class="st27" d="M731.9,212.3c8.2,0,16.3,1.8,22.5,5.4l9.9,5.8l6.3,3.8c2.1,1.2,3.2,2.6,3.4,4.7h0.2v19.6h-0.3
			c-0.2,1-0.8,1.8-1.8,2.7c-0.9,0.8-1.6,1.5-2.3,2.3c1.9,2.5,4.6,4.9,8.2,6.9c7.7,4.4,17.7,6.7,27.8,6.7c7,0,14-1.1,20.2-3.2
			c0.1,0,0.1,0,0.2,0c1.9-0.7,4-1,6.1-1c3,0,6,0.7,8.4,1.9c0.1,0,0.1,0.3,0.2,0.3h0c0,0,0-0.1,0.1-0.1c0,0,0,0,0,0l8.9,5l7.1,4.1
			c6.8,3.9,10.1,9.2,9.1,14.3v15.7c1,5.1-2.4,10.4-9.1,14.3l-33.3,19.3l-17.5,10.1L772.7,370c-6.2,3.6-14.3,5.4-22.5,5.4
			c-8.1,0-16.3-1.8-22.4-5.4l-9.9-5.7l-6.3-3.6h0c-0.1,0-0.1-0.1-0.2-0.1c-2.3-1.3-5.3-1.9-8.2-1.9c-2.2,0-4.4,0.3-6.3,1
			c-0.1,0-0.1,0.1-0.2,0.1c-6.3,2.2-13.4,3.3-20.4,3.3c-10,0-19.9-2.2-27.5-6.6c-7-4.1-10.8-9.3-11.4-14.5H637v-20.6h0.5
			c0.1-1,0.3-2.2,0.6-3.3l-5.5-3.4l-7.1-4c-5.8-3.4-8.9-7.9-9.2-12h0.2v-20.6h-0.2c0.3-4.1,3.3-8.7,9.2-12.1l33.3-19.1l17.5-10.1
			l33.3-19.3C715.7,214,723.8,212.3,731.9,212.3 M731.9,208.3l0,4L731.9,208.3c-9.2,0-17.8,2.1-24.4,5.9l-33.3,19.3l-17.5,10.1
			l-33.3,19.1c-6.8,3.9-10.8,9.5-11.2,15.3c0,0.5,0,1,0.2,1.5v18.2c-0.1,0.5-0.2,1-0.2,1.5c0.4,5.8,4.5,11.3,11.2,15.2l7.1,4
			l2.8,1.7c-0.2,0.5-0.3,1-0.3,1.5v20.6c0,1,0.3,1.8,0.9,2.5c1.4,5.9,5.9,11.3,13,15.4c7.9,4.6,18.4,7.1,29.5,7.1
			c7.7,0,15.2-1.2,21.7-3.5c0,0,0,0,0.1,0c0.2-0.1,0.4-0.2,0.6-0.3c1.4-0.4,2.9-0.7,4.5-0.7c2.3,0,4.5,0.5,6.1,1.3
			c0.2,0.1,0.3,0.2,0.5,0.3l6.1,3.5l9.8,5.7c6.6,3.8,15.2,5.9,24.4,5.9c9.2,0,17.9-2.1,24.5-5.9l33.3-19.3l17.5-10.1l33.3-19.3
			c8.1-4.7,12.2-11.4,11.1-18.1v-14.9c1.1-6.7-3-13.4-11.1-18.1l-7.1-4.1c0,0,0,0-0.1,0l-8.9-5c-0.1-0.1-0.2-0.1-0.4-0.2
			c-2.9-1.6-6.5-2.4-10.2-2.4c-2.5,0-5,0.4-7.1,1.1c-0.1,0-0.3,0.1-0.5,0.1c-5.7,2-12.2,3-18.9,3c-9.8,0-19-2.2-25.8-6.1
			c-1.8-1-3.4-2.2-4.7-3.4c0.7-0.7,1.4-1.5,1.9-2.6c0.6-0.7,0.9-1.6,0.9-2.6v-19.6c0-0.6-0.2-1.2-0.4-1.8c-0.9-3.8-4-5.6-5.1-6.3
			l-6.3-3.8l-9.9-5.8C749.8,210.4,741.1,208.3,731.9,208.3L731.9,208.3z"/>
	</g>
	<path class="st23" d="M840.7,267.5c-0.1,0-0.1,0-0.2,0c-4-2.2-10-2.4-14.5-0.8c-0.1,0-0.1,0.1-0.2,0.1c-15.1,5.3-34.9,4.1-47.9-3.4
		c-13-7.5-15-19-5.9-27.8c3-2.7,2.5-6.2-1.5-8.6l-6.3-3.6l-9.9-5.7c-12.4-7.2-32.6-7.2-44.9,0L676.2,237l-17.5,10.1l-33.3,19.3
		c-12.4,7.2-12.4,18.9,0,26l7.1,4.1l9,5.2c4.1,2.4,4.6,6,1.6,8.7c-9.1,8.7-7.1,20.2,5.9,27.8c13,7.5,32.9,8.7,48,3.4
		c0.1,0,0.1-0.1,0.2-0.1c4.5-1.6,10.5-1.1,14.5,1c0.1,0,0.1,0.3,0.2,0.3h0l6.3,3.4l9.9,5.6c12.4,7.2,32.6,7.1,44.9-0.1l33.3-19.3
		l17.5-10.1l33.3-19.3c12.4-7.2,12.4-18.9,0-26l-7.1-4.1l-9-5.2C840.8,267.6,840.7,267.5,840.7,267.5L840.7,267.5z"/>
	<path class="st24" d="M638.1,318.1"/>
	<g class="st21">
		<g>
			<path class="st22" d="M723.6,317.3c0.2,1-0.5,2.1-1.5,2.7c-1.9,1.2-5,1.2-6.9-0.1c-0.9-0.7-1.2-1.2-1.4-1.9l-1.8-11.6l-16.7-1.4
				c-1.2-0.1-2-0.5-2.8-1c-1.9-1.3-1.9-3.3,0.1-4.6c1.1-0.7,2.6-1,4.1-0.9l14.2,1.7l-2.1-9.5c-0.2-1,0.4-2,1.5-2.7
				c1.9-1.2,5-1.2,6.9,0.1c0.8,0.5,1.2,1.1,1.4,1.9l1.5,11.1l17.4,1.6c1,0.1,1.8,0.3,2.8,1c1.9,1.3,1.9,3.3-0.1,4.6
				c-1,0.6-2.6,1.1-4.1,0.9c-4.7-0.6-15.1-2-15.1-2S722.9,314.1,723.6,317.3"/>
		</g>
		<defs>
			<filter id="Adobe_OpacityMaskFilter_7_" filterUnits="userSpaceOnUse" x="691.2" y="287.2" width="50.7" height="33.7">
				
					<feColorMatrix  type="matrix" values="-1 0 0 0 1  0 -1 0 0 1  0 0 -1 0 1  0 0 0 1 0" color-interpolation-filters="sRGB" result="source"/>
			</filter>
		</defs>
		<mask maskUnits="userSpaceOnUse" x="691.2" y="287.2" width="50.7" height="33.7" id="SVGID_8_">
			<g class="st28">
				
					<image style="overflow:visible;" width="55" height="38" xlink:href="1E44A650C2B6127B.jpg"  transform="matrix(1 0 0 1 689 285)">
				</image>
			</g>
		</mask>
		<g class="st29">
			<path d="M723.6,317.3c0.2,1-0.5,2.1-1.5,2.7c-1.9,1.2-5,1.2-6.9-0.1c-0.9-0.7-1.2-1.2-1.4-1.9l-1.8-11.6l-16.7-1.4
				c-1.2-0.1-2-0.5-2.8-1c-1.9-1.3-1.9-3.3,0.1-4.6c1.1-0.7,2.6-1,4.1-0.9l14.2,1.7l-2.1-9.5c-0.2-1,0.4-2,1.5-2.7
				c1.9-1.2,5-1.2,6.9,0.1c0.8,0.5,1.2,1.1,1.4,1.9l1.5,11.1l17.4,1.6c1,0.1,1.8,0.3,2.8,1c1.9,1.3,1.9,3.3-0.1,4.6
				c-1,0.6-2.6,1.1-4.1,0.9c-4.7-0.6-15.1-2-15.1-2S722.9,314.1,723.6,317.3"/>
		</g>
	</g>
	<g class="st21">
		<g>
			<path class="st22" d="M720.2,263.8c9.4-6,20.1-6,27.9-0.6c13.3,9.2-4,27,1.6,30.8l19.9-12.7c1.8-1.2,4.8-1.1,6.5,0.1
				c1.8,1.2,1.7,3.2-0.1,4.3l-24.7,15.8c-1.8,1.2-4.8,1.1-6.5-0.1c-14-9.6,7.8-25.4-4-33.6c-3.5-2.4-9.3-2.9-14.2,0.3
				c-4,2.6-4.1,5.4-2.8,7.8c0.6,1.4,0.1,2.6-1.2,3.5c-1.9,1.2-5,1.2-6.9-0.1c-0.5-0.3-0.8-0.6-1.1-1.2
				C711.9,273.6,713.1,268.3,720.2,263.8"/>
		</g>
		<defs>
			<filter id="Adobe_OpacityMaskFilter_8_" filterUnits="userSpaceOnUse" x="713.2" y="259.2" width="64.2" height="43.2">
				
					<feColorMatrix  type="matrix" values="-1 0 0 0 1  0 -1 0 0 1  0 0 -1 0 1  0 0 0 1 0" color-interpolation-filters="sRGB" result="source"/>
			</filter>
		</defs>
		<mask maskUnits="userSpaceOnUse" x="713.2" y="259.2" width="64.2" height="43.2" id="SVGID_9_">
			<g class="st30">
				
					<image style="overflow:visible;" width="69" height="48" xlink:href="1E44A650C2B6127D.jpg"  transform="matrix(1 0 0 1 711 257)">
				</image>
			</g>
		</mask>
		<g class="st31">
			<path d="M720.2,263.8c9.4-6,20.1-6,27.9-0.6c13.3,9.2-4,27,1.6,30.8l19.9-12.7c1.8-1.2,4.8-1.1,6.5,0.1c1.8,1.2,1.7,3.2-0.1,4.3
				l-24.7,15.8c-1.8,1.2-4.8,1.1-6.5-0.1c-14-9.6,7.8-25.4-4-33.6c-3.5-2.4-9.3-2.9-14.2,0.3c-4,2.6-4.1,5.4-2.8,7.8
				c0.6,1.4,0.1,2.6-1.2,3.5c-1.9,1.2-5,1.2-6.9-0.1c-0.5-0.3-0.8-0.6-1.1-1.2C711.9,273.6,713.1,268.3,720.2,263.8"/>
		</g>
	</g>
	<g class="st21">
		<path class="st22" d="M527.9,11c8.2,0,16.3,1.8,22.5,5.4l9.9,5.8l6.3,3.8c2.1,1.2,3.2,2.6,3.4,4.7h0.2v19.6h-0.3
			c-0.2,1-0.8,1.8-1.8,2.7c-0.9,0.8-1.6,1.5-2.3,2.3c1.9,2.5,4.6,4.9,8.2,6.9c7.7,4.4,17.7,6.7,27.8,6.7c7,0,14-1.1,20.2-3.2
			c0.1,0,0.1,0,0.2,0c1.9-0.7,4-1,6.1-1c3,0,6,0.7,8.4,1.9c0.1,0,0.1,0.3,0.2,0.3c0,0,0,0,0,0c0,0,0-0.1,0.1-0.1c0,0,0,0,0,0l8.9,5
			l7.1,4.1c6.8,3.9,10.1,9.2,9.1,14.3v15.7c1,5.1-2.4,10.4-9.1,14.3l-33.3,19.3L602,149.4l-33.3,19.3c-6.2,3.6-14.3,5.4-22.5,5.4
			c-8.1,0-16.3-1.8-22.4-5.4l-9.9-5.7l-6.3-3.6h0c-0.1,0-0.1-0.1-0.2-0.1c-2.3-1.3-5.3-1.9-8.2-1.9c-2.2,0-4.4,0.3-6.3,1
			c-0.1,0-0.1,0.1-0.2,0.1c-6.3,2.2-13.4,3.3-20.4,3.3c-10,0-19.9-2.2-27.5-6.6c-7-4.1-10.8-9.3-11.4-14.5h-0.5v-20.6h0.5
			c0.1-1,0.3-2.2,0.6-3.3l-5.5-3.4l-7.1-4c-5.8-3.4-8.9-7.9-9.2-12h0.2V76.9h-0.2c0.3-4.1,3.3-8.7,9.2-12.1l33.3-19.1l17.5-10.1
			l33.3-19.3C511.6,12.7,519.8,11,527.9,11 M527.9,7l0,4L527.9,7c-9.2,0-17.8,2.1-24.4,5.9l-33.3,19.3l-17.5,10.1l-33.3,19.1
			c-6.8,3.9-10.8,9.5-11.2,15.3c0,0.5,0,1,0.2,1.5v18.2c-0.1,0.5-0.2,1-0.2,1.5c0.4,5.8,4.5,11.3,11.2,15.2l7.1,4l2.8,1.7
			c-0.2,0.5-0.3,1-0.3,1.5v20.6c0,1,0.3,1.8,0.9,2.5c1.4,5.9,5.9,11.3,13,15.4c7.9,4.6,18.4,7.1,29.5,7.1c7.7,0,15.2-1.2,21.7-3.5
			c0,0,0,0,0.1,0c0.2-0.1,0.4-0.2,0.6-0.3c1.4-0.4,2.9-0.7,4.5-0.7c2.3,0,4.5,0.5,6.1,1.3c0.2,0.1,0.3,0.2,0.5,0.3l6.1,3.5l9.8,5.7
			c6.6,3.8,15.2,5.9,24.4,5.9c9.2,0,17.9-2.1,24.5-5.9l33.3-19.3l17.5-10.1l33.3-19.3c8.1-4.7,12.2-11.4,11.1-18.1V90.3
			c1.1-6.7-3-13.4-11.1-18.1l-7.1-4.1c0,0,0,0-0.1,0l-8.9-5c-0.1-0.1-0.2-0.1-0.3-0.2c-2.9-1.6-6.5-2.4-10.2-2.4
			c-2.5,0-5,0.4-7.1,1.1c-0.1,0-0.3,0.1-0.5,0.1c-5.7,2-12.2,3-18.9,3c-9.8,0-19-2.2-25.8-6.1c-1.8-1-3.4-2.2-4.7-3.4
			c0.7-0.7,1.4-1.5,1.9-2.6c0.6-0.7,0.9-1.6,0.9-2.6V30.5c0-0.6-0.2-1.2-0.4-1.8c-0.9-3.8-4-5.6-5.1-6.3l-6.3-3.8l-9.9-5.8
			C545.8,9.1,537.1,7,527.9,7L527.9,7z"/>
	</g>
	<path class="st23" d="M636.7,66.2c-0.1,0-0.1,0-0.2,0c-4-2.2-10-2.4-14.5-0.8c-0.1,0-0.1,0.1-0.2,0.1c-15.1,5.3-34.9,4.1-47.9-3.4
		c-13-7.5-15-19-5.9-27.8c3-2.7,2.5-6.2-1.5-8.6l-6.3-3.6l-9.9-5.7c-12.4-7.2-32.6-7.2-44.9,0l-33.3,19.3l-17.5,10.1l-33.3,19.3
		c-12.4,7.2-12.4,18.9,0,26l7.1,4.1l9,5.2c4.1,2.4,4.6,6,1.6,8.7c-9.1,8.7-7.1,20.2,5.9,27.8c13,7.5,32.9,8.7,48,3.4
		c0.1,0,0.1-0.1,0.2-0.1c4.5-1.6,10.5-1.1,14.5,1c0.1,0,0.1,0.3,0.2,0.3h0l6.3,3.4l9.9,5.6c12.4,7.2,32.6,7.1,44.9-0.1l33.3-19.3
		l17.5-10.1l33.3-19.3c12.4-7.2,12.4-18.9,0-26l-7.1-4.1l-9-5.2C636.7,66.3,636.7,66.2,636.7,66.2C636.7,66.2,636.7,66.2,636.7,66.2
		z"/>
	<path class="st24" d="M434.1,116.8"/>
	<g class="st21">
		<g>
			<path class="st22" d="M507,115.4l26.5,1.4c2.4,0.1,4.5-1.2,4.6-3c0.1-1.8-1.8-3.3-4.2-3.4l-15.5-0.8l22.7-14.6
				c11.3-7.3,12-20,1.6-28.5c-10.4-8.5-27.9-9.5-39.2-2.2c-1.9,1.2-2,3.3-0.3,4.8c1.7,1.4,4.7,1.6,6.5,0.4
				c7.5-4.8,19.2-4.2,26.1,1.5c6.9,5.6,6.4,14.2-1.1,19l-22.7,14.7l0.7-11.4c0.1-1.8-1.8-3.3-4.2-3.5c-2.5-0.1-4.5,1.2-4.6,3
				l-1.2,19.3C502.7,113.7,504.6,115.3,507,115.4"/>
		</g>
		<defs>
			<filter id="Adobe_OpacityMaskFilter_9_" filterUnits="userSpaceOnUse" x="502" y="59.4" width="48" height="57.4">
				
					<feColorMatrix  type="matrix" values="-1 0 0 0 1  0 -1 0 0 1  0 0 -1 0 1  0 0 0 1 0" color-interpolation-filters="sRGB" result="source"/>
			</filter>
		</defs>
		<mask maskUnits="userSpaceOnUse" x="502" y="59.4" width="48" height="57.4" id="SVGID_10_">
			<g class="st32">
				
					<image style="overflow:visible;" width="53" height="62" xlink:href="5FEC09AC2450A9C6.jpg"  transform="matrix(1 0 0 1 500 57)">
				</image>
			</g>
		</mask>
		<g class="st33">
			<path d="M507,115.4l26.5,1.4c2.4,0.1,4.5-1.2,4.6-3c0.1-1.8-1.8-3.3-4.2-3.4l-15.5-0.8l22.7-14.6c11.3-7.3,12-20,1.6-28.5
				c-10.4-8.5-27.9-9.5-39.2-2.2c-1.9,1.2-2,3.3-0.3,4.8c1.7,1.4,4.7,1.6,6.5,0.4c7.5-4.8,19.2-4.2,26.1,1.5
				c6.9,5.6,6.4,14.2-1.1,19l-22.7,14.7l0.7-11.4c0.1-1.8-1.8-3.3-4.2-3.5c-2.5-0.1-4.5,1.2-4.6,3l-1.2,19.3
				C502.7,113.7,504.6,115.3,507,115.4"/>
		</g>
	</g>
	<g class="st21">
		<path class="st22" d="M131.2,11c8.2,0,16.3,1.8,22.5,5.4l9.9,5.8l6.3,3.8c2.1,1.2,3.2,2.6,3.4,4.7h0.2v19.6h-0.3
			c-0.2,1-0.8,1.8-1.8,2.7c-0.9,0.8-1.6,1.5-2.3,2.3c1.9,2.5,4.6,4.9,8.2,6.9c7.7,4.4,17.7,6.7,27.8,6.7c7,0,14-1.1,20.2-3.2
			c0.1,0,0.1,0,0.2,0c1.9-0.7,4-1,6.1-1c3,0,6,0.7,8.4,1.9c0.1,0,0.1,0.3,0.2,0.3c0,0,0,0,0,0c0,0,0-0.1,0.1-0.1c0,0,0,0,0,0l8.9,5
			l7.1,4.1c6.8,3.9,10.1,9.2,9.1,14.3v15.7c1,5.1-2.4,10.4-9.1,14.3l-33.3,19.3l-17.5,10.1l-33.3,19.3c-6.2,3.6-14.3,5.4-22.5,5.4
			c-8.1,0-16.3-1.8-22.4-5.4l-9.9-5.7l-6.3-3.6h0c-0.1,0-0.1-0.1-0.2-0.1c-2.3-1.3-5.3-1.9-8.2-1.9c-2.2,0-4.4,0.3-6.3,1
			c-0.1,0-0.1,0.1-0.2,0.1c-6.3,2.2-13.4,3.3-20.4,3.3c-10,0-19.9-2.2-27.5-6.6c-7-4.1-10.8-9.3-11.4-14.5h-0.5v-20.6h0.5
			c0.1-1,0.3-2.2,0.6-3.3l-5.5-3.4l-7.1-4c-5.8-3.4-8.9-7.9-9.2-12h0.2V76.9h-0.2c0.3-4.1,3.3-8.7,9.2-12.1L58,45.7l17.5-10.1
			l33.3-19.3C115,12.7,123.1,11,131.2,11 M131.2,7l0,4L131.2,7c-9.2,0-17.8,2.1-24.4,5.9L73.5,32.2L56.1,42.3L22.7,61.4
			c-6.8,3.9-10.8,9.5-11.2,15.3c0,0.5,0,1,0.2,1.5v18.2c-0.1,0.5-0.2,1-0.2,1.5c0.4,5.8,4.5,11.3,11.2,15.2l7.1,4l2.8,1.7
			c-0.2,0.5-0.3,1-0.3,1.5v20.6c0,1,0.3,1.8,0.9,2.5c1.4,5.9,5.9,11.3,13,15.4c7.9,4.6,18.4,7.1,29.5,7.1c7.7,0,15.2-1.2,21.7-3.5
			c0,0,0,0,0.1,0c0.2-0.1,0.4-0.2,0.6-0.3c1.4-0.4,2.9-0.7,4.5-0.7c2.3,0,4.5,0.5,6.1,1.3c0.2,0.1,0.3,0.2,0.5,0.3l6.1,3.5l9.8,5.7
			c6.6,3.8,15.2,5.9,24.4,5.9c9.2,0,17.9-2.1,24.5-5.9l33.3-19.3l17.5-10.1l33.3-19.3c8.1-4.7,12.2-11.4,11.1-18.1V90.3
			c1.1-6.7-3-13.4-11.1-18.1l-7.1-4.1c0,0,0,0-0.1,0l-8.9-5c-0.1-0.1-0.2-0.1-0.4-0.2c-2.9-1.6-6.5-2.4-10.2-2.4
			c-2.5,0-5,0.4-7.1,1.1c-0.1,0-0.3,0.1-0.5,0.1c-5.7,2-12.2,3-18.9,3c-9.8,0-19-2.2-25.8-6.1c-1.8-1-3.4-2.2-4.7-3.4
			c0.7-0.7,1.4-1.5,1.9-2.6c0.6-0.7,0.9-1.6,0.9-2.6V30.5c0-0.6-0.2-1.2-0.4-1.8c-0.9-3.8-4-5.6-5.1-6.3l-6.3-3.8l-9.9-5.8
			C149.1,9.1,140.4,7,131.2,7L131.2,7z"/>
	</g>
	<path class="st23" d="M240,66.2c-0.1,0-0.1,0-0.2,0c-4-2.2-10-2.4-14.5-0.8c-0.1,0-0.1,0.1-0.2,0.1c-15.1,5.3-34.9,4.1-47.9-3.4
		c-13-7.5-15-19-5.9-27.8c3-2.7,2.5-6.2-1.5-8.6l-6.3-3.6l-9.9-5.7c-12.4-7.2-32.6-7.2-44.9,0L75.5,35.7L58,45.8L24.7,65.1
		c-12.4,7.2-12.4,18.9,0,26l7.1,4.1l9,5.2c4.1,2.4,4.6,6,1.6,8.7c-9.1,8.7-7.1,20.2,5.9,27.8c13,7.5,32.9,8.7,48,3.4
		c0.1,0,0.1-0.1,0.2-0.1c4.5-1.6,10.5-1.1,14.5,1c0.1,0,0.1,0.3,0.2,0.3h0l6.3,3.4l9.9,5.6c12.4,7.2,32.6,7.1,44.9-0.1l33.3-19.3
		l17.5-10.1l33.3-19.3c12.4-7.2,12.4-18.9,0-26l-7.1-4.1l-9-5.2C240.1,66.3,240.1,66.2,240,66.2C240,66.2,240,66.2,240,66.2z"/>
	<path class="st34" d="M37.4,116.8"/>
	<g class="st21">
		<g>
			<path class="st22" d="M150.1,69l-38.3-1.9c-3.3-0.2-6.1,1.7-6.2,4c-0.1,2.4,2.5,4.5,5.8,4.6l23.9,1.2l-41.9,27.5
				c-2.4,1.6-2.5,4.3-0.3,6.1c2.2,1.8,6,2,8.4,0.4l41.9-27.5l-0.8,17.4c-0.1,2.4,2.5,4.5,5.7,4.6c1.6,0.1,3.2-0.3,4.3-1.1
				c1.1-0.7,1.8-1.8,1.9-3l1.4-27.8C156,71.2,153.4,69.2,150.1,69"/>
		</g>
		<defs>
			<filter id="Adobe_OpacityMaskFilter_10_" filterUnits="userSpaceOnUse" x="91.4" y="67.1" width="64.4" height="45">
				
					<feColorMatrix  type="matrix" values="-1 0 0 0 1  0 -1 0 0 1  0 0 -1 0 1  0 0 0 1 0" color-interpolation-filters="sRGB" result="source"/>
			</filter>
		</defs>
		<mask maskUnits="userSpaceOnUse" x="91.4" y="67.1" width="64.4" height="45" id="SVGID_11_">
			<g class="st35">
				
					<image style="overflow:visible;" width="71" height="51" xlink:href="5FEC09AC2450A9C1.jpg"  transform="matrix(0.9882 0 0 0.9882 88.5648 64.316)">
				</image>
			</g>
		</mask>
		<g class="st36">
			<path class="st22" d="M150.1,69l-38.3-1.9c-3.3-0.2-6.1,1.7-6.2,4c-0.1,2.4,2.5,4.5,5.8,4.6l23.9,1.2l-41.9,27.5
				c-2.4,1.6-2.5,4.3-0.3,6.1c2.2,1.8,6,2,8.4,0.4l41.9-27.5l-0.8,17.4c-0.1,2.4,2.5,4.5,5.7,4.6c1.6,0.1,3.2-0.3,4.3-1.1
				c1.1-0.7,1.8-1.8,1.9-3l1.4-27.8C156,71.2,153.4,69.2,150.1,69"/>
		</g>
	</g>
	<g class="st21">
		<path class="st22" d="M329.6,212.3c8.2,0,16.3,1.8,22.5,5.4l9.9,5.8l6.3,3.8c2.1,1.2,3.2,2.6,3.4,4.7h0.2v19.6h-0.3
			c-0.2,1-0.8,1.8-1.8,2.7c-0.9,0.8-1.6,1.5-2.3,2.3c1.9,2.5,4.6,4.9,8.2,6.9c7.7,4.4,17.7,6.7,27.8,6.7c7,0,14-1.1,20.2-3.2
			c0.1,0,0.1,0,0.2,0c1.9-0.7,4-1,6.1-1c3,0,6,0.7,8.4,1.9c0.1,0,0.1,0.3,0.2,0.3c0,0,0,0,0,0c0,0,0-0.1,0.1-0.1c0,0,0,0,0,0l8.9,5
			l7.1,4.1c6.8,3.9,10.1,9.2,9.1,14.3v15.7c1,5.1-2.4,10.4-9.1,14.3l-33.3,19.3l-17.5,10.1L370.4,370c-6.2,3.6-14.3,5.4-22.5,5.4
			c-8.1,0-16.3-1.8-22.4-5.4l-9.9-5.7l-6.3-3.6h0c-0.1,0-0.1-0.1-0.2-0.1c-2.3-1.3-5.3-1.9-8.2-1.9c-2.2,0-4.4,0.3-6.3,1
			c-0.1,0-0.1,0.1-0.2,0.1c-6.3,2.2-13.4,3.3-20.4,3.3c-10,0-19.9-2.2-27.5-6.6c-7-4.1-10.8-9.3-11.4-14.5h-0.5v-20.6h0.5
			c0.1-1,0.3-2.2,0.6-3.3l-5.5-3.4l-7.1-4c-5.8-3.4-8.9-7.9-9.2-12h0.2v-20.6h-0.2c0.3-4.1,3.3-8.7,9.2-12.1l33.3-19.1l17.5-10.1
			l33.3-19.3C313.3,214,321.4,212.3,329.6,212.3 M329.6,208.3C329.6,208.3,329.6,208.3,329.6,208.3c-9.2,0-17.8,2.1-24.4,5.9
			l-33.3,19.3l-17.5,10.1l-33.3,19.1c-6.8,3.9-10.8,9.5-11.2,15.3c0,0.5,0,1,0.2,1.5v18.2c-0.1,0.5-0.2,1-0.2,1.5
			c0.4,5.8,4.5,11.3,11.2,15.2l7.1,4l2.8,1.7c-0.2,0.5-0.3,1-0.3,1.5v20.6c0,1,0.3,1.8,0.9,2.5c1.4,5.9,5.9,11.3,13,15.4
			c7.9,4.6,18.4,7.1,29.5,7.1c7.7,0,15.2-1.2,21.7-3.5c0,0,0,0,0,0c0.2-0.1,0.4-0.2,0.6-0.3c1.4-0.4,2.9-0.7,4.5-0.7
			c2.3,0,4.5,0.5,6.1,1.3c0.2,0.1,0.3,0.2,0.5,0.3l6.1,3.5l9.8,5.7c6.6,3.8,15.2,5.9,24.4,5.9c9.2,0,17.9-2.1,24.5-5.9l33.3-19.3
			l17.5-10.1l33.3-19.3c8.1-4.7,12.2-11.4,11.1-18.1v-14.9c1.1-6.7-3-13.4-11.1-18.1l-7.1-4.1c0,0,0,0-0.1,0l-8.9-5
			c-0.1-0.1-0.2-0.1-0.3-0.2l0,0c-2.9-1.6-6.5-2.4-10.2-2.4c-2.5,0-5,0.4-7.1,1.1c-0.1,0-0.3,0.1-0.5,0.1c-5.7,2-12.2,3-18.9,3
			c-9.8,0-19-2.2-25.8-6.1c-1.8-1-3.4-2.2-4.7-3.4c0.7-0.7,1.4-1.5,1.9-2.6c0.6-0.7,0.9-1.6,0.9-2.6v-19.6c0-0.6-0.2-1.2-0.4-1.8
			c-0.9-3.8-4-5.6-5.1-6.3l-6.3-3.8l-9.9-5.8C347.5,210.4,338.8,208.3,329.6,208.3L329.6,208.3L329.6,208.3z"/>
	</g>
	<path class="st23" d="M438.3,267.5c-0.1,0-0.1,0-0.2,0c-4-2.2-10-2.4-14.5-0.8c-0.1,0-0.1,0.1-0.2,0.1c-15.1,5.3-34.9,4.1-47.9-3.4
		c-13-7.5-15-19-5.9-27.8c3-2.7,2.5-6.2-1.5-8.6l-6.3-3.6l-9.9-5.7c-12.4-7.2-32.6-7.2-44.9,0L273.8,237l-17.5,10.1L223,266.4
		c-12.4,7.2-12.4,18.9,0,26l7.1,4.1l9,5.2c4.1,2.4,4.6,6,1.6,8.7c-9.1,8.7-7.1,20.2,5.9,27.8c13,7.5,32.9,8.7,48,3.4
		c0.1,0,0.1-0.1,0.2-0.1c4.5-1.6,10.5-1.1,14.5,1c0.1,0,0.1,0.3,0.2,0.3h0l6.3,3.4l9.9,5.6c12.4,7.2,32.6,7.1,44.9-0.1l33.3-19.3
		l17.5-10.1l33.3-19.3c12.4-7.2,12.4-18.9,0-26l-7.1-4.1l-9-5.2C438.4,267.6,438.4,267.5,438.3,267.5
		C438.3,267.5,438.3,267.5,438.3,267.5z"/>
	<path class="st24" d="M235.8,318.1"/>
	<g class="st21">
		<g>
			<path class="st22" d="M294.2,311.4l40.2,2.1c3.5,0.2,6.4-1.5,6.5-3.8c0.1-2.3-2.6-4.3-6-4.5l-25.1-1.3l44-25.9
				c2.5-1.5,2.7-4.1,0.3-5.9c-2.4-1.7-6.3-2-8.9-0.5l-44,25.9l0.9-16.6c0.1-2.3-2.6-4.3-6-4.5c-1.7-0.1-3.3,0.3-4.5,1
				c-1.2,0.7-1.9,1.7-2,2.8l-1.4,26.6C288.1,309.2,290.8,311.2,294.2,311.4"/>
		</g>
		<defs>
			<filter id="Adobe_OpacityMaskFilter_11_" filterUnits="userSpaceOnUse" x="288.2" y="270.6" width="67.6" height="42.9">
				
					<feColorMatrix  type="matrix" values="-1 0 0 0 1  0 -1 0 0 1  0 0 -1 0 1  0 0 0 1 0" color-interpolation-filters="sRGB" result="source"/>
			</filter>
		</defs>
		<mask maskUnits="userSpaceOnUse" x="288.2" y="270.6" width="67.6" height="42.9" id="SVGID_12_">
			<g class="st37">
				
					<image style="overflow:visible;" width="72" height="48" xlink:href="5FEC09AC2450A9C2.jpg"  transform="matrix(1 0 0 1 286 268)">
				</image>
			</g>
		</mask>
		<g class="st38">
			<path d="M294.2,311.4l40.2,2.1c3.5,0.2,6.4-1.5,6.5-3.8c0.1-2.3-2.6-4.3-6-4.5l-25.1-1.3l44-25.9c2.5-1.5,2.7-4.1,0.3-5.9
				c-2.4-1.7-6.3-2-8.9-0.5l-44,25.9l0.9-16.6c0.1-2.3-2.6-4.3-6-4.5c-1.7-0.1-3.3,0.3-4.5,1c-1.2,0.7-1.9,1.7-2,2.8l-1.4,26.6
				C288.1,309.2,290.8,311.2,294.2,311.4"/>
		</g>
	</g>
	<g class="st21">
		<path class="st22" d="M1134.3,212.3c8.2,0,16.3,1.8,22.5,5.4l9.9,5.8l6.3,3.8c2.1,1.2,3.2,2.6,3.4,4.7h0.2v19.6h-0.3
			c-0.2,1-0.8,1.8-1.8,2.7c-0.9,0.8-1.6,1.5-2.3,2.3c1.9,2.5,4.6,4.9,8.2,6.9c7.7,4.4,17.7,6.7,27.8,6.7c7,0,14-1.1,20.2-3.2
			c0.1,0,0.1,0,0.2,0c1.9-0.7,4-1,6.1-1c3,0,6,0.7,8.4,1.9c0.1,0,0.1,0.3,0.2,0.3h0c0,0,0-0.1,0.1-0.1c0,0,0,0,0,0l8.9,5l7.1,4.1
			c6.8,3.9,10.1,9.2,9.1,14.3v15.7c1,5.1-2.4,10.4-9.1,14.3l-33.3,19.3l-17.5,10.1l-33.3,19.3c-6.2,3.6-14.3,5.4-22.5,5.4
			c-8.1,0-16.3-1.8-22.4-5.4l-9.9-5.7l-6.3-3.6h0c-0.1,0-0.1-0.1-0.2-0.1c-2.3-1.3-5.3-1.9-8.2-1.9c-2.2,0-4.4,0.3-6.3,1
			c-0.1,0-0.1,0.1-0.2,0.1c-6.3,2.2-13.4,3.3-20.4,3.3c-10,0-19.9-2.2-27.5-6.6c-7-4.1-10.8-9.3-11.4-14.5h-0.5v-20.6h0.5
			c0.1-1,0.3-2.2,0.6-3.3l-5.5-3.4l-7.1-4c-5.8-3.4-8.9-7.9-9.2-12h0.2v-20.6h-0.2c0.3-4.1,3.3-8.7,9.2-12.1l33.3-19.1l17.5-10.1
			l33.3-19.3C1118,214,1126.2,212.3,1134.3,212.3 M1134.3,208.3C1134.3,208.3,1134.3,208.3,1134.3,208.3c-9.2,0-17.8,2.1-24.4,5.9
			l-33.3,19.3l-17.5,10.1l-33.3,19.1c-6.8,3.9-10.8,9.5-11.2,15.3c0,0.5,0,1,0.2,1.5v18.2c-0.1,0.5-0.2,1-0.2,1.5
			c0.4,5.8,4.5,11.3,11.2,15.2l7.1,4l2.8,1.7c-0.2,0.5-0.3,1-0.3,1.5v20.6c0,1,0.3,1.8,0.9,2.5c1.4,5.9,5.9,11.3,13,15.4
			c7.9,4.6,18.4,7.1,29.5,7.1c7.7,0,15.2-1.2,21.7-3.5c0,0,0,0,0.1,0c0.2-0.1,0.4-0.2,0.6-0.3c1.4-0.4,2.9-0.7,4.5-0.7
			c2.3,0,4.5,0.5,6.1,1.3c0.2,0.1,0.3,0.2,0.5,0.3l6.1,3.5l9.8,5.7c6.6,3.8,15.2,5.9,24.4,5.9c9.2,0,17.9-2.1,24.5-5.9l33.3-19.3
			l17.5-10.1l33.3-19.3c8.1-4.7,12.2-11.4,11.1-18.1v-14.9c1.1-6.7-3-13.4-11.1-18.1l-7.1-4.1c0,0,0,0-0.1,0l-8.9-5
			c-0.1-0.1-0.2-0.1-0.4-0.2c-2.9-1.6-6.5-2.4-10.2-2.4c-2.5,0-5,0.4-7.1,1.1c-0.1,0-0.3,0.1-0.5,0.1c-5.7,2-12.2,3-18.9,3
			c-9.8,0-19-2.2-25.8-6.1c-1.8-1-3.4-2.2-4.7-3.4c0.7-0.7,1.4-1.5,1.9-2.6c0.6-0.7,0.9-1.6,0.9-2.6v-19.6c0-0.6-0.2-1.2-0.4-1.8
			c-0.9-3.8-4-5.6-5.1-6.3l-6.3-3.8l-9.9-5.8C1152.2,210.4,1143.5,208.3,1134.3,208.3L1134.3,208.3L1134.3,208.3z"/>
	</g>
	<path class="st23" d="M1243.1,267.5c-0.1,0-0.1,0-0.2,0c-4-2.2-10-2.4-14.5-0.8c-0.1,0-0.1,0.1-0.2,0.1
		c-15.1,5.3-34.9,4.1-47.9-3.4c-13-7.5-15-19-5.9-27.8c3-2.7,2.5-6.2-1.5-8.6l-6.3-3.6l-9.9-5.7c-12.4-7.2-32.6-7.2-44.9,0
		l-33.3,19.3l-17.5,10.1l-33.3,19.3c-12.4,7.2-12.4,18.9,0,26l7.1,4.1l9,5.2c4.1,2.4,4.6,6,1.6,8.7c-9.1,8.7-7.1,20.2,5.9,27.8
		c13,7.5,32.9,8.7,48,3.4c0.1,0,0.1-0.1,0.2-0.1c4.5-1.6,10.5-1.1,14.5,1c0.1,0,0.1,0.3,0.2,0.3h0l6.3,3.4l9.9,5.6
		c12.4,7.2,32.6,7.1,44.9-0.1l33.3-19.3l17.5-10.1l33.3-19.3c12.4-7.2,12.4-18.9,0-26l-7.1-4.1l-9-5.2
		C1243.1,267.6,1243.1,267.5,1243.1,267.5L1243.1,267.5z"/>
	<path class="st24" d="M1040.5,318.1"/>
	<g class="st21">
		<g>
			<path class="st22" d="M1124.4,318.8c0.2,1-0.5,2.1-1.5,2.7c-2,1.2-5.1,1.2-7-0.1c-1-0.7-1.2-1.3-1.4-1.9l-1.8-11.7l-16.8-1.4
				c-1.2-0.1-2.1-0.5-2.8-1c-1.9-1.3-1.9-3.4,0.1-4.6c1.1-0.7,2.7-1,4.1-0.9l14.4,1.7l-2.1-9.6c-0.2-1,0.4-2,1.5-2.7
				c2-1.2,5.1-1.2,7,0.1c0.8,0.5,1.2,1.1,1.4,1.9l1.5,11.2l17.6,1.6c1,0.1,1.9,0.3,2.8,1c1.9,1.3,1.9,3.4-0.1,4.6
				c-1,0.6-2.6,1.1-4.1,0.9c-4.8-0.6-15.2-2-15.2-2S1123.7,315.6,1124.4,318.8"/>
		</g>
		<defs>
			<filter id="Adobe_OpacityMaskFilter_12_" filterUnits="userSpaceOnUse" x="1091.8" y="288.5" width="51.1" height="34">
				
					<feColorMatrix  type="matrix" values="-1 0 0 0 1  0 -1 0 0 1  0 0 -1 0 1  0 0 0 1 0" color-interpolation-filters="sRGB" result="source"/>
			</filter>
		</defs>
		<mask maskUnits="userSpaceOnUse" x="1091.8" y="288.5" width="51.1" height="34" id="SVGID_13_">
			<g class="st39">
				
					<image style="overflow:visible;" width="56" height="39" xlink:href="5FEC09AC2450A9C0.jpg"  transform="matrix(1 0 0 1 1089 286)">
				</image>
			</g>
		</mask>
		<g class="st40">
			<path d="M1124.4,318.8c0.2,1-0.5,2.1-1.5,2.7c-2,1.2-5.1,1.2-7-0.1c-1-0.7-1.2-1.3-1.4-1.9l-1.8-11.7l-16.8-1.4
				c-1.2-0.1-2.1-0.5-2.8-1c-1.9-1.3-1.9-3.4,0.1-4.6c1.1-0.7,2.7-1,4.1-0.9l14.4,1.7l-2.1-9.6c-0.2-1,0.4-2,1.5-2.7
				c2-1.2,5.1-1.2,7,0.1c0.8,0.5,1.2,1.1,1.4,1.9l1.5,11.2l17.6,1.6c1,0.1,1.9,0.3,2.8,1c1.9,1.3,1.9,3.4-0.1,4.6
				c-1,0.6-2.6,1.1-4.1,0.9c-4.8-0.6-15.2-2-15.2-2S1123.7,315.6,1124.4,318.8"/>
		</g>
	</g>
	<g class="st21">
		<g>
			<path class="st22" d="M1122.7,279.9c-1.8,1.2-4.8,1.1-6.6-0.1c-1.8-1.2-1.8-3.2,0.1-4.4l20.9-13.3c1.8-1.2,4.8-1.1,6.6,0.1
				c0.7,0.5,1.3,1.1,1.3,2l1,13.3c10.2-5.2,19.3-2.7,26,2c8.7,6,8.4,12.9-2.3,19.7c-6.8,4.3-15.3,5.5-22,4.7c-1-0.1-1.8-0.5-2.5-0.9
				c-1.8-1.3-1.8-3.3,0.1-4.5c1.2-0.7,2.5-1,4.8-0.9c4.7,0.3,9,0,13.3-2.7c5.9-3.7,5.7-7.5,1.2-10.6c-4.5-3.1-9.5-4.1-15.4-0.3
				l-4,2.6c-2,1.3-5,1.2-6.8,0c-1-0.7-1.3-1.3-1.4-2.1l-1.1-12.9L1122.7,279.9z"/>
		</g>
		<defs>
			<filter id="Adobe_OpacityMaskFilter_13_" filterUnits="userSpaceOnUse" x="1114.8" y="261.3" width="63.3" height="42.9">
				
					<feColorMatrix  type="matrix" values="-1 0 0 0 1  0 -1 0 0 1  0 0 -1 0 1  0 0 0 1 0" color-interpolation-filters="sRGB" result="source"/>
			</filter>
		</defs>
		<mask maskUnits="userSpaceOnUse" x="1114.8" y="261.3" width="63.3" height="42.9" id="SVGID_14_">
			<g class="st41">
				
					<image style="overflow:visible;" width="69" height="48" xlink:href="5FEC09AC2450A9DE.jpg"  transform="matrix(1 0 0 1 1112 259)">
				</image>
			</g>
		</mask>
		<g class="st42">
			<path d="M1122.7,279.9c-1.8,1.2-4.8,1.1-6.6-0.1c-1.8-1.2-1.8-3.2,0.1-4.4l20.9-13.3c1.8-1.2,4.8-1.1,6.6,0.1
				c0.7,0.5,1.3,1.1,1.3,2l1,13.3c10.2-5.2,19.3-2.7,26,2c8.7,6,8.4,12.9-2.3,19.7c-6.8,4.3-15.3,5.5-22,4.7c-1-0.1-1.8-0.5-2.5-0.9
				c-1.8-1.3-1.8-3.3,0.1-4.5c1.2-0.7,2.5-1,4.8-0.9c4.7,0.3,9,0,13.3-2.7c5.9-3.7,5.7-7.5,1.2-10.6c-4.5-3.1-9.5-4.1-15.4-0.3
				l-4,2.6c-2,1.3-5,1.2-6.8,0c-1-0.7-1.3-1.3-1.4-2.1l-1.1-12.9L1122.7,279.9z"/>
		</g>
	</g>
</g>
</svg>
