<svg id="Capa_1" xmlns="http://www.w3.org/2000/svg" viewBox="-279 196.3 282.2 204"><style>.st0{opacity:.5}.st1{fill:#fff}</style><path class="st0 st1" d="M29.6 235.4s-2.9-12.7-12.4-11.1c7.7-11.9-9.2-23.5-26.8-25.7-17.6-2.2-21.4 16.1-21.4 16.1s-5.6-3.2-8.5 1.3c-22.3-9.9-41.7 3.6-41.7 3.6s3.6 0 37 .9c33.6.9 73.8 14.9 73.8 14.9M-306.6 246.1s46-11.9 83.2-9.9c37.3 2 41.2 2.3 41.2 2.3s-20.4-16.7-46-7.7c-2.7-5.3-9.3-2.3-9.3-2.3s-2.5-20.7-22.3-19.8c-19.8.9-39.5 12.3-32.1 26.2-10.3-2.7-14.7 11.2-14.7 11.2M-212.9 301.1s56.2-14.6 101.7-12.1c45.5 2.4 50.4 2.8 50.4 2.8s-24.9-20.4-56.3-9.4c-3.3-6.4-11.3-2.8-11.3-2.8s-3.1-25.3-27.2-24.2-48.3 15-39.2 32c-12.8-3.2-18.1 13.7-18.1 13.7M.5 376.1s-5.3-16.9-18-13.7c9.1-17-15.1-30.9-39.2-32S-84 354.6-84 354.6s-8-3.7-11.3 2.8c-31.4-11-56.3 9.4-56.3 9.4s4.8-.4 50.4-2.8C-55.7 361.5.5 376.1.5 376.1"/></svg>