<?xml version="1.0" encoding="utf-8"?>
<!-- Generator: Adobe Illustrator 19.2.0, SVG Export Plug-In . SVG Version: 6.00 Build 0)  -->
<svg version="1.1" id="Capa_1" xmlns="http://www.w3.org/2000/svg" xmlns:xlink="http://www.w3.org/1999/xlink" x="0px" y="0px"
	 viewBox="0 0 20 20" style="enable-background:new 0 0 20 20;" xml:space="preserve">
<style type="text/css">
	.st0{fill:#1E1E24;}
	.st1{fill:#FFFFFF;}
</style>
<g>
	<path class="st0" d="M16.3,0.4H3.7c-1.7,0-3.2,1.4-3.2,3.2v12.7c0,1.7,1.4,3.2,3.2,3.2h12.7c1.8,0,3.2-1.4,3.2-3.2V3.6
		C19.5,1.9,18.1,0.4,16.3,0.4z"/>
	<path class="st1" d="M8.7,9.4c0,0,1.4-0.1,1.4-1.8C10.1,5.9,9,5,7.5,5H2.7v9.7h4.8c0,0,2.9,0.1,2.9-2.9C10.5,11.8,10.6,9.4,8.7,9.4
		z M4.8,6.7h2.7c0,0,0.7,0,0.7,1c0,1-0.4,1.1-0.8,1.1H4.8V6.7z M7.4,13H4.8v-2.6h2.7c0,0,1,0,1,1.3C8.5,12.8,7.7,12.9,7.4,13z
		 M14.4,7.5c-3.6,0-3.6,3.7-3.6,3.7s-0.2,3.7,3.6,3.7c0,0,3.2,0.2,3.2-2.6h-1.6c0,0,0.1,1-1.5,1c0,0-1.6,0.1-1.6-1.7h4.8
		C17.6,11.7,18.1,7.5,14.4,7.5z M15.8,10.4h-3c0,0,0.2-1.5,1.6-1.5C15.9,8.9,15.8,10.4,15.8,10.4z M16.2,5.6h-3.8v1.2h3.8L16.2,5.6
		L16.2,5.6z"/>
</g>
</svg>
