<?xml version="1.0" encoding="utf-8"?>
<!-- Generator: Adobe Illustrator 19.2.0, SVG Export Plug-In . SVG Version: 6.00 Build 0)  -->
<svg version="1.1" id="Capa_1" xmlns="http://www.w3.org/2000/svg" xmlns:xlink="http://www.w3.org/1999/xlink" x="0px" y="0px"
	 viewBox="0 0 94.1 94.1" style="enable-background:new 0 0 94.1 94.1;" xml:space="preserve">
<style type="text/css">
	.st0{fill:#262626;}
</style>
<path class="st0" d="M71.8,42.7c-1.2,0-2.4,0.3-3.4,0.8c-0.6-3.8-3.9-6.8-7.9-6.8c-1.2,0-2.4,0.3-3.5,0.8c-0.7-3.7-3.9-6.6-7.9-6.6
	c-1.2,0-2.3,0.3-3.3,0.7v-2.1c4.7-2.8,7.8-7.8,7.8-13.7C53.7,7.1,46.6,0,37.8,0C29.1,0,22,7.1,22,15.9c0,5.8,3.2,10.9,7.9,13.7v14.8
	l-0.2-0.5c-1.2-3-4.1-5-7.4-5c-1,0-2.1,0.2-3,0.6c-4.1,1.7-6,6.4-4.4,10.4l11.6,28.2l0.1,0.1C31.2,88,40.9,94,51.7,94
	C67.2,94,79.8,81.5,79.8,66V50.7C79.8,46.3,76.2,42.7,71.8,42.7z M26.7,15.9c0-6.2,5-11.2,11.2-11.2S49,9.7,49,15.9
	c0,3-1.2,5.8-3.2,7.8v-7.8c0-4.4-3.6-8-8-8c-4.4,0-8,3.6-8,8v7.8C27.9,21.6,26.7,18.9,26.7,15.9z M75.1,66L75.1,66
	c0,12.9-10.5,23.4-23.4,23.4c-9,0-17.1-5-21-13.1L19.2,48.2c-0.3-0.8-0.3-1.7,0-2.6c0.3-0.8,1-1.5,1.8-1.8c0.4-0.2,0.8-0.3,1.3-0.3
	c1.4,0,2.6,0.8,3.1,2.1l9.2,21.7V15.8c0-1.8,1.5-3.3,3.3-3.3c1.8,0,3.3,1.5,3.3,3.3v35c0,1.3,1,2.3,2.3,2.3c1.3,0,2.3-1,2.3-2.3
	V38.9c0-1.8,1.5-3.3,3.3-3.3c1.8,0,3.3,1.5,3.3,3.3v16.1c0,1.3,1,2.3,2.3,2.3c1.3,0,2.3-1,2.3-2.3V44.7c0-1.8,1.5-3.3,3.3-3.3
	c1.8,0,3.3,1.5,3.3,3.3v14.4h0c0,0,0,0,0,0c0,1.3,1,2.3,2.3,2.3c1.3,0,2.3-1,2.3-2.3c0,0,0,0,0,0v-8.4c0-1.8,1.5-3.3,3.3-3.3
	c1.8,0,3.3,1.5,3.3,3.3V66z"/>
</svg>
