<?xml version="1.0" encoding="utf-8"?>
<!-- Generator: Adobe Illustrator 19.1.0, SVG Export Plug-In . SVG Version: 6.00 Build 0)  -->
<svg version="1.1" id="Capa_1" xmlns="http://www.w3.org/2000/svg" xmlns:xlink="http://www.w3.org/1999/xlink" x="0px" y="0px"
	 viewBox="0 0 55 55" style="enable-background:new 0 0 55 55;" xml:space="preserve">
<style type="text/css">
	.st0{fill:#FFFFFF;}
</style>
<g>
	<g>
		<g>
			<path class="st0" d="M27.3,10.1c1.8,0,3.6,0,5.5,0.1c1.3,0,2.9,0.5,3.2,1.8c0.8,3.1,2.7,3.7,5.3,3.7c0.3,0,0.6,0,0.9,0
				c0.1,0,0.2,0,0.3,0c3.3,0,5.1,2.1,5.1,5.3c0.2,6.1,0.2,12.3,0,18.4c-0.1,3.8-2.6,5.5-6.3,5.5c-1.9,0-3.7,0-5.6,0
				c-2.4,0-4.9,0-7.3,0c-0.3,0-0.6,0-0.8,0c-2.7,0-5.5,0-8.2,0c-1.7,0-3.4,0-5.1,0c-5-0.1-6.7-1.8-6.8-6.7c-0.1-5.3-0.1-10.6,0-15.8
				c0-5.1,1.5-6.7,6.6-6.7c2.2,0,3.8-0.3,4.5-2.8c0.4-1.7,1.8-2.6,3.5-2.6C23.8,10.1,25.5,10.1,27.3,10.1 M27.3,4.2
				c-1.9,0-3.7,0-5.4,0.1c-3.8,0.1-7,2.2-8.5,5.4C5.5,9.9,1.6,14,1.5,22.3c-0.1,5.9,0,11.1,0,16c0.1,8,4.4,12.4,12.6,12.5
				c1.6,0,3.2,0,5.2,0c1.4,0,2.8,0,4.2,0c1.3,0,2.7,0,4,0h0.8l3.6,0l3.7,0c1.9,0,3.7,0,5.6,0c7.2,0,11.9-4.4,12.1-11.2
				c0.2-6,0.2-12.3,0-18.7c-0.2-6.5-4.7-11.1-11-11.1c-0.2,0-0.3,0-0.5,0c-0.2,0-0.3,0-0.5,0c-1.2-3.3-4.5-5.4-8.5-5.4
				C30.9,4.2,29.1,4.2,27.3,4.2L27.3,4.2z"/>
		</g>
	</g>
	<g>
		<path class="st0" d="M27.4,41.4C27.4,41.4,27.4,41.4,27.4,41.4c-7,0-12.5-5.7-12.5-12.5c0-6.9,5.5-12.3,12.5-12.3
			c3.4,0,6.6,1.3,8.9,3.6c2.3,2.3,3.6,5.5,3.6,8.8C39.9,35.8,34.3,41.4,27.4,41.4z M27.5,22.5c-3.7,0-6.6,2.8-6.7,6.5
			c0,3.6,2.9,6.6,6.6,6.6l0,2.9l0-2.9c3.7,0,6.6-2.9,6.6-6.5c0-1.8-0.6-3.4-1.9-4.6C30.9,23.1,29.3,22.5,27.5,22.5z"/>
	</g>
</g>
</svg>
