<?xml version="1.0" encoding="utf-8"?>
<!-- Generator: Adobe Illustrator 19.2.0, SVG Export Plug-In . SVG Version: 6.00 Build 0)  -->
<svg version="1.1" id="Capa_1" xmlns="http://www.w3.org/2000/svg" xmlns:xlink="http://www.w3.org/1999/xlink" x="0px" y="0px"
	 viewBox="0 0 24 24.8" style="enable-background:new 0 0 24 24.8;" xml:space="preserve">
<style type="text/css">
	.st0{fill:#262626;}
</style>
<g>
	<path class="st0" d="M24,3.5c0-0.9-0.4-1.8-1-2.5c-1.3-1.3-3.6-1.3-5,0l-5.5,5.8l-0.6-0.6c-0.2-0.2-0.5-0.2-0.7,0l-2,2
		C9,8.3,9,8.6,9.1,8.8l0.6,0.6l-7.1,7.1C2.3,17,2,17.6,2,18.3v0.6c0,0.3-0.1,0.6-0.3,0.8l-1.7,2.5C0,22.4,0,22.7,0.1,22.8l1,1
		C1.2,23.9,1.4,24,1.5,24c0.1,0,0.2,0,0.3-0.1l2.5-1.7C4.5,22.1,4.8,22,5.1,22h0.5c0.7,0,1.3-0.3,1.8-0.8c1.5-1.6,5.9-5.8,7.1-7
		l0.7,0.7c0.1,0.1,0.2,0.1,0.4,0.1s0.3,0,0.4-0.1l2-2c0.2-0.2,0.2-0.5,0-0.7l-0.6-0.6L23,6C23.6,5.3,24,4.4,24,3.5z M6.7,20.5
		C6.4,20.8,6,21,5.6,21H5.1c-0.5,0-1,0.1-1.4,0.4l-2.2,1.4l-0.4-0.4l1.4-2.2C2.9,19.9,3,19.4,3,18.9v-0.6c0-0.4,0.2-0.8,0.4-1.1
		l7.1-7.1l3.3,3.3C12.5,14.7,8.2,18.9,6.7,20.5z M15.5,13.8l-0.6-0.6l0,0l-4-4c0,0,0,0,0,0l-0.6-0.6l1.3-1.3l0.6,0.6c0,0,0,0,0,0
		l4,4c0,0,0,0,0,0l0.6,0.6L15.5,13.8z M16.5,10.8l-3.3-3.3l5.5-5.8c0.9-0.9,2.6-0.9,3.5,0C22.7,2.2,23,2.8,23,3.5s-0.3,1.3-0.7,1.8
		L16.5,10.8z"/>
	<path class="st0" d="M7.1,14.6L4.7,17C4.3,17.5,4,18.1,4,18.8v0.7C4,19.8,4.2,20,4.5,20S5,19.8,5,19.5v-0.7c0-0.4,0.2-0.8,0.4-1.1
		l2.4-2.4c0.2-0.2,0.2-0.5,0-0.7C7.7,14.4,7.3,14.4,7.1,14.6z"/>
</g>
</svg>
