<svg id="Capa_1" xmlns="http://www.w3.org/2000/svg" viewBox="0 0 24 24.8"><style>.st0{fill:#262626}</style><path class="st0" d="M24 3.5c0-.9-.4-1.8-1-2.5-1.3-1.3-3.6-1.3-5 0l-5.5 5.8-.6-.6c-.2-.2-.5-.2-.7 0l-2 2c-.2.1-.2.4-.1.6l.6.6-7.1 7.1c-.3.5-.6 1.1-.6 1.8v.6c0 .3-.1.6-.3.8L0 22.2c0 .2 0 .5.1.6l1 1c.1.1.3.2.4.2.1 0 .2 0 .3-.1l2.5-1.7c.2-.1.5-.2.8-.2h.5c.7 0 1.3-.3 1.8-.8 1.5-1.6 5.9-5.8 7.1-7l.7.7c.1.1.2.1.4.1s.3 0 .4-.1l2-2c.2-.2.2-.5 0-.7l-.6-.6L23 6c.6-.7 1-1.6 1-2.5zm-17.3 17c-.3.3-.7.5-1.1.5h-.5c-.5 0-1 .1-1.4.4l-2.2 1.4-.4-.4 1.4-2.2c.4-.3.5-.8.5-1.3v-.6c0-.4.2-.8.4-1.1l7.1-7.1 3.3 3.3c-1.3 1.3-5.6 5.5-7.1 7.1zm8.8-6.7l-.6-.6-4-4-.6-.6 1.3-1.3.6.6 4 4 .6.6-1.3 1.3zm1-3l-3.3-3.3 5.5-5.8c.9-.9 2.6-.9 3.5 0 .5.5.8 1.1.8 1.8s-.3 1.3-.7 1.8l-5.8 5.5z"/><path class="st0" d="M7.1 14.6L4.7 17c-.4.5-.7 1.1-.7 1.8v.7c0 .3.2.5.5.5s.5-.2.5-.5v-.7c0-.4.2-.8.4-1.1l2.4-2.4c.2-.2.2-.5 0-.7-.1-.2-.5-.2-.7 0z"/></svg>