<?xml version="1.0" encoding="utf-8"?>
<!-- Generator: Adobe Illustrator 19.1.0, SVG Export Plug-In . SVG Version: 6.00 Build 0)  -->
<svg version="1.1" id="Capa_1" xmlns="http://www.w3.org/2000/svg" xmlns:xlink="http://www.w3.org/1999/xlink" x="0px" y="0px"
	 viewBox="0 0 55 55" style="enable-background:new 0 0 55 55;" xml:space="preserve">
<style type="text/css">
	.st0{fill:#FFFFFF;}
</style>
<path class="st0" d="M52.5,24.9L35.6,8c-1.5-1.5-3.8-1.5-5.3,0c-1.5,1.5-1.5,3.8,0,5.3l10.5,10.5H5.1c-2.1,0-3.7,1.7-3.7,3.7
	c0,2.1,1.7,3.7,3.7,3.7l35.7,0L30.3,41.8c-1.5,1.5-1.5,3.8,0,5.3c0.7,0.7,1.7,1.1,2.6,1.1c1,0,1.9-0.4,2.6-1.1l16.9-16.9
	C53.9,28.7,53.9,26.3,52.5,24.9"/>
</svg>
