<?xml version="1.0" encoding="utf-8"?>
<!-- Generator: Adobe Illustrator 19.1.0, SVG Export Plug-In . SVG Version: 6.00 Build 0)  -->
<svg version="1.1" id="Capa_1" xmlns:sketch="http://www.bohemiancoding.com/sketch/ns"
	 xmlns="http://www.w3.org/2000/svg" xmlns:xlink="http://www.w3.org/1999/xlink" x="0px" y="0px" viewBox="-364 238.3 145.7 96.9"
	 style="enable-background:new -364 238.3 145.7 96.9;" xml:space="preserve">
<style type="text/css">
	.st0{fill:#FFFFFF;}
</style>
<title>download</title>
<desc>Created with Sketch.</desc>
<g sketch:type="MSPage">
	<g transform="translate(-3395.000000, -385.000000)" sketch:type="MSLayerGroup">
		<path sketch:type="MSShapeGroup" class="st0" d="M3079.9,699.7l-6.1-7c-1.9-2.2-5.2-2.4-7.4-0.5c-2.2,1.9-2.4,5.2-0.5,7.4l14.7,17
			c1.7,2,4.5,2.3,6.7,1.1c1-0.2,2-0.8,2.7-1.7l14.7-17c1.9-2.2,1.7-5.5-0.5-7.4c-2.2-1.9-5.5-1.7-7.4,0.5l-6.5,7.5l0.5-26.2
			c0.1-2.9-2.3-5.3-5.2-5.3c-2.9-0.1-5.3,2.3-5.3,5.1L3079.9,699.7z M3115.6,688.7c9.1-0.1,16.5-7.6,16.5-16.8
			c0-9.3-7.5-16.8-16.8-16.8c-1.2,0-2.4,0.1-3.6,0.4c-2.4-12.8-13.7-22.5-27.2-22.5c-13.2,0-24.2,9.2-27,21.6c-0.1,0-0.3,0-0.4,0
			c-9.5,0-17.2,7.7-17.2,17.2c0,8.7,6.4,15.9,14.8,17l0,0c0.4-0.1,0.8-0.1,1.2-0.1c2.9,0,5.2,2.3,5.2,5.2s-2.3,5.2-5.2,5.2
			c-0.5,0-1.1-0.1-1.5-0.2c-13.1-1.7-23.2-12.9-23.2-26.4c0-11.9,7.8-22,18.6-25.4c5.4-13.9,19-23.7,34.8-23.7
			c15.4,0,28.6,9.3,34.3,22.6c13.5,1.3,24,12.7,24,26.5c0,14.7-12,26.7-26.7,26.7c-0.2,0-0.4,0-0.6,0c-0.1,0-0.2,0-0.3,0
			c-2.9,0-5.2-2.3-5.2-5.2s2.3-5.2,5.2-5.2C3115.4,688.7,3115.5,688.7,3115.6,688.7L3115.6,688.7z M3102.2,682.4
			c-0.1-0.1-0.1-0.2-0.2-0.2c-0.1,0.1-0.2,0.2-0.3,0.2H3102.2L3102.2,682.4z"/>
	</g>
</g>
</svg>
