<?xml version="1.0" encoding="utf-8"?>
<!-- Generator: Adobe Illustrator 19.2.0, SVG Export Plug-In . SVG Version: 6.00 Build 0)  -->
<svg version="1.1" id="Capa_1" xmlns="http://www.w3.org/2000/svg" xmlns:xlink="http://www.w3.org/1999/xlink" x="0px" y="0px"
	 viewBox="0 0 270 270" style="enable-background:new 0 0 270 270;" xml:space="preserve">
<style type="text/css">
	.st0{fill:#1D70B7;}
	.st1{fill:#35A8E0;}
	.st2{clip-path:url(#SVGID_2_);fill:#2D2925;}
	.st3{clip-path:url(#SVGID_2_);fill:#545B60;}
	.st4{clip-path:url(#SVGID_2_);fill:#61594D;}
	.st5{clip-path:url(#SVGID_2_);fill:#6D8293;}
	.st6{clip-path:url(#SVGID_2_);fill:#699CBD;}
	.st7{clip-path:url(#SVGID_2_);fill:#977D58;}
	.st8{clip-path:url(#SVGID_2_);fill:#35A8E0;}
	.st9{clip-path:url(#SVGID_2_);fill:#73B9E7;}
	.st10{clip-path:url(#SVGID_2_);fill:#9CCAEE;}
	.st11{clip-path:url(#SVGID_2_);fill:#C1DCF4;}
	.st12{clip-path:url(#SVGID_2_);fill:#E1EEFA;}
	.st13{fill:#FFCB03;}
	.st14{fill:none;stroke:#2D2925;stroke-width:5.5405;stroke-linecap:round;stroke-miterlimit:10;}
	.st15{fill:#9CCAEE;}
	.st16{fill:#C1DCF4;}
	.st17{fill:#2D2925;}
</style>
<g>
	<path class="st0" d="M41.7,132.6l-0.8-7.5l9.5-12.1c1.4-1.8,1.1-4.5-0.7-5.9c-1.8-1.4-4.5-1.1-5.9,0.7l-1.3,1.7l-1.5-12.6
		c-0.3-2.1-2.2-3.7-4.3-3.4c-2.1,0.3-3.7,2.2-3.4,4.3l0.8,6.6c0,0.7-0.6,1.4-1.4,1.5c-0.9,0.1-1.6-0.5-1.7-1.4c0,0,0-0.1,0-0.1l0,0
		l-1.4-11.3c-0.3-2.1-2.2-3.7-4.3-3.4s-3.7,2.2-3.4,4.3l1.4,11.3c0.1,0.8-0.5,1.5-1.3,1.6c-0.5,0.1-1-0.1-1.3-0.5l-0.3-0.8l-2.9-6.6
		c-0.9-2-3.2-2.9-5.1-2c-2,0.9-2.9,3.2-2,5.1l3.1,7.1l2.1,17.9l1,8.3c5.5,45.3,46.7,77.7,92,72.2l-3-25.4
		C74,186.3,45.5,163.9,41.7,132.6z"/>
	<path class="st0" d="M235,109.3l-1-7.5l-12.1-9.5c-1.8-1.4-2.1-4.1-0.7-5.9c1.4-1.8,4.1-2.1,5.9-0.7l1.7,1.3l-1.5-12.6
		c-0.3-2.1,1.3-4.1,3.4-4.3s4.1,1.3,4.3,3.4l0.8,6.6c0.2,0.7,0.9,1.2,1.7,1.1c0.9-0.1,1.5-0.9,1.4-1.7c0,0,0-0.1,0-0.1l0,0
		l-1.4-11.3c-0.3-2.1,1.3-4.1,3.4-4.3c2.1-0.3,4.1,1.3,4.3,3.4l1.4,11.3c0.1,0.8,0.8,1.4,1.6,1.3c0.5-0.1,0.9-0.4,1.1-0.8l0.1-0.8
		l1.3-7.1c0.4-2.1,2.4-3.5,4.5-3.2c2.1,0.4,3.5,2.4,3.2,4.5l-1.4,7.7l3.3,26.2c5.5,45.3-27,86.6-72.2,92l-3.1-25.3
		C216.4,169.1,238.8,140.6,235,109.3z"/>
	<path class="st1" d="M156.7,327.3L156.7,327.3c-33.2,4-63.6-19.9-67.5-53L70.5,119.3c-4-33.2,19.9-63.6,53-67.5l0,0
		c33.2-4,63.6,19.9,67.5,53l18.6,154.9C213.7,292.9,189.8,323.3,156.7,327.3z"/>
	<g>
		<defs>
			<path id="SVGID_1_" d="M156.7,327.3L156.7,327.3c-33.2,4-63.6-19.9-67.5-53L75.2,158.9c-4-33.2,19.9-63.6,53-67.5l0,0
				c33.2-4,63.6,19.9,67.5,53l13.9,115.3C213.7,292.9,189.8,323.3,156.7,327.3z"/>
		</defs>
		<clipPath id="SVGID_2_">
			<use xlink:href="#SVGID_1_"  style="overflow:visible;"/>
		</clipPath>
		<path class="st2" d="M111.3,345.4L111.3,345.4c-7.4,0.9-14.1-4.4-15-11.8l-1.2-9.6c-0.9-7.4,4.4-14.1,11.8-15h0
			c7.4-0.9,14.1,4.4,15,11.8l1.2,9.6C123.9,337.7,118.6,344.5,111.3,345.4z"/>
		<path class="st3" d="M138.1,342.1L138.1,342.1c-7.4,0.9-14.1-4.4-15-11.8l-1.2-9.6c-0.9-7.4,4.4-14.1,11.8-15h0
			c7.4-0.9,14.1,4.4,15,11.8l1.2,9.6C150.7,334.5,145.4,341.3,138.1,342.1z"/>
		<path class="st3" d="M164.9,338.9L164.9,338.9c-7.4,0.9-14.1-4.4-15-11.8l-1.2-9.6c-0.9-7.4,4.4-14.1,11.8-15h0
			c7.4-0.9,14.1,4.4,15,11.8l1.2,9.6C177.5,331.3,172.2,338,164.9,338.9z"/>
		<path class="st2" d="M191.7,335.7L191.7,335.7c-7.4,0.9-14.1-4.4-15-11.8l-1.2-9.6c-0.9-7.4,4.4-14.1,11.8-15h0
			c7.4-0.9,14.1,4.4,15,11.8l1.2,9.6C204.3,328.1,199,334.8,191.7,335.7z"/>
		<path class="st2" d="M218.5,332.5L218.5,332.5c-7.4,0.9-14.1-4.4-15-11.8l-1.2-9.6c-0.9-7.4,4.4-14.1,11.8-15h0
			c7.4-0.9,14.1,4.4,15,11.8l1.2,9.6C231.1,324.8,225.8,331.6,218.5,332.5z"/>
		<path class="st4" d="M95.9,310.5L95.9,310.5c-7.4,0.9-14.1-4.4-15-11.8l-1.2-9.6c-0.9-7.4,4.4-14.1,11.8-15h0
			c7.4-0.9,14.1,4.4,15,11.8l1.2,9.6C108.6,302.9,103.3,309.6,95.9,310.5z"/>
		<path class="st5" d="M122.7,307.3L122.7,307.3c-7.4,0.9-14.1-4.4-15-11.8l-1.2-9.6c-0.9-7.4,4.4-14.1,11.8-15h0
			c7.4-0.9,14.1,4.4,15,11.8l1.2,9.6C135.4,299.7,130.1,306.4,122.7,307.3z"/>
		<path class="st5" d="M149.5,304.1L149.5,304.1c-7.4,0.9-14.1-4.4-15-11.8l-1.2-9.6c-0.9-7.4,4.4-14.1,11.8-15h0
			c7.4-0.9,14.1,4.4,15,11.8l1.2,9.6C162.2,296.4,156.9,303.2,149.5,304.1z"/>
		<path class="st5" d="M176.3,300.9L176.3,300.9c-7.4,0.9-14.1-4.4-15-11.8l-1.2-9.6c-0.9-7.4,4.4-14.1,11.8-15h0
			c7.4-0.9,14.1,4.4,15,11.8l1.2,9.6C189,293.2,183.7,300,176.3,300.9z"/>
		<path class="st4" d="M203.1,297.6L203.1,297.6c-7.4,0.9-14.1-4.4-15-11.8l-1.2-9.6c-0.9-7.4,4.4-14.1,11.8-15h0
			c7.4-0.9,14.1,4.4,15,11.8l1.2,9.6C215.8,290,210.5,296.7,203.1,297.6z"/>
		<path class="st6" d="M105.4,296.7L105.4,296.7c-7.4,0.9-14.1-4.4-15-11.8l-1.2-9.6c-0.9-7.4,4.4-14.1,11.8-15h0
			c7.4-0.9,14.1,4.4,15,11.8l1.2,9.6C118.1,289.1,112.8,295.8,105.4,296.7z"/>
		<path class="st6" d="M132.2,293.5L132.2,293.5c-7.4,0.9-14.1-4.4-15-11.8l-1.2-9.6c-0.9-7.4,4.4-14.1,11.8-15h0
			c7.4-0.9,14.1,4.4,15,11.8l1.2,9.6C144.9,285.9,139.6,292.6,132.2,293.5z"/>
		<path class="st6" d="M159,290.3L159,290.3c-7.4,0.9-14.1-4.4-15-11.8l-1.2-9.6c-0.9-7.4,4.4-14.1,11.8-15h0
			c7.4-0.9,14.1,4.4,15,11.8l1.2,9.6C171.7,282.6,166.4,289.4,159,290.3z"/>
		<path class="st6" d="M185.8,287.1L185.8,287.1c-7.4,0.9-14.1-4.4-15-11.8l-1.2-9.6c-0.9-7.4,4.4-14.1,11.8-15h0
			c7.4-0.9,14.1,4.4,15,11.8l1.2,9.6C198.5,279.4,193.2,286.2,185.8,287.1z"/>
		<path class="st7" d="M212.6,283.8L212.6,283.8c-7.4,0.9-14.1-4.4-15-11.8l-1.2-9.6c-0.9-7.4,4.4-14.1,11.8-15h0
			c7.4-0.9,14.1,4.4,15,11.8l1.2,9.6C225.3,276.2,220,282.9,212.6,283.8z"/>
		<path class="st8" d="M93.8,284.4L93.8,284.4c-7.4,0.9-14.1-4.4-15-11.8l-1.2-9.6c-0.9-7.4,4.4-14.1,11.8-15l0,0
			c7.4-0.9,14.1,4.4,15,11.8l1.2,9.6C106.5,276.8,101.2,283.5,93.8,284.4z"/>
		<path class="st8" d="M120.6,281.2L120.6,281.2c-7.4,0.9-14.1-4.4-15-11.8l-1.2-9.6c-0.9-7.4,4.4-14.1,11.8-15l0,0
			c7.4-0.9,14.1,4.4,15,11.8l1.2,9.6C133.3,273.5,128,280.3,120.6,281.2z"/>
		<path class="st8" d="M147.4,277.9L147.4,277.9c-7.4,0.9-14.1-4.4-15-11.8l-1.2-9.6c-0.9-7.4,4.4-14.1,11.8-15h0
			c7.4-0.9,14.1,4.4,15,11.8l1.2,9.6C160.1,270.3,154.8,277.1,147.4,277.9z"/>
		<path class="st8" d="M174.2,274.7L174.2,274.7c-7.4,0.9-14.1-4.4-15-11.8l-1.2-9.6c-0.9-7.4,4.4-14.1,11.8-15h0
			c7.4-0.9,14.1,4.4,15,11.8l1.2,9.6C186.9,267.1,181.6,273.8,174.2,274.7z"/>
		<path class="st8" d="M200.1,272.7L200.1,272.7c-7.4,0.9-14.1-4.4-15-11.8l-1.2-9.6c-0.9-7.4,4.4-14.1,11.8-15l0,0
			c7.4-0.9,14.1,4.4,15,11.8l1.2,9.6C212.8,265,207.5,271.8,200.1,272.7z"/>
		<path class="st9" d="M102.4,271.8L102.4,271.8c-7.4,0.9-14.1-4.4-15-11.8l-1.2-9.6c-0.9-7.4,4.4-14.1,11.8-15l0,0
			c7.4-0.9,14.1,4.4,15,11.8l1.2,9.6C115.1,264.1,109.8,270.9,102.4,271.8z"/>
		<path class="st9" d="M129.2,268.6L129.2,268.6c-7.4,0.9-14.1-4.4-15-11.8l-1.2-9.6c-0.9-7.4,4.4-14.1,11.8-15h0
			c7.4-0.9,14.1,4.4,15,11.8l1.2,9.6C141.9,260.9,136.6,267.7,129.2,268.6z"/>
		<path class="st9" d="M156,265.3L156,265.3c-7.4,0.9-14.1-4.4-15-11.8l-1.2-9.6c-0.9-7.4,4.4-14.1,11.8-15h0
			c7.4-0.9,14.1,4.4,15,11.8l1.2,9.6C168.7,257.7,163.4,264.4,156,265.3z"/>
		<path class="st9" d="M182.8,262.1L182.8,262.1c-7.4,0.9-14.1-4.4-15-11.8l-1.2-9.6c-0.9-7.4,4.4-14.1,11.8-15h0
			c7.4-0.9,14.1,4.4,15,11.8l1.2,9.6C195.5,254.5,190.2,261.2,182.8,262.1z"/>
		<path class="st9" d="M209.6,258.9L209.6,258.9c-7.4,0.9-14.1-4.4-15-11.8l-1.2-9.6c-0.9-7.4,4.4-14.1,11.8-15h0
			c7.4-0.9,14.1,4.4,15,11.8l1.2,9.6C222.3,251.2,217,258,209.6,258.9z"/>
		<path class="st10" d="M89.9,260.6L89.9,260.6c-7.4,0.9-14.1-4.4-15-11.8l-1.2-9.6c-0.9-7.4,4.4-14.1,11.8-15h0
			c7.4-0.9,14.1,4.4,15,11.8l1.2,9.6C102.6,253,97.3,259.7,89.9,260.6z"/>
		<path class="st10" d="M116.7,257.4L116.7,257.4c-7.4,0.9-14.1-4.4-15-11.8l-1.2-9.6c-0.9-7.4,4.4-14.1,11.8-15h0
			c7.4-0.9,14.1,4.4,15,11.8l1.2,9.6C129.4,249.8,124.1,256.5,116.7,257.4z"/>
		<path class="st10" d="M143.5,254.2L143.5,254.2c-7.4,0.9-14.1-4.4-15-11.8l-1.2-9.6c-0.9-7.4,4.4-14.1,11.8-15h0
			c7.4-0.9,14.1,4.4,15,11.8l1.2,9.6C156.2,246.5,150.9,253.3,143.5,254.2z"/>
		<path class="st10" d="M170.3,251L170.3,251c-7.4,0.9-14.1-4.4-15-11.8l-1.2-9.6c-0.9-7.4,4.4-14.1,11.8-15h0
			c7.4-0.9,14.1,4.4,15,11.8l1.2,9.6C183,243.3,177.7,250.1,170.3,251z"/>
		<path class="st10" d="M197.1,247.7L197.1,247.7c-7.4,0.9-14.1-4.4-15-11.8l-1.2-9.6c-0.9-7.4,4.4-14.1,11.8-15h0
			c7.4-0.9,14.1,4.4,15,11.8l1.2,9.6C209.8,240.1,204.5,246.8,197.1,247.7z"/>
		<path class="st11" d="M99.4,246.8L99.4,246.8c-7.4,0.9-14.1-4.4-15-11.8l-1.2-9.6c-0.9-7.4,4.4-14.1,11.8-15l0,0
			c7.4-0.9,14.1,4.4,15,11.8l1.2,9.6C112.1,239.2,106.8,245.9,99.4,246.8z"/>
		<path class="st11" d="M126.2,243.6L126.2,243.6c-7.4,0.9-14.1-4.4-15-11.8l-1.2-9.6c-0.9-7.4,4.4-14.1,11.8-15h0
			c7.4-0.9,14.1,4.4,15,11.8l1.2,9.6C138.9,236,133.6,242.7,126.2,243.6z"/>
		<path class="st11" d="M153,240.4L153,240.4c-7.4,0.9-14.1-4.4-15-11.8l-1.2-9.6c-0.9-7.4,4.4-14.1,11.8-15h0
			c7.4-0.9,14.1,4.4,15,11.8l1.2,9.6C165.7,232.7,160.4,239.5,153,240.4z"/>
		<path class="st11" d="M179.8,237.2L179.8,237.2c-7.4,0.9-14.1-4.4-15-11.8l-1.2-9.6c-0.9-7.4,4.4-14.1,11.8-15h0
			c7.4-0.9,14.1,4.4,15,11.8l1.2,9.6C192.5,229.5,187.2,236.3,179.8,237.2z"/>
		<path class="st11" d="M206.6,233.9L206.6,233.9c-7.4,0.9-14.1-4.4-15-11.8l-1.2-9.6c-0.9-7.4,4.4-14.1,11.8-15h0
			c7.4-0.9,14.1,4.4,15,11.8l1.2,9.6C219.3,226.3,214,233,206.6,233.9z"/>
		<path class="st12" d="M86.9,235.7L86.9,235.7c-7.4,0.9-14.1-4.4-15-11.8l-1.2-9.6c-0.9-7.4,4.4-14.1,11.8-15h0
			c7.4-0.9,14.1,4.4,15,11.8l1.2,9.6C99.6,228,94.3,234.8,86.9,235.7z"/>
		<path class="st12" d="M113.7,232.5L113.7,232.5c-7.4,0.9-14.1-4.4-15-11.8l-1.2-9.6c-0.9-7.4,4.4-14.1,11.8-15h0
			c7.4-0.9,14.1,4.4,15,11.8l1.2,9.6C126.4,224.8,121.1,231.6,113.7,232.5z"/>
		<path class="st12" d="M140.5,229.2L140.5,229.2c-7.4,0.9-14.1-4.4-15-11.8l-1.2-9.6c-0.9-7.4,4.4-14.1,11.8-15h0
			c7.4-0.9,14.1,4.4,15,11.8l1.2,9.6C153.2,221.6,147.9,228.3,140.5,229.2z"/>
		<path class="st12" d="M167.3,226L167.3,226c-7.4,0.9-14.1-4.4-15-11.8l-1.2-9.6c-0.9-7.4,4.4-14.1,11.8-15h0
			c7.4-0.9,14.1,4.4,15,11.8l1.2,9.6C180,218.4,174.7,225.1,167.3,226z"/>
		<path class="st12" d="M194.1,222.8L194.1,222.8c-7.4,0.9-14.1-4.4-15-11.8l-1.2-9.6c-0.9-7.4,4.4-14.1,11.8-15h0
			c7.4-0.9,14.1,4.4,15,11.8l1.2,9.6C206.8,215.1,201.5,221.9,194.1,222.8z"/>
		<path class="st8" d="M96.4,221.9L96.4,221.9c-7.4,0.9-14.1-4.4-15-11.8l-1.2-9.6c-0.9-7.4,4.4-14.1,11.8-15l0,0
			c7.4-0.9,14.1,4.4,15,11.8l1.2,9.6C109.1,214.2,103.8,221,96.4,221.9z"/>
		<path class="st8" d="M123.2,218.7L123.2,218.7c-7.4,0.9-14.1-4.4-15-11.8l-1.2-9.6c-0.9-7.4,4.4-14.1,11.8-15l0,0
			c7.4-0.9,14.1,4.4,15,11.8l1.2,9.6C135.9,211,130.6,217.8,123.2,218.7z"/>
		<path class="st8" d="M150,215.4L150,215.4c-7.4,0.9-14.1-4.4-15-11.8l-1.2-9.6c-0.9-7.4,4.4-14.1,11.8-15h0
			c7.4-0.9,14.1,4.4,15,11.8l1.2,9.6C162.7,207.8,157.4,214.5,150,215.4z"/>
		<path class="st8" d="M176.8,212.2L176.8,212.2c-7.4,0.9-14.1-4.4-15-11.8l-1.2-9.6c-0.9-7.4,4.4-14.1,11.8-15h0
			c7.4-0.9,14.1,4.4,15,11.8l1.2,9.6C189.5,204.6,184.2,211.3,176.8,212.2z"/>
		<path class="st8" d="M203.6,209L203.6,209c-7.4,0.9-14.1-4.4-15-11.8l-1.2-9.6c-0.9-7.4,4.4-14.1,11.8-15h0
			c7.4-0.9,14.1,4.4,15,11.8l1.2,9.6C216.3,201.3,211,208.1,203.6,209z"/>
	</g>
	<g>
		<path class="st13" d="M85.7,158.9c-10,0-18.5-7.5-19.7-17.5c-0.6-5.3,0.8-10.5,4.1-14.6c3.3-4.2,8-6.8,13.2-7.5
			c0.8-0.1,1.6-0.1,2.4-0.1c10,0,18.5,7.5,19.7,17.5c0.6,5.3-0.8,10.5-4.1,14.6c-3.3,4.2-8,6.8-13.2,7.5
			C87.3,158.9,86.5,158.9,85.7,158.9z"/>
		<path class="st1" d="M85.8,123c8,0,14.9,6,15.8,14.1c1.1,8.8-5.2,16.7-14,17.8c-0.6,0.1-1.3,0.1-1.9,0.1c-8,0-14.9-6-15.8-14.1
			c-1.1-8.8,5.2-16.7,14-17.8C84.5,123.1,85.1,123.1,85.8,123 M85.8,115.3L85.8,115.3c-1,0-1.9,0.1-2.9,0.2
			c-6.3,0.8-11.9,3.9-15.8,8.9c-3.9,5-5.7,11.2-4.9,17.5c1.4,11.9,11.6,20.9,23.6,20.9c0.9,0,1.9-0.1,2.9-0.2
			c6.3-0.8,11.9-3.9,15.8-8.9c3.9-5,5.7-11.2,4.9-17.5C107.9,124.3,97.7,115.3,85.8,115.3L85.8,115.3z"/>
	</g>
	<g>
		<path class="st13" d="M182.6,147.2c-10,0-18.5-7.5-19.7-17.5c-0.6-5.3,0.8-10.5,4.1-14.6c3.3-4.2,8-6.8,13.2-7.5
			c0.8-0.1,1.6-0.1,2.4-0.1c10,0,18.5,7.5,19.7,17.5c0.6,5.3-0.8,10.5-4.1,14.6c-3.3,4.2-8,6.8-13.2,7.5
			C184.2,147.2,183.3,147.2,182.6,147.2z"/>
		<path class="st1" d="M182.6,111.4c8,0,14.9,6,15.8,14.1c1.1,8.8-5.2,16.7-14,17.8c-0.6,0.1-1.3,0.1-1.9,0.1c-8,0-14.9-6-15.8-14.1
			c-1.1-8.8,5.2-16.7,14-17.8C181.3,111.4,182,111.4,182.6,111.4 M182.6,103.6L182.6,103.6c-1,0-1.9,0.1-2.9,0.2
			c-6.3,0.8-11.9,3.9-15.8,8.9c-3.9,5-5.7,11.2-4.9,17.5c1.4,11.9,11.6,20.9,23.6,20.9c0.9,0,1.9-0.1,2.9-0.2
			c6.3-0.8,11.9-3.9,15.8-8.9c3.9-5,5.7-11.2,4.9-17.5C204.7,112.6,194.6,103.6,182.6,103.6L182.6,103.6z"/>
	</g>
	<line class="st14" x1="181.7" y1="120" x2="183.5" y2="134.7"/>
	<line class="st14" x1="84.8" y1="131.7" x2="86.6" y2="146.4"/>
	<circle class="st15" cx="148.1" cy="71.6" r="7.4"/>
	<g>
		<path class="st16" d="M135.8,159.8c-9.4,1.1-18.6-1.3-26.3-6.9c-3.9-2.9-4.8-8.4-1.9-12.3c2.9-3.9,8.4-4.8,12.3-1.9
			c8.7,6.3,20.9,4.5,27.2-4.2c2.9-3.9,8.4-4.8,12.3-1.9c3.9,2.9,4.8,8.4,1.9,12.3c-5.8,8-14.4,13.2-24.2,14.7
			C136.6,159.7,136.2,159.8,135.8,159.8z"/>
	</g>
	<g>
		<path class="st17" d="M135.1,154c-7.6,0.9-15.5-0.9-22.1-5.8c-1.3-1-1.6-2.8-0.6-4.1c1-1.3,2.8-1.6,4.1-0.6
			c11.3,8.2,27.2,5.8,35.4-5.5c1-1.3,2.8-1.6,4.1-0.6c1.3,1,1.6,2.8,0.6,4.1C151.3,148.7,143.4,153,135.1,154z"/>
	</g>
	<g>
		<path class="st15" d="M91.9,111.9c-3.3,0.4-6.2-1.9-6.6-5.2C83,87.9,96.4,70.8,115.1,68.6c3.3-0.4,6.2,1.9,6.6,5.2
			c0.4,3.3-1.9,6.2-5.2,6.6c-12.2,1.5-20.9,12.6-19.5,24.8C97.5,108.5,95.1,111.5,91.9,111.9z"/>
	</g>
</g>
</svg>
