<svg xmlns="http://www.w3.org/2000/svg" viewBox="0 0 83 76"><path d="M57 0H17c-2.2 0-4 1.8-4 4v4H9c-2.2 0-4 1.8-4 4v60c0 2.2 1.8 4 4 4h40c2.2 0 4-1.8 4-4v-4h4c2.2 0 4-1.8 4-4V4c0-2.2-1.8-4-4-4zm-8 72H9V12h4v52c0 2.2 1.8 4 4 4h32v4zm8-8H17V4h40v60zM30 11h-8V9h8v2zm22 0H33V9h19v2zm0 6H33v-2h19v2zm0 6H33v-2h19v2zm0 6H33v-2h19v2zm0 6H33v-2h19v2zm0 6H33v-2h19v2zm0 6H33v-2h19v2zm0 6H33v-2h19v2zm0 6H33v-2h19v2zM30 17h-8v-2h8v2zm0 12h-8v-2h8v2zm0 6h-8v-2h8v2zm0 6h-8v-2h8v2zm0 12h-8v-2h8v2zm0 6h-8v-2h8v2zM73 0h-4c-2.2 0-4 1.8-4 4v58l6 14 6-14V4c0-2.2-1.8-4-4-4zm0 4v5h-4V4h4zm-2 57h-2V11h4v50h-2z"/></svg>