<?xml version="1.0" encoding="utf-8"?>
<!-- Generator: Adobe Illustrator 19.1.0, SVG Export Plug-In . SVG Version: 6.00 Build 0)  -->
<svg version="1.1" id="Capa_1" xmlns="http://www.w3.org/2000/svg" xmlns:xlink="http://www.w3.org/1999/xlink" x="0px" y="0px"
	 viewBox="0 0 55 55" style="enable-background:new 0 0 55 55;" xml:space="preserve">
<style type="text/css">
	.st0{fill:#FFFFFF;}
</style>
<g>
	<path class="st0" d="M2.3,39.5l13.3,13.2c1.2,1.2,3.2,1.2,4.4,0c1.2-1.2,1.2-3.2,0-4.4l-7.8-7.7H34c10.8,0,19.6-8.8,19.6-19.5
		c0-10.8-8.8-19.6-19.6-19.6c-1.8,0-3.3,1.5-3.3,3.3S32.2,8,34,8c7.2,0,13,5.8,13,13c0,7.2-5.8,13-13,13H12.2l7.8-7.8
		c1.2-1.2,1.2-3.2,0-4.4c-1.2-1.2-3.2-1.2-4.4,0L2.3,35.1C1.1,36.3,1.1,38.2,2.3,39.5"/>
</g>
</svg>
