<svg id="Capa_1" xmlns="http://www.w3.org/2000/svg" xmlns:xlink="http://www.w3.org/1999/xlink" viewBox="0 0 500 500" enable-background="new 0 0 500 500"><style>.st0{fill:#ffb400}.st1{fill:#cb7000}.st2{filter:url(#Adobe_OpacityMaskFilter)}.st3{opacity:.3;mask:url(#SVGID_1_)}.st4{fill:#fc0}.st5{filter:url(#Adobe_OpacityMaskFilter_1_)}.st6{opacity:.3;mask:url(#SVGID_2_)}</style><path class="st0" d="M262.4 361.3c-10.7 0-20.9-2.3-28.7-6.4l-12.7-6.7-8.1-4.3c-4-2.2-6.5-5.5-7-9.4-.1-.5 0-1 0-1.4v-28c-.2-.6-.3-1.1-.4-1.6-.1-.8-.1-1.7 0-2.5-1.2-.9-2.4-1.7-3.7-2.4-7.9-4.2-18.6-6.4-30-6.4-9.5 0-18.7 1.6-26.6 4.6-.1 0-.2.1-.3.1-3.3 1.3-7 2-10.8 2-4.2 0-8.1-.8-11.4-2.3-.2 0-.3-.1-.5-.2l-.6-.4-20.7-10.9c-9.5-5-14.8-12.2-15.1-20.3v-1V235.1c0-.5-.1-.9-.1-1.4-.3-8.1 4.6-15.7 13.7-21.3l104.8-64.8c8.8-5.4 21-8.5 33.5-8.5 10.7 0 20.9 2.3 28.7 6.4l21.1 11.1c1.9.9 4.5 1.5 7.2 1.5 2.5 0 4.9-.4 6.9-1.2l.4-.2c9.2-3.5 19.7-5.4 30.5-5.4 13 0 25.4 2.8 34.9 7.8 10.2 5.3 16.5 13 17.8 21.5.4 2.8.3 5.6-.4 8.4v18.8l14.4 7.6c9.5 5 14.8 12.2 15.1 20.3v31c-.3 8.6-5 16-13.7 21.4l-104.8 64.8c-8.7 5.3-20.9 8.4-33.4 8.4z"/><path class="st1" d="M237.8 140.5c10.5 0 20.4 2.2 28 6.2l12.8 6.7 8 4.2H286.9c2.1 1 4.9 1.6 7.9 1.6 2.6 0 5.3-.5 7.5-1.3.1-.1.2-.1.4-.2 9-3.4 19.3-5.3 29.9-5.3 12.7 0 24.9 2.7 34.2 7.6 9.7 5.1 15.8 12.4 17.1 20.4.4 2.7.3 5.4-.4 8v19.9l6 3.1 9.2 4.8c9 4.7 14.1 11.5 14.3 19.1.1 1.6-.1 3.2 0 4.6v26.4c-.2 7.8-4.3 14.8-13 20.1l-41.5 25.7-21.8 13.5-41.5 25.7c-8.6 5.3-20.5 8.3-32.7 8.3-10.5 0-20.4-2.2-28-6.2l-12.7-6.7-8.1-4.3c-3.7-2-5.8-4.9-6.2-8.2-.1-.6 0-1.2 0-1.7v-27.7c-.2-.5-.3-1.1-.4-1.6-.1-1-.1-2 .1-3-1.4-1-2.9-2.2-4.6-3.1-8.3-4.3-19.2-6.6-30.7-6.6-9.7 0-19.1 1.6-27.2 4.7-.1 0-.2.1-.3.1-3.1 1.2-6.6 1.9-10.3 1.9-4 0-7.8-.8-10.9-2.3h-.2l-.6-.4-11.5-6.1-9.2-4.8c-9-4.7-14-11.5-14.3-19.1 0-.5.1-1 .1-1.5v-28c0-.4-.1-.9-.1-1.3-.3-7.6 4.3-14.7 13-20l41.5-25.7 21.8-13.5 41.5-25.7c8.3-5.3 20.3-8.3 32.6-8.3m0-3c-12.8 0-25.3 3.2-34.3 8.8L161.9 172l-21.8 13.5-41.5 25.7c-9.6 5.9-14.7 14-14.4 22.7 0 .4 0 .9.1 1.4V265c.3 8.7 6 16.4 15.9 21.6l9.2 4.8 11.4 6 .5.3c.2.1.5.3.8.3 3.4 1.6 7.5 2.4 11.9 2.4 4 0 8-.7 11.4-2.1.1-.1.2-.1.3-.1 7.8-3 16.8-4.5 26-4.5 11.2 0 21.7 2.2 29.3 6.3 1 .5 1.9 1.1 2.8 1.8 0 .7 0 1.3.1 2 .1.5.2 1.1.4 1.7v27.7c0 .5-.1 1 0 1.7.6 4.4 3.3 8.1 7.8 10.5l8.1 4.3 12.7 6.7c8 4.2 18.5 6.6 29.4 6.6 12.8 0 25.3-3.2 34.3-8.8l41.5-25.7 21.8-13.5 41.5-25.7c9.1-5.6 14.1-13.5 14.4-22.6v-26.5-.3-2-2.4c-.3-8.7-6-16.4-15.9-21.6l-9.2-4.8-4.4-2.3V189c.7-2.9.8-5.9.3-8.8-1.4-9-8-17-18.6-22.6-9.7-5.1-22.4-7.9-35.6-7.9-11 0-21.7 1.9-31 5.5-.2.1-.3.1-.4.2-1.8.7-4 1.1-6.3 1.1-2.5 0-4.9-.5-6.5-1.3h-.2l-.1-.1-8-4.2-12.8-6.7c-8-4.4-18.4-6.7-29.3-6.7z"/><defs><filter id="Adobe_OpacityMaskFilter" filterUnits="userSpaceOnUse" x="84.2" y="137.5" width="331.6" height="225.3"><feColorMatrix values="-1 0 0 0 1 0 -1 0 0 1 0 0 -1 0 1 0 0 0 1 0" color-interpolation-filters="sRGB" result="source"/></filter></defs><mask maskUnits="userSpaceOnUse" x="84.2" y="137.5" width="331.6" height="225.3" id="SVGID_1_"><image width="337" height="230" xlink:href="CABC3207AAF92F74.jpg" transform="translate(81.26 135.5)" overflow="visible" class="st2"/></mask><g class="st3"><path d="M262.4 361.3c-10.7 0-20.9-2.3-28.7-6.4l-12.7-6.7-8.1-4.3c-4-2.2-6.5-5.5-7-9.4-.1-.5 0-1 0-1.4v-28c-.2-.6-.3-1.1-.4-1.6-.1-.8-.1-1.7 0-2.5-1.2-.9-2.4-1.7-3.7-2.4-7.9-4.2-18.6-6.4-30-6.4-9.5 0-18.7 1.6-26.6 4.6-.1 0-.2.1-.3.1-3.3 1.3-7 2-10.8 2-4.2 0-8.1-.8-11.4-2.3-.2 0-.3-.1-.5-.2l-.6-.4-20.7-10.9c-9.5-5-14.8-12.2-15.1-20.3v-1V235.1c0-.5-.1-.9-.1-1.4-.3-8.1 4.6-15.7 13.7-21.3l104.8-64.8c8.8-5.4 21-8.5 33.5-8.5 10.7 0 20.9 2.3 28.7 6.4l21.1 11.1c1.9.9 4.5 1.5 7.2 1.5 2.5 0 4.9-.4 6.9-1.2l.4-.2c9.2-3.5 19.7-5.4 30.5-5.4 13 0 25.4 2.8 34.9 7.8 10.2 5.3 16.5 13 17.8 21.5.4 2.8.3 5.6-.4 8.4v18.8l14.4 7.6c9.5 5 14.8 12.2 15.1 20.3v31c-.3 8.6-5 16-13.7 21.4l-104.8 64.8c-8.7 5.3-20.9 8.4-33.4 8.4z"/><path d="M237.8 140.5c10.5 0 20.4 2.2 28 6.2l12.8 6.7 8 4.2H286.9c2.1 1 4.9 1.6 7.9 1.6 2.6 0 5.3-.5 7.5-1.3.1-.1.2-.1.4-.2 9-3.4 19.3-5.3 29.9-5.3 12.7 0 24.9 2.7 34.2 7.6 9.7 5.1 15.8 12.4 17.1 20.4.4 2.7.3 5.4-.4 8v19.9l6 3.1 9.2 4.8c9 4.7 14.1 11.5 14.3 19.1.1 1.6-.1 3.2 0 4.6v26.4c-.2 7.8-4.3 14.8-13 20.1l-41.5 25.7-21.8 13.5-41.5 25.7c-8.6 5.3-20.5 8.3-32.7 8.3-10.5 0-20.4-2.2-28-6.2l-12.7-6.7-8.1-4.3c-3.7-2-5.8-4.9-6.2-8.2-.1-.6 0-1.2 0-1.7v-27.7c-.2-.5-.3-1.1-.4-1.6-.1-1-.1-2 .1-3-1.4-1-2.9-2.2-4.6-3.1-8.3-4.3-19.2-6.6-30.7-6.6-9.7 0-19.1 1.6-27.2 4.7-.1 0-.2.1-.3.1-3.1 1.2-6.6 1.9-10.3 1.9-4 0-7.8-.8-10.9-2.3h-.2l-.6-.4-11.5-6.1-9.2-4.8c-9-4.7-14-11.5-14.3-19.1 0-.5.1-1 .1-1.5v-28c0-.4-.1-.9-.1-1.3-.3-7.6 4.3-14.7 13-20l41.5-25.7 21.8-13.5 41.5-25.7c8.3-5.3 20.3-8.3 32.6-8.3m0-3c-12.8 0-25.3 3.2-34.3 8.8L161.9 172l-21.8 13.5-41.5 25.7c-9.6 5.9-14.7 14-14.4 22.7 0 .4 0 .9.1 1.4V265c.3 8.7 6 16.4 15.9 21.6l9.2 4.8 11.4 6 .5.3c.2.1.5.3.8.3 3.4 1.6 7.5 2.4 11.9 2.4 4 0 8-.7 11.4-2.1.1-.1.2-.1.3-.1 7.8-3 16.8-4.5 26-4.5 11.2 0 21.7 2.2 29.3 6.3 1 .5 1.9 1.1 2.8 1.8 0 .7 0 1.3.1 2 .1.5.2 1.1.4 1.7v27.7c0 .5-.1 1 0 1.7.6 4.4 3.3 8.1 7.8 10.5l8.1 4.3 12.7 6.7c8 4.2 18.5 6.6 29.4 6.6 12.8 0 25.3-3.2 34.3-8.8l41.5-25.7 21.8-13.5 41.5-25.7c9.1-5.6 14.1-13.5 14.4-22.6v-26.5-.3-2-2.4c-.3-8.7-6-16.4-15.9-21.6l-9.2-4.8-4.4-2.3V189c.7-2.9.8-5.9.3-8.8-1.4-9-8-17-18.6-22.6-9.7-5.1-22.4-7.9-35.6-7.9-11 0-21.7 1.9-31 5.5-.2.1-.3.1-.4.2-1.8.7-4 1.1-6.3 1.1-2.5 0-4.9-.5-6.5-1.3h-.2l-.1-.1-8-4.2-12.8-6.7c-8-4.4-18.4-6.7-29.3-6.7z"/></g><path class="st0" d="M412.3 266.5v-31h-11v13.2c-1-.5-1.7-.9-2.6-1.4l-9.3-4.8-11.6-6.1c-1.5-.8-2.6-1.8-2.7-2.7-.1-.8.6-1.7 1.1-2.1l.1-.1-.2-.1c5.6-5.7 8.3-12.4 7.3-19.1v-29.9h-13v11c-1-.9-2.4-1.7-3.9-2.5-9.3-4.9-21.3-7.6-34-7.6-10.6 0-20.9 1.8-29.9 5.3-.1.1-.2.1-.3.2-2.2.8-4.8 1.3-7.4 1.3-3 0-5.8-.6-7.9-1.6H286.7l-8-4.2-12.8-6.7c-7.6-4-17.5-6.2-28-6.2-12.3 0-24.2 3-32.8 8.3l-41.5 25.7-21.8 13.5-41.5 25.7c-.4.2-1 .4-1 .7v-12.5h-12v31.9c.3 7.6 5.4 14.3 14.3 19.1l9.2 4.8 11.5 6.1.6.4h.2c3.1 1.5 6.9 2.3 10.9 2.3 3.6 0 7.2-.6 10.3-1.9.1 0 .2-.1.3-.1 8.1-3.1 17.5-4.7 27.2-4.7 11.6 0 22.5 2.3 30.7 6.6 2.7 1.4 5 3.6 7 4.6h-2.2v30.8c0 .6-.1 1.2 0 1.7.4 3.3 2.6 6.2 6.3 8.2l8.1 4.3 12.7 6.7c7.6 4 17.5 6.2 28 6.2 12.3 0 24.2-3 32.7-8.3l41.5-25.7 21.8-13.5 41.5-25.7c8.6-5.6 13.4-12.5 12.4-20.1z"/><g><path class="st4" d="M398.5 216.2l-9.2-4.8-11.6-6.1c-1.5-.8-2.5-1.8-2.7-2.7-.1-.8.6-1.7 1.1-2.1l.1-.1.1-.1c5.9-6 8.5-13.1 7.4-20.1-1.3-8-7.3-15.2-17.1-20.4-9.3-4.9-21.4-7.6-34.2-7.6-10.6 0-21 1.8-30 5.3-.1.1-.2.1-.4.2-2.2.8-4.8 1.3-7.5 1.3-3 0-5.8-.6-7.9-1.6H286.3l-8-4.2-12.8-6.7c-7.6-4-17.5-6.2-28-6.2-12.3 0-24.2 3-32.8 8.3l-41.5 25.7-21.8 13.5-41.5 25.7c-8.6 5.3-13.2 12.4-13 20 .3 7.6 5.4 14.3 14.3 19.1l9.2 4.8 11.5 6.1.6.4h.2c3.1 1.5 6.9 2.3 10.9 2.3 3.6 0 7.2-.6 10.3-1.9.1 0 .2-.1.3-.1 8.1-3.1 17.5-4.7 27.2-4.7 11.6 0 22.5 2.4 30.7 6.7 7.6 4 12.3 9.3 13.2 14.9.7 4.6-1.1 9.3-5.3 13.6-2.5 2.4-3.7 5.4-3.3 8.4.4 3.3 2.7 6.2 6.4 8.2l8.2 4.3 12.8 6.7c7.6 4 17.6 6.2 28 6.2 12.3 0 24.2-3 32.8-8.3l41.5-25.7 21.8-13.5 41.5-25.7c8.6-5.3 13.2-12.4 13-20-.1-7.6-5.2-14.4-14.2-19.1z"/><path class="st0" d="M296.5 201.1l-48.5 1.7c-4.2.1-7.5 2.2-7.4 4.6.1 2.4 3.5 4.2 7.7 4.1l30.3-1.1-50.3 31.1c-2.9 1.8-2.8 4.5.2 6.1 3 1.6 7.8 1.4 10.7-.4l50.3-31.1.6 17.3c.1 2.4 3.5 4.2 7.7 4.1 2.1-.1 4-.6 5.3-1.5 1.3-.8 2.1-1.9 2.1-3.1l-1-27.7c0-2.4-3.5-4.2-7.7-4.1"/><defs><filter id="Adobe_OpacityMaskFilter_1_" filterUnits="userSpaceOnUse" x="226.2" y="201.1" width="79" height="47.6"><feColorMatrix values="-1 0 0 0 1 0 -1 0 0 1 0 0 -1 0 1 0 0 0 1 0" color-interpolation-filters="sRGB" result="source"/></filter></defs><mask maskUnits="userSpaceOnUse" x="226.2" y="201.1" width="79" height="47.6" id="SVGID_2_"><image width="84" height="53" xlink:href="CABC3207AAF92F73.jpg" transform="translate(223.26 198.5)" overflow="visible" class="st5"/></mask><path d="M296.5 201.1l-48.5 1.7c-4.2.1-7.5 2.2-7.4 4.6.1 2.4 3.5 4.2 7.7 4.1l30.3-1.1-50.3 31.1c-2.9 1.8-2.8 4.5.2 6.1 3 1.6 7.8 1.4 10.7-.4l50.3-31.1.6 17.3c.1 2.4 3.5 4.2 7.7 4.1 2.1-.1 4-.6 5.3-1.5 1.3-.8 2.1-1.9 2.1-3.1l-1-27.7c0-2.4-3.5-4.2-7.7-4.1" class="st6"/></g></svg>