<?xml version="1.0" encoding="utf-8"?>
<!-- Generator: Adobe Illustrator 19.1.0, SVG Export Plug-In . SVG Version: 6.00 Build 0)  -->
<svg version="1.1" id="Capa_1" xmlns="http://www.w3.org/2000/svg" xmlns:xlink="http://www.w3.org/1999/xlink" x="0px" y="0px"
	 viewBox="0 0 50 50" style="enable-background:new 0 0 50 50;" xml:space="preserve">
<style type="text/css">
	.st0{fill:#FFFFFF;}
</style>
<g>
	<path class="st0" d="M21.9,32.7c-2.1,2.1-4.7,3.1-7.9,3.1s-5.7-1-7.9-3.1C4.1,30.7,3,28.1,3,25c0-3.1,1.1-5.7,3.2-7.7
		c2.1-2.1,4.7-3.1,7.9-3.1s5.7,1,7.9,3.1c2.1,2.1,3.2,4.6,3.2,7.7C25.1,28.1,24,30.7,21.9,32.7z M19.3,19.6
		c-1.4-1.5-3.2-2.2-5.3-2.2c-2.1,0-3.8,0.7-5.3,2.2c-1.4,1.5-2.1,3.3-2.1,5.4c0,2.1,0.7,3.9,2.1,5.4c1.4,1.5,3.2,2.2,5.3,2.2
		c2.1,0,3.8-0.7,5.3-2.2c1.4-1.5,2.1-3.3,2.1-5.4C21.4,22.9,20.7,21.1,19.3,19.6z"/>
	<path class="st0" d="M29.2,14.7h3.5v10.2l9.6-10.2h4.5l-8.4,9.2L47,35.6h-4.2l-7-9.2l-3.1,3.3v5.9h-3.5V14.7z"/>
</g>
</svg>
