<?xml version="1.0" encoding="utf-8"?>
<!-- Generator: Adobe Illustrator 19.2.0, SVG Export Plug-In . SVG Version: 6.00 Build 0)  -->
<svg version="1.1" id="Capa_1" xmlns="http://www.w3.org/2000/svg" xmlns:xlink="http://www.w3.org/1999/xlink" x="0px" y="0px"
	 viewBox="0 0 20 20" style="enable-background:new 0 0 20 20;" xml:space="preserve">
<style type="text/css">
	.st0{fill:#1E1E24;}
</style>
<path class="st0" d="M16.3,0.5H3.7c-1.7,0-3.2,1.4-3.2,3.2v12.7c0,1.7,1.4,3.2,3.2,3.2h12.7c1.8,0,3.2-1.4,3.2-3.2V3.7
	C19.5,1.9,18.1,0.5,16.3,0.5z M16,6.8c0,0.1,0,0.3,0,0.4c0,4.2-3.1,9-8.9,9c-1.8,0-3.4-0.5-4.8-1.4c0.2,0,0.5,0,0.7,0
	c1.5,0,2.8-0.5,3.9-1.4c-1.4,0-2.5-0.9-2.9-2.2c0.2,0,0.4,0.1,0.6,0.1c0.3,0,0.6,0,0.8-0.1C4.1,11,3,9.7,3,8.2c0,0,0,0,0,0
	c0.4,0.2,0.9,0.4,1.4,0.4C3.6,8,3,7,3,5.9c0-0.6,0.2-1.1,0.4-1.6C5,6.2,7.3,7.5,9.9,7.6C9.8,7.4,9.8,7.1,9.8,6.9
	c0-1.8,1.4-3.2,3.1-3.2c0.9,0,1.7,0.4,2.3,1c0.7-0.1,1.4-0.4,2-0.8c-0.2,0.7-0.7,1.4-1.4,1.8c0.6-0.1,1.2-0.3,1.8-0.5
	C17.2,5.8,16.7,6.4,16,6.8z"/>
</svg>
